<?xml version="1.0" encoding="utf-8"?>
<!-- Generator: Adobe Illustrator 22.1.0, SVG Export Plug-In . SVG Version: 6.00 Build 0)  -->
<svg version="1.1" id="Layer_1" xmlns="http://www.w3.org/2000/svg" xmlns:xlink="http://www.w3.org/1999/xlink" x="0px" y="0px"
	 viewBox="0 0 326 187" style="enable-background:new 0 0 326 187;" xml:space="preserve">
<path style="fill:#C47855;" d="M274.4,167c0.1,0.8-0.5,1.4-1.2,1.4l-78.2,0.1c-10.4,0-20.8,0-31.1,0.4c-29.6,1-59.3,4.7-88.7,1.6
	c-0.6-0.1-1.1-0.6-1.1-1.3c0-4.4,0-11.2-0.1-18.8c19.2,2.5,38.6,1.9,58,1.3c10.8-0.3,21.6-0.7,32.4-1c17.6-0.6,33.5-1,50.3-1.8
	c4.7-0.2,9.4-0.4,14-0.5c4.9-0.1,9.9,0.1,14.8,0.7c6.6,0.8,13.6,0.8,20.1,0.3c3.3-0.2,6.5-0.6,9.6-0.8
	C273.4,155.4,273.8,161.7,274.4,167z"/>
<path style="fill:#4F4143;" d="M273,145.2c0,1.1,0.1,2.2,0.1,3.3c-3.1,0.2-6.3,0.6-9.6,0.8c-6.6,0.5-13.6,0.4-20.1-0.3
	c-4.9-0.6-9.8-0.7-14.8-0.7l0-2.8C243.4,145.4,258.2,145.2,273,145.2z"/>
<path style="fill:#4F4143;" d="M228.6,145.6l0,2.8c-4.7,0.1-9.4,0.3-14,0.5c-16.8,0.8-32.8,1.3-50.3,1.8c-10.8,0.3-21.6,0.7-32.4,1
	c-19.4,0.6-38.8,1.2-58-1.3c0-0.8,0-1.6,0-2.5c7.3,0.5,14.6,0.5,21.9,0.4c7-0.1,13.9-0.1,20.9-0.2c7.4-0.1,14.8-0.2,22.2-0.3
	c17.9-0.3,35.8-1,53.8-1.4C204.6,146,216.6,145.8,228.6,145.6z"/>
<g>
	<path style="fill:#C47855;" d="M272.6,125.2c0.1,6.6,0.2,13.5,0.4,20.1c-14.8,0-29.6,0.1-44.4,0.4c-12,0.2-24,0.4-36,0.8
		c-17.9,0.5-35.9,1.1-53.8,1.4c-7.4,0.1-14.8,0.2-22.2,0.3c-7,0.1-13.9,0.1-20.9,0.2c-7.3,0.1-14.6,0.2-21.9-0.4
		c-0.1-6.5-0.2-13.4-0.2-19.8c15.1-0.7,49.5-2.1,59.9-1c5.2,0.5,10.7,0.3,16,0.2c4.9,0,9.5,0.3,14.4-0.1c9.5-0.7,19.1-0.4,28.6-0.3
		C219.2,127.4,246,126.8,272.6,125.2z"/>
	<path style="fill:#4F4143;" d="M272.6,122.6c0,0.9,0,1.7,0,2.6c-26.6,1.7-53.4,2.2-80.1,1.8c-9.6-0.2-19.1-0.5-28.6,0.3
		c-4.9,0.4-9.5,0.1-14.4,0.1c-5.2,0-10.7,0.3-16-0.2c-10.4-1-44.8,0.4-59.9,1c0-1.4,0-2.9-0.1-4.2c24.1,2.7,74.6-2.3,95.5-1.3
		c6.4,0.3,12.8,1.2,19.2,1.2c4.8,0,9.5-1,14.3-1c27.8-0.5,44.9-2.3,67.3-0.5C270.9,122.4,271.7,122.5,272.6,122.6z"/>
	<path style="fill:#C47855;" d="M272.5,107.1c0,4.7,0,10,0.1,15.4c-0.9-0.1-1.7-0.2-2.6-0.2c-22.4-1.8-39.5,0-67.3,0.5
		c-4.8,0.1-9.6,1-14.3,1c-6.4,0-12.8-0.9-19.2-1.2c-21-1-71.5,4-95.5,1.3c-0.1-6.4-0.1-12-0.1-15.6l0.1-1.3
		c36.3,1.4,40.3,0.4,71.9,0.5c12.3,0.1,58.7,1.6,71,1C234.9,107.6,254,106.6,272.5,107.1z"/>
	<path style="fill:#027B2E;" d="M284.5,59.5c22-6,33-4,33-4s-13,4-23,11s-19.7,18.4-19.7,18.4c-6.4,1.2-12.6,2.8-18.3,4.6
		c-10.1,3.4-18.6,9.6-24.2,14.4c0.1-0.4,3.3-12.5,9.2-21.4c0.6-0.8,1.2-1.7,1.9-2.6l0,0C251.2,74.3,262.5,65.5,284.5,59.5z"/>
	<path style="fill:#026F2C;" d="M294.5,108.5c13,8,17,19,17,19s-6-7-13-8S280,120,274,118h-1.5v-9.5h-1c1.1-2.3,2.6-4.4,4.5-6.3
		C276.1,102.2,281.5,100.5,294.5,108.5z"/>
	<path style="fill:#015033;" d="M274.8,84.9c14-2.5,28.7-3.1,39.7-0.4c0,0-26.2,5.2-38.5,17.7c-1.9,1.9-3.5,4-4.5,6.3l-44.3,0.2
		c1.2-1.2,2.9-2.9,5.1-4.8c0,0,0,0,0,0c5.5-4.8,14.1-11,24.2-14.4C262.2,87.6,268.4,86,274.8,84.9z"/>
	<path style="fill:#009F5B;" d="M298.5,40.5c0,0-13,2-24,8c-10.7,5.8-16.1,12.2-16.4,12.5c0,0,0,0,0,0c-3.1,0.9-7.2,2.7-12.6,6.4
		c-3.4,2.3-6.8,5.1-10,8c-2.9-6.1-4.2-11.7-4.8-16.9c0,0,11.8-10.1,28.8-16.1S292.5,36.5,298.5,40.5z"/>
	<path style="fill:#025923;" d="M258.2,61.1c4.3-1.2,6.4-0.5,6.4-0.5c-3.6,0.9-14.6,10.8-21.1,19.4l0,0c-0.7,0.9-1.3,1.8-1.9,2.6
		c-5.9,8.8-9.1,21-9.2,21.4c0,0,0,0,0,0c-2.2,1.9-4,3.6-5.1,4.8l-9.9,0.1c1.5-0.2,2.9-0.3,4.3-0.3c0,0-2.2-3.7-7.9-6.6
		c3.3-5.6,7.7-11.5,12.7-17.1c2.9-3.3,6-6.4,9.2-9.3c3.3-3,6.7-5.7,10-8C250.9,63.8,255.1,61.9,258.2,61.1
		C258.2,61.1,258.2,61.1,258.2,61.1z"/>
	<path style="fill:#02702C;" d="M213.2,52.4c1-3.3,2.4-7.2,4.3-11.9c6.9-16.7,21.7-28,22.1-28.4c-0.2,0.5-7.2,16.5-8.1,26.4
		c-0.6,5.9-1.6,12.6-0.8,20.1c0.5,5.2,1.9,10.8,4.8,16.9c-3.2,2.9-6.3,6.1-9.2,9.3c0,0-2.5-9-15.5-19.9c0,0,0,0,0,0
		C210.7,64.7,210.7,60.8,213.2,52.4z"/>
	<path style="fill:#01462E;" d="M199.3,80.6c0.4,0.5,0.7,1,1,1.5c-2.5,0.1-5.7,0.5-9.2,1.7c-2.1-1.3-4-2.4-5.9-3.4
		C189.9,79.8,194.7,79.7,199.3,80.6z"/>
	<path style="fill:#01462E;" d="M213.2,52.4c-2.2-6-5.4-10.2-9.1-13.5c-4.9-4.5-10.6-7.5-15.7-11.4c-8.7-6.8-11.8-8.9-12-9
		c0.2,0.3,4.2,5.6,15,20c0.8,1.1,1.6,2.2,2.2,3.2c0.6,0.9,1.2,1.8,1.6,2.7c4.6,8.1,3.5,12.1,3.5,12.1c0.5,0.3,1.1,0.7,1.7,1
		c4,2.5,7.4,5,10.2,7.5C210.7,64.7,210.7,60.8,213.2,52.4z"/>
	<path style="fill:#026F2C;" d="M193.8,41.7c0.6,0.9,1.1,1.8,1.6,2.7c-2.5,1.5-5.5,3.3-8.6,5.4c-2.7-1.3-5.3-2.5-7.9-3.4
		C185.1,44.1,189.9,42.6,193.8,41.7z"/>
	<path style="fill:#025923;" d="M179.5,67.5c0,0-4.5,2.3-10.4,6.3h0c-0.6-0.1-1.1-0.2-1.6-0.3c-3.1-0.4-7.1-0.5-10.8-0.4
		c3.4-1.3,6.8-2.3,9.8-3.1C172.4,68.3,177.3,67.5,179.5,67.5z"/>
	<path style="fill:#026F2C;" d="M129.2,73.8c4.3-4.8,13-12.4,29.3-19.3c3.1-1.3,6.1-2.5,8.8-3.6c3.4,1.6,6.9,3.6,10.3,6
		c-4.4,3.9-8.5,8.3-11.1,13c-3.1,0.8-6.4,1.9-9.8,3.1c-5.9,0.1-11.2,0.4-11.2,0.4c0.9,0.5,2.2,1.5,3.7,2.7
		c-5.1,2.3-9.9,5.1-13.7,8.3c-13,11-17.5,24.5-17.5,24.5v0.3l-0.6,0c-0.2-3.6,0-15.1,8.4-31.1c0,0,0,0,0-0.1
		C126.3,77.5,127.3,76,129.2,73.8z"/>
	<path style="fill:#01462E;" d="M173.2,98.1c-4.6,4.9-7.9,8.9-9.5,10.9l-24.8,0.1c0.8-2.2,3.1-7.4,9.6-16.1c2.7-2,5.5-3.7,8-4.6
		c1.4-0.5,3-1.1,4.7-1.7C165.5,90.7,169.8,94.9,173.2,98.1z"/>
	<path style="fill:#00622A;" d="M213.6,102c3.3-5.6,7.7-11.5,12.7-17.1c0,0-2.5-9-15.5-19.9c0,0,0,0,0,0c-2.9-2.4-6.3-4.9-10.2-7.5
		c-0.6-0.4-1.1-0.7-1.7-1c-4.2-2.6-8.2-4.8-12-6.7c-2.7-1.3-5.3-2.5-7.9-3.4c-10-3.8-18.9-4.8-26.7-3.1c-1.6,0.3-3.1,0.8-4.7,1.3
		c0,0,1.1,0.1,2.9,0.5c3.5,0.8,9.8,2.4,16.9,5.8c3.4,1.6,6.9,3.6,10.3,6c2.7,1.9,5.4,4.1,7.9,6.6c5.2,5.2,9.8,11.3,13.8,17.1
		c0.4,0.5,0.7,1,1,1.6c3.6,5.4,6.5,10.5,8.5,14.4l0,0c0.9,1.6,1.6,3.1,2.1,4.2c-3.4-1.3-7.9-2.3-13.5-2.3c-7.2,0-13.8,1.3-20.2,3.7
		c-4.5,1.7-8.9,4-13.1,6.9c-0.4,0.3-0.8,0.5-1.2,0.8c0,0,0,0,0,0c-4.3,3-8.4,6.6-12.5,10.6c-11.7,11.7-17.7,35.9-18,37
		c0.4-0.9,6.7-15.3,29-27c13.7-7.2,27.4-13.6,39.2-17.6c6.1-2.1,11.7-3.5,16.5-4.1c1.5-0.2,2.9-0.3,4.3-0.3
		C221.5,108.5,219.3,104.8,213.6,102z"/>
	<path style="fill:#009F5B;" d="M208.8,96.6L208.8,96.6c-6-5-12.1-9.3-17.7-12.8c-2-1.3-4-2.4-5.9-3.4c-6.5-3.5-12.1-5.7-16.1-6.6h0
		c-0.6-0.1-1.1-0.2-1.6-0.3c-3.1-0.4-7.1-0.5-10.8-0.4c-5.9,0.1-11.2,0.4-11.2,0.4c0.9,0.5,2.2,1.5,3.7,2.7c2.3,1.8,5.1,4.3,8.1,7
		c1.3,1.2,2.6,2.4,3.9,3.6c4.3,4,8.6,8.1,11.9,11.4c1.7,1.6,3.1,3,4.2,4c6.3-2.4,13-3.7,20.2-3.7c5.6,0,10,1,13.5,2.3
		C210.4,99.7,209.7,98.2,208.8,96.6z"/>
	<path style="fill:#025923;" d="M149.2,76.2c-5.1,2.3-9.9,5.1-13.7,8.3c-13,11-17.5,24.5-17.5,24.5v0.3l13.6-0.1l7.3,0
		c0.8-2.2,3.1-7.4,9.6-16.1c0.6-0.8,1.3-1.7,2-2.6c2.1-2.6,4.4-5.1,6.8-7.4C154.3,80.5,151.5,78,149.2,76.2z"/>
	<path style="fill:#009F5B;" d="M128.7,73.2c0.2,0.2,0.3,0.4,0.5,0.7c-1.9,2.1-2.9,3.7-3.3,4.3C126.7,76.5,127.6,74.9,128.7,73.2z"
		/>
	<path style="fill:#015033;" d="M157.5,36.5c-4,0-13.9,4.9-36.5,22.6c-0.2,0.1-0.3,0.2-0.5,0.4c-1.5,1.2-3,2.5-4.3,3.8
		c-1.9,1.9-3.7,3.8-5.3,5.9c-3.4,4.3-6.2,9-8.3,13.5c-5.7,11.9-7.5,23.2-8,26.7l22.8-0.1c-0.2-3.6,0-15.1,8.4-31.1c0,0,0,0,0,0
		c0.8-1.6,1.8-3.3,2.8-5c1.7-2.8,3.6-5.7,5.8-8.7c6.8-9.1,12-15.3,15.9-19.5c-1.8-0.4-2.9-0.5-2.9-0.5c1.5-0.5,3.1-1,4.7-1.3
		C158.3,36.9,159.9,36.5,157.5,36.5z"/>
	<path style="fill:#009F5B;" d="M112.5,21.5c-5.6,12.8-5.9,24.9-4.9,33.8c1,8.5,3.3,13.9,3.3,13.9c1.6-2,3.3-4,5.3-5.9
		c1.4-1.3,2.8-2.6,4.3-3.8c0.2-0.1,0.3-0.2,0.5-0.4C113.6,41.3,112.5,21.5,112.5,21.5z"/>
	<path style="fill:#00622A;" d="M107.7,55.3c1,8.5,3.3,13.9,3.3,13.9c-3.4,4.4-6.2,9-8.3,13.5c-0.2-0.2-3.3-4.6-9.8-9.2c0,0,0,0,0,0
		c-0.1-0.2-1.2-4-3.6-8.6c-1.3-6.5-3.7-11.5-7.7-20.4c-4-9-11-17-11-17c4,1,14,5,24,15C99,47,103.7,51.5,107.7,55.3z"/>
	<path style="fill:#009F5B;" d="M102.6,82.7c-5.7,11.9-7.5,23.2-7.9,26.7l-3.6,0V109c-2.6-9.5-11.5-16.3-21.5-20.9
		c-9-4.2-18.9-6.6-26-7.6c-15-2-30,4-30,4c7-14,38-25,59-20c1.6,0.4,3.2,0.8,4.7,1.3c6.5,2.1,11.7,4.9,15.6,7.7c0,0,0,0,0,0
		C99.3,78.1,102.4,82.4,102.6,82.7z"/>
	<path style="fill:#026F2C;" d="M91,109v0.4l-18.8,0.1C66.4,106,45,105,34,109s-24,23-24,23c3-15,15.5-31.5,29-37
		c10.3-4.2,30.2-6.3,30.2-6.3l0.3-0.6C79.5,92.7,88.4,99.5,91,109z"/>
	<path style="fill:#01462E;" d="M89.2,65c2.3,4.6,3.5,8.3,3.6,8.6c-3.9-2.8-9.1-5.6-15.6-7.7c-5.4-14.7-15.6-23.3-15.6-23.3
		s4,0,15,7C82.3,53.2,86.5,59.7,89.2,65z"/>
</g>
</svg>
