<?xml version="1.0" encoding="utf-8"?>
<!-- Generator: Adobe Illustrator 22.1.0, SVG Export Plug-In . SVG Version: 6.00 Build 0)  -->
<svg version="1.1" id="Layer_1" xmlns="http://www.w3.org/2000/svg" xmlns:xlink="http://www.w3.org/1999/xlink" x="0px" y="0px"
	 viewBox="0 0 326 218" style="enable-background:new 0 0 326 218;" xml:space="preserve">
<path style="fill:#388A56;" d="M277.7,131.7c-8.6-1.2-17.6,3.7-18.1,4c1-1,2-1.9,3-2.7c6.3-5,17.6-10.1,27.7-13.8
	c10.1-3.8,23.9-3.8,23.9-3.8s-0.1-0.1-0.3-0.2c-1.3-0.5-6.6-2.2-17.3-1.1c-12.6,1.3-25.2,7.5-35.2,12.6c-0.2,0.1-0.5,0.2-0.8,0.4
	c5.5-12.2,24.7-21.8,24.7-21.8c-12.9,1-21.2,6.7-27.8,12.8c0-0.3,0.1-6.9,3.8-18.6c11-10.4,23.4-17.7,24-18.1c0,0-0.1,0-0.3,0
	c-1.6,0.3-10,2.2-19.6,6.5c0.7-1.7,1.4-3.5,2.3-5.3c8.1-18.2,13.8-28.3,15.7-31.5c0.4-0.7,0.6-1,0.7-1.1
	c-0.9,0.8-28.5,25.7-34.9,47.9c-3.9,3.2-7.5,6.9-10.3,11.2c-1.7,2.6-3.1,5.1-4.2,7.5c0.2-0.8,8-27.9,11.8-46.5
	c3.8-18.9,7.5-45.3,7.5-50.3c0,0-8.8,34-13.8,47.8c-5,13.8-12.7,36.7-12.7,36.7c-2.1-9.5-4.3-19.8-4.9-24.1
	c-1.1-7.9-10.4-55.7-9.5-68.8c0.1-0.9,0.2-1.7,0.4-2.2c-1.1,2.7-4.5,13.3-3.4,40.8c0.8,20.6,4.9,43.7,7.8,58
	c-0.3-0.5-10.4-16.6-15.4-22.8c-4-5-14.3-16.3-20.9-22.6c-0.6-4-1.3-6.2-1.7-7.1c0.3,1,0.3,3,0.2,5.7c-1.1-1-2-1.8-2.7-2.3
	c0.2,0.2,1.2,1.5,2.6,3.5c-1,12.3-5.7,35.6-6.4,40.1c0,0.3-0.1,0.5-0.1,0.9c-3.1,0.1-5.5,0.4-7.5,0.8c0,0,3,0.5,7,1.5
	c-0.7,3.4-1.8,8.2-2.8,12.8c-0.1-0.5-5.3-15.2-8.7-24.3c-3.5-9.2-9.5-31.6-9.5-31.6c0,3.3,2.6,20.8,5.2,33.3
	c2.5,12.1,7.8,29.6,8.1,30.7c-0.8-1.6-1.7-3.2-2.9-4.9c-1.9-2.9-4.4-5.3-7.1-7.4c-0.9-2.9-2.3-5.8-4-8.7c1.9-6.3,3.8-14,3.9-14.6
	c-0.1,0.3-0.2,0.6-0.5,0.9c0,0,0,0,0,0c-0.1,0.1-0.2,0.3-0.3,0.4c0,0,0,0,0,0c-0.8,0.9-2,2-3.5,3c-1.4,1-3,2-4.7,2.9
	c-6.8-8.6-14.5-15.3-14.9-15.7c0,0.1,0.2,0.3,0.4,0.7c0,0,0,0,0,0c1.2,1.9,4.4,7.5,9.2,17.5c-2.2,0.9-4.4,1.7-6.3,2.1
	c-1.1,0.2-2.2,0.5-3.2,0.7c-0.3-0.1-0.6-0.1-0.7-0.2c0,0,0,0,0,0c-0.1,0-0.2,0-0.2,0s0.2,0.1,0.5,0.3c-2.2,0.5-4.2,0.9-6,1.4v0
	c2.3-7.2-1.5-17.6-4.9-21.9c-3.4-4.3-11.2-7.7-16.3-12.9c-5.2-5.2-6.9-11.2-6.9-11.2c0,0.1,0,0.2,0,0.3c0,0,0,0,0,0c0,0,0,0,0,0
	c0,0.1,0,0.2,0,0.3c-0.1,2.5-1,5.9-2.5,11.4c-1.7,6-7.7,21.5-7.7,28.3c0,4.2,1.1,7.4,2,9.2c0.6,0.9,0.9,1.5,1,1.7
	c-0.1-0.2-0.5-0.8-1-1.7c-1.4-2.2-4.5-6.1-9.7-8.4c-7.6-3.4-19.3-9.2-23.8-12.7c0,0,0,0,0,0c-0.1,0-0.1-0.1-0.2-0.1c0,0,0,0,0,0
	c0,0,0,0,0,0.1c0.6,1,5.1,9.7,5.1,14.5c0,5.2-3.6,16.2,0.4,21.4c-5.1-0.2-10.4-1.1-13.2-2.5c-3.3-1.6-5-2.5-6.6-4.1
	c-0.1-0.1-0.2-0.2-0.2-0.2c0,0,0.9,4.3,2.6,8.6c1.7,4.3,6.9,12,13.7,14.6c2,0.8,4.2,1.7,6.6,2.5c-0.4,0-0.8,0-1.2,0l0,1.3
	c0,3.6,0,9.2,0.1,15.6c0,1.4,0,2.8,0,4.2c0.1,6.4,0.2,13.3,0.2,19.8c0,0.8,0,1.7,0,2.5c0.1,7.5,0.1,14.3,0.1,18.8
	c0,0.7,0.5,1.2,1.1,1.3c29.4,3.2,59.1-0.6,88.7-1.6c10.4-0.4,20.8-0.4,31.1-0.4l78.2-0.1c0.8,0,1.3-0.7,1.2-1.4
	c-0.6-5.2-1-11.6-1.3-18.4c0-1.1-0.1-2.2-0.1-3.3c-0.2-6.6-0.3-13.4-0.4-20.1c0-0.9,0-1.7,0-2.6c0-5.4-0.1-10.7-0.1-15.4
	c-2.2-0.1-4.4-0.1-6.6-0.1c0.1-0.1,0.1-0.2,0.2-0.2c1.4-1.8,3.3-4,5.4-6l-5.4,6h7.3c6.3-5,8.8-6.3,17.6-5c8.5,1.2,13.5,4.8,13.8,5
	C290.3,136.7,286.5,132.9,277.7,131.7z M189.7,110.9c3.1,1.5,7.4,4.2,11.9,7.1c-4,0.6-9,2.1-15.2,5.1c-1,0.5-2,1-2.9,1.4
	C183.9,121.6,186.6,116.3,189.7,110.9z M211.2,124.6c0.2,1,0.3,2,0.3,2.9l0,0.1c-5.4-1.6-11.9-3.2-19.1-3.1c1.7-1,3.2-1.8,4.4-2.3
	c2.3-0.9,5-1.8,7.6-2.4C206.7,121.5,209,123.1,211.2,124.6z M183.6,143.5c0.2,0,0.4,0,0.4,0c0.4-0.2,0.9-0.3,1.4-0.4
	c-0.1,0.2-0.3,0.3-0.4,0.5C184.6,143.5,184.1,143.5,183.6,143.5C183.6,143.5,183.6,143.5,183.6,143.5z M194.6,135.8
	c-1.6,0.8-3,1.7-4.3,2.6c-5.1-1.4-9.6,0.7-10,0.9c0.5-0.4,1.1-0.8,1.7-1.2c4-2.3,9.4-3.2,15-3.3
	C196.2,135.1,195.4,135.4,194.6,135.8z M185.9,129.1c8.8,0,17.6,1.3,23.9,5c0.9,0.5,1.7,1.1,2.5,1.8c-0.2-0.1-3.3-1.7-7.7-2
	c-1.6-0.7-3.3-1.3-5.2-1.6c-8.7-1.7-16.4,0.8-21.6,2.5c-1,0.3-2,0.8-3,1.4c0.9-0.7,5.4-3.8,10.3-7
	C185.3,129.2,185.6,129.1,185.9,129.1z M146.9,116c1,3.1,1.5,5.6,1.9,7.5c-1.1,0.3-2.3,0.6-3.5,0.9c-0.6-0.4-1.3-0.9-1.9-1.3
	C144.6,121.2,145.7,118.8,146.9,116z M146.5,137.9c0.4,0.4,0.9,0.8,1.3,1.1c-0.1-0.1-0.8-0.4-1.7-0.8
	C146.2,138.1,146.3,138,146.5,137.9z M147.8,139.1c1.4,1.3,2.5,2.6,3.5,3.7c0,0,0,0,0,0L147.8,139.1z M142.9,140.6
	c1,0.5,2,1.2,3.1,2.1c-2.5-0.1-4.7-0.1-6.7-0.1C140.6,142,141.8,141.3,142.9,140.6z M191.5,143.2c0.3,0,0.5,0.1,0.8,0.1
	c0.5,0.1,1,0.2,1.4,0.3c0,0,0,0,0.1,0c-1.1,0-2.2,0-3.3,0C190.8,143.5,191.2,143.3,191.5,143.2z M198.6,143.6
	c-0.5-0.6-1.1-1.2-1.8-1.7c6.3-0.9,9.6-0.2,11.5,1.4c-1.3,0.1-2.6,0.1-3.9,0.2C203,143.6,201,143.6,198.6,143.6z M208.7,143.2
	C208.7,143.2,208.8,143.3,208.7,143.2c-0.1,0.1-0.2,0.1-0.3,0.1C208.5,143.3,208.6,143.2,208.7,143.2z M230.3,142.3
	c-0.1-0.6-0.2-1.3-0.3-2.1c0,0,0,0,0,0l0.5,2C230.4,142.3,230.4,142.3,230.3,142.3z M97.3,96.8c0,0.1-0.1,0.2-0.1,0.3c0,0,0,0,0,0
	c0,0.1-0.1,0.2-0.1,0.3c0.1-0.4,0.2-0.6,0.2-0.8c0,0,0,0,0-0.1c0,0,0,0,0,0S97.3,96.6,97.3,96.8C97.3,96.8,97.3,96.8,97.3,96.8z
	 M203.5,111.5c-4.2-2.1-8-3.7-11.4-4.9c0.7-1.2,1.4-2.4,2-3.5c1.7-2.9,3.6-5.9,5.4-8.3c3.2,6.1,6.4,12.8,8.7,19.2
	C206.8,113.2,205.2,112.4,203.5,111.5z M192.2,81.3c1.8,3.3,4.2,7.5,6.6,12c-4.1,4-8.8,9.1-11.2,11.9c-2.9-0.8-5.4-1.3-7.8-1.6
	c1.1-6.8,1.9-14.3,2.2-21.2c0.3-7.6,0.1-13.3-0.4-17.4C184.7,69.2,188.8,75.3,192.2,81.3z M184.7,108.9c-3.6,4.9-8.1,11.8-8.1,11.8
	h0c0.8-3.7,1.7-8.4,2.6-13.6C181.1,107.7,182.9,108.2,184.7,108.9z"/>
<g>
	<g>
		<g id="XMLID_5_">
			<g>
				<path style="fill:#26661E;" d="M186.4,123.1c13.8-6.7,21.6-5.8,25.9-5c0,0-9.5,1.7-15.6,4.2c-5.9,2.4-21.2,13.3-22.2,14
					c0,0-0.1,0-0.1,0c-3.5,2.2-6.2,5.6-6.4,5.8c0.2-1.8,0.3-4.2-0.2-7.1c0,0,1.8-2.1,6.6-5.3c2.3-1.5,5.2-3.3,8.9-5.2
					C184.4,124.1,185.3,123.6,186.4,123.1z"/>
				<path style="fill:#52A63A;" d="M180.4,139.2c-2.9,2.3-4.7,5.4-5.1,6.2c-0.1,0.1-0.1,0.2-0.1,0.2h-7.8l0,0
					c0.1-0.2,0.5-1.4,0.8-3.4c0,0,0,0,0,0c0.2-0.3,2.8-3.6,6.4-5.8c0,0,0,0,0.1,0c1-0.6,2.1-1.2,3.1-1.5c5.2-1.7,13-4.2,21.6-2.5
					c8.4,1.6,13.5,7.1,13.8,7.5c-0.5-0.3-8.8-5-14.7-5c-6.1,0-12.1,0.8-16.4,3.3C181.4,138.4,180.9,138.8,180.4,139.2
					C180.4,139.2,180.4,139.2,180.4,139.2z"/>
				<path style="fill:#59B33F;" d="M204.5,88.2c-0.4,0.4-6.2,7.7-10.4,15c-4.3,7.5-10.1,17-10.7,21.4c-3.7,1.9-6.7,3.7-8.9,5.2
					c0,0,0.9-3.5,2.1-9c0,0,7.1-10.9,10.6-15.1C190.7,101.5,201,90.7,204.5,88.2z"/>
				<path style="fill:#26661E;" d="M189.4,140.6c8.9,0.4,12.4,9.7,12.6,10.3c-0.2-0.5-3.3-6.6-9.9-7.7c-6.9-1.1-9.2,0-10.3,2.2h-5.5
					C176.2,145.4,180.2,140.3,189.4,140.6z"/>
				<path style="fill:#388D25;" d="M179.7,55.4c0.8,1.9,3,9,2.3,26.9c-0.5,13.7-3.4,29-5.4,38.4c-1.2,5.5-2.1,9-2.1,9
					c-4.8,3.2-6.6,5.3-6.6,5.3c-0.2-1.2-0.5-2.5-1-3.9c0,0,1.5-6.1,3-12.9c1.5-6.3,3-13.1,3.4-16C174.2,96.7,181.4,61.2,179.7,55.4z
					"/>
				<path style="fill:#2C7523;" d="M175.2,145.4c0.5-0.8,2.3-3.9,5.1-6.2c0,0,0,0,0,0c0.6-0.3,6.3-2.9,12.1-0.1
					c6.1,2.9,9.2,8.1,9.6,11.8c0,0,0,0,0,0c-0.2-0.6-3.7-9.9-12.6-10.3c-9.2-0.4-13.2,4.8-13.2,4.8L175.2,145.4L175.2,145.4z"/>
				<path style="fill:#59B33F;" d="M167.9,135.1c0.5,2.9,0.4,5.3,0.2,7.1c0,0,0,0,0,0l-0.8,3.4l0,0h-3.7
					c2.4-12.8-4.5-22.8-12.7-29.9c-0.7-2-1.4-3.9-2.2-5.7c2.1,1.2,4.2,2.5,6.2,4.1c2.7,2.1,5.2,4.6,7.1,7.4c1.2,1.7,2.1,3.4,2.9,4.9
					c0,0,0,0.1,0,0.1c0.8,1.7,1.4,3.2,1.9,4.7C167.4,132.5,167.7,133.9,167.9,135.1z"/>
				<path style="fill:#52A63A;" d="M167.3,145.6l0.8-3.4C167.9,144.2,167.4,145.4,167.3,145.6z"/>
				<path style="fill:#388D25;" d="M151,115.7c8.2,7.1,15.1,17.1,12.7,29.9h-2.6c0,0-1-1.2-2.7-2.9c0.3-0.7,0.6-1.5,0.8-2.4
					c0.5-2.7,0.2-6.6-2.3-12.1c-1.1-2.3-2.6-4.6-4.3-6.7C152.1,119.4,151.6,117.5,151,115.7z"/>
				<path style="fill:#52A63A;" d="M161.1,145.6h-5c0,0,1.4-0.8,2.4-2.9C160.1,144.4,161.1,145.6,161.1,145.6z"/>
				<path style="fill:#59B33F;" d="M158.4,142.6c-2.7-2.9-7.1-7.1-11.4-9.3c-3.8-8.1-17-14.4-17-14.4c8.9,0.7,14.6,4.4,19.1,8.5
					c1.2,1.1,2.3,2.1,3.4,3.2c0.7,0.7,1.3,1.4,1.9,2c3.6,4.2,4.7,7.6,4.7,7.6C159,141.2,158.8,142,158.4,142.6z"/>
				<path style="fill:#2C7523;" d="M156.9,128.1c2.5,5.5,2.8,9.4,2.3,12.1c0,0-1.1-3.4-4.7-7.6c-0.3-3.9-1-7.7-1.9-11.2
					C154.4,123.5,155.9,125.8,156.9,128.1z"/>
				<path style="fill:#52A63A;" d="M151.8,62.3c0,0,6.1,22.5,9.5,31.6c3.5,9.2,8.7,24.3,8.7,24.3c-1.6,6.8-3,12.9-3,12.9
					c-0.5-1.5-1.1-3.1-1.9-4.7c0,0,0,0,0-0.1c-0.3-1.1-5.6-18.7-8.1-30.8C154.3,83.1,151.8,65.7,151.8,62.3z"/>
				<path style="fill:#26661E;" d="M152.6,121.4c0.9,3.6,1.6,7.3,1.9,11.2c-0.6-0.6-1.2-1.3-1.9-2c-1.1-1-2.2-2.1-3.4-3.2
					c0,0,0-4.3-2.6-12.3C148.8,117,150.8,119.1,152.6,121.4z"/>
				<path style="fill:#388D25;" d="M151,115.7c0.6,1.9,1.2,3.8,1.7,5.7c-1.8-2.2-3.9-4.3-6-6.3c-0.4-1.2-0.8-2.4-1.3-3.8
					C147.2,112.6,149.1,114,151,115.7z"/>
				<path style="fill:#59B33F;" d="M148.8,110c0.8,1.8,1.5,3.7,2.2,5.7c-1.9-1.6-3.8-3.1-5.7-4.4c-0.4-1.2-0.9-2.5-1.5-3.8
					C145.4,108.2,147.1,109,148.8,110z"/>
				<path style="fill:#52A63A;" d="M147.9,139.2c0-0.1-0.1-0.1-0.1-0.1c0,0,0,0,0,0L147.9,139.2z"/>
				<path style="fill:#59B33F;" d="M145.3,111.3c-7-4.9-13.6-7.6-14.9-8.1c1.2,0.2,6.9,1.5,13.4,4.3
					C144.4,108.8,144.9,110.1,145.3,111.3z"/>
				<path style="fill:#388D25;" d="M130.4,103.2c1.3,0.5,7.9,3.2,14.9,8.1c0.5,1.3,0.9,2.6,1.3,3.8c-7.8-7.1-16.5-11.9-16.5-11.9
					S130.2,103.1,130.4,103.2C130.4,103.2,130.4,103.2,130.4,103.2z"/>
				<path style="fill:#26661E;" d="M131.5,83.1c2.3,2.5,11.2,12.4,17.3,26.9c-1.7-0.9-3.4-1.7-5-2.4c-0.5-1.1-1-2.3-1.6-3.5
					C136.7,91.9,132.8,85.2,131.5,83.1z"/>
				<path style="fill:#2C7523;" d="M131,82.3c0.6,0.5,19.6,17,24,31.7c-2-1.6-4.1-2.9-6.2-4.1c-6.1-14.4-15-24.4-17.3-26.9
					C131.2,82.6,131,82.4,131,82.3z"/>
				<path style="fill:#26661E;" d="M124.9,143.1c1.7-3.3,4.3-5.8,10.4-6.7c5.8-0.8,11.9,2.3,12.4,2.6c0.1,0,0.1,0.1,0.1,0.1l3.7,3.9
					h-5c-4.3-3.3-6.1-4.2-12.1-3.3C128.6,140.6,125.2,142.9,124.9,143.1z"/>
				<path style="fill:#52A63A;" d="M147.1,133.4c4.2,2.2,8.6,6.4,11.4,9.3c-1,2.1-2.4,2.9-2.4,2.9c-18.9-23.5-43.1-20.5-45.6-20.1
					c0.9-0.3,4.5-1.4,11.9-0.7c8.6,0.8,17.3,5,24.2,8.3C146.7,133.2,146.9,133.3,147.1,133.4z"/>
				<path style="fill:#388D25;" d="M147.8,139c-0.6-0.6-1.3-1.2-2.1-1.8c-4.3-3.3-12.1-6.7-19-9.2c-6.9-2.5-16.4-2.5-16.4-2.5
					s0.1,0,0.2-0.1c2.5-0.4,26.7-3.5,45.6,20.1h-2.6c0,0-2.3-3.4-5.6-6.4L147.8,139C147.8,139.1,147.8,139.1,147.8,139z"/>
			</g>
			<g>
			</g>
		</g>
	</g>
	<g>
		<g id="XMLID_3_">
			<g>
				<path style="fill:#4FA183;" d="M283.3,51c-1.9,3.2-7.5,13.3-15.7,31.6c-0.8,1.8-1.6,3.6-2.3,5.3c-2.4,1.1-4.8,2.3-7.2,3.7
					C267,69.8,280,54.6,283.3,51z"/>
				<path style="fill:#21B56F;" d="M313.8,115.2c-3.7-0.6-38.9-5.2-66.3,30.3c0,0-2-1.2-3.5-4.4c4-4.3,10.4-10.7,16.5-14v0
					c0.2-0.1,0.5-0.3,0.8-0.4c10.1-5,22.6-11.3,35.2-12.6C307.2,113,312.5,114.6,313.8,115.2z"/>
				<path style="fill:#3CB085;" d="M285.3,105.2c0,0-19.1,9.6-24.6,21.8v0c-6.2,3.3-12.6,9.7-16.5,14c-0.5-1-0.9-2.3-1.1-3.7
					c0,0,1.5-5.2,6.8-11.5c0.8-1,1.8-2,2.8-3c1.6-1.6,3.2-3.2,4.9-4.8C264.1,112,272.3,106.2,285.3,105.2z"/>
				<path style="fill:#56C993;" d="M283.3,51c-3.3,3.6-16.3,18.7-25.2,40.6c-3.1,1.8-6.2,3.8-9.1,6.2c6.4-22.2,34.1-47.1,34.9-47.9
					C283.9,50,283.7,50.4,283.3,51C283.4,51,283.4,51,283.3,51z"/>
				<path style="fill:#52BFA0;" d="M263.2,93.7c10.5-7.5,20.3-11.7,21.8-12.3c0,0,0,0,0,0c0.1,0,0.1,0,0.2,0
					c-0.6,0.3-12.9,7.6-24,18.1C261.8,97.6,262.5,95.7,263.2,93.7z"/>
				<path style="fill:#86DBBD;" d="M265.4,88c9.7-4.4,18.1-6.2,19.6-6.6c-1.5,0.6-11.4,4.8-21.8,12.3C263.8,91.9,264.6,90,265.4,88z
					"/>
				<path style="fill:#86DBBD;" d="M265.4,88c-0.8,2-1.5,3.9-2.2,5.7c-2.7,2-5.5,4.2-8.2,6.6c1-3,2-5.9,3.2-8.6
					C260.6,90.2,263,89,265.4,88z"/>
				<path style="fill:#52BFA0;" d="M263.2,93.7c-0.7,2-1.4,3.9-1.9,5.7c-3.1,2.9-6.1,6.1-8.7,9.5c0.7-2.9,1.5-5.8,2.4-8.6
					C257.7,97.8,260.5,95.6,263.2,93.7z"/>
				<path style="fill:#1E8A58;" d="M259.6,135.6c0.5-0.3,9.6-5.2,18.1-4c8.8,1.3,12.6,5,15.1,10.1c-0.3-0.2-5.3-3.8-13.8-5
					c-8.8-1.2-11.3,0-17.6,5h-7.3l0,0L259.6,135.6L259.6,135.6C259.6,135.6,259.6,135.6,259.6,135.6z"/>
				<path style="fill:#4FA183;" d="M261.3,99.4c-3.7,12.1-3.8,18.6-3.8,18.6v0c-1.7,1.6-3.4,3.2-4.9,4.8c-1,1-1.9,2-2.8,3
					c0.5-5.9,1.4-11.6,2.7-17C255.2,105.5,258.2,102.3,261.3,99.4z"/>
				<path style="fill:#86DBBD;" d="M249,97.8L249,97.8c2.9-2.3,6-4.4,9.1-6.2c-1.1,2.8-2.2,5.7-3.2,8.6
					c-11.9,10.7-22,25.9-18.5,45.2h-5.3l-1.2-5.2c-0.3-2.7-0.4-6.3,0.3-10.7c0.3-1.8,0.8-3.8,1.4-5.9c0.7-2.2,1.6-4.6,2.8-7.1
					c0,0,0,0,0,0c1.1-2.4,2.5-4.9,4.2-7.5C241.5,104.7,245.1,101,249,97.8z"/>
				<path style="fill:#1DA163;" d="M290.3,119.1c-10.1,3.8-21.4,8.8-27.7,13.8c-1.1,0.8-2.1,1.8-3,2.7c0,0,0,0,0,0l0,0
					c-2.1,2.1-4,4.2-5.4,6l0,0c-1.7,2.2-2.8,3.8-2.8,3.8h-3.8c27.4-35.5,62.6-30.9,66.3-30.3c0,0,0,0,0,0c0.2,0.1,0.3,0.2,0.3,0.2
					S300.4,115.3,290.3,119.1z"/>
				<path style="fill:#52BFA0;" d="M255,100.3c-0.9,2.8-1.7,5.7-2.4,8.6c-2.6,3.3-4.7,6.7-6.3,10.2c-3.6,8.2-4.1,14.1-3.3,18.3
					c0.2,1.5,0.7,2.7,1.1,3.7c-2.4,2.6-3.8,4.4-3.8,4.4h-3.7C233,126.1,243.1,111,255,100.3z"/>
				<path style="fill:#21B56F;" d="M240,67.5c5-13.8,13.8-47.8,13.8-47.8c0,5-3.8,31.4-7.5,50.3c-3.7,18.6-11.5,45.7-11.8,46.5
					c0,0,0,0,0,0c-1.2,2.5-2.1,4.9-2.8,7.1h0c0,0-2.2-9.3-4.4-19.5c0,0,0,0,0,0C227.5,103.6,235,81.2,240,67.5z"/>
				<path style="fill:#56C993;" d="M252.5,108.9c-1.3,5.4-2.3,11.1-2.7,17c-5.3,6.3-6.8,11.5-6.8,11.5c-0.7-4.1-0.3-10,3.3-18.3
					C247.8,115.6,250,112.2,252.5,108.9z"/>
				<path style="fill:#21B56F;" d="M247.5,145.5h-7.3c0,0,1.5-1.8,3.8-4.4C245.5,144.2,247.5,145.5,247.5,145.5z"/>
				<path style="fill:#3CB085;" d="M164.5,136.7c0,0,7.5-8.8,20.1-11.3c10.2-2,19.6,0.1,26.8,2.3v0c1.7,0.5,3.2,1,4.6,1.5
					c1.6,0.5,3.1,1.3,4.5,2.2c0,0,0.1,0,0.1,0.1c5.4,3.5,9.3,8.9,9.3,8.9c0.4,3.3,1.2,5.2,1.2,5.2h-11.3c0,0,0-0.1-0.1-0.3
					c-0.6-1.2-3.3-5.8-7.4-9.3c0,0,0,0,0,0c-0.8-0.6-1.6-1.2-2.5-1.8c-6.3-3.8-15.1-5-23.9-5C177.1,129.1,164.5,136.7,164.5,136.7z"
					/>
				<path style="fill:#1E8A58;" d="M230.3,129.6c-0.7,4.4-0.7,8-0.3,10.7c0,0-4-5.4-9.3-8.9c0,0-0.1,0-0.1-0.1
					c-0.8-0.6-4.6-3.4-9.4-6.8c-0.5-3.3-1.6-6.9-2.9-10.6c5.1,2.8,9.2,5.3,12.4,7.5c0,0,0,0,0,0c2.4,1.6,4.2,3.1,5.7,4.3
					c0,0,0,0,0,0C229.2,128.2,230.3,129.6,230.3,129.6z"/>
				<path style="fill:#52BFA0;" d="M217.6,107.9c1.7,8.1,3,13.3,3,13.6c-3.2-2.2-7.3-4.8-12.4-7.5c-4.2-11.8-11.6-24.6-16.1-32.7
					c-6.1-11-14.6-21.9-15.1-22.6c5.1,3.8,20.1,20.1,25.1,26.4C207.3,91.4,217.6,107.9,217.6,107.9z"/>
				<path style="fill:#52BFA0;" d="M220.6,131.4c-1.4-0.9-2.9-1.7-4.5-2.2c-1.4-0.5-3-1-4.6-1.5v0l0.1-0.1c-0.1-1-0.2-1.9-0.4-2.9
					C216,128,219.8,130.8,220.6,131.4z"/>
				<path style="fill:#3CB085;" d="M212.9,11.3c-1,13,8.4,60.8,9.5,68.8c0.6,4.2,2.8,14.6,4.9,24.1c0,0,0,0,0,0
					c2.3,10.2,4.4,19.5,4.4,19.5h0c-0.6,2.1-1.1,4.1-1.4,5.9c0,0-1.2-1.4-4-3.7c0,0,0,0,0,0c-0.2-0.5-5.7-16.9-11.7-59.6
					C210,33.6,211.8,17.3,212.9,11.3z"/>
				<path style="fill:#429C72;" d="M212.9,11.3c-1.1,6-2.8,22.3,1.8,55c6,42.7,11.5,59.1,11.7,59.6c-1.4-1.2-3.3-2.7-5.7-4.3
					c0,0,0,0,0,0c-0.1-0.3-1.4-5.5-3-13.6c-2.9-14.2-7-37.4-7.8-58c-1-27.2,2.3-37.9,3.4-40.7C213,9.7,212.9,10.4,212.9,11.3
					C212.9,11.3,212.9,11.3,212.9,11.3z"/>
				<path style="fill:#52BFA0;" d="M180.8,153.5c0.6-5.6,5-13.3,13.9-17.7c8.7-4.4,17.2,0,17.6,0.1c0,0,0,0,0,0
					c4.2,3.4,6.8,8.1,7.4,9.3l-0.1,0h-1.4c0,0-5.8-7.8-19.1-7.2C186.2,138.5,181.1,152.6,180.8,153.5z"/>
				<path style="fill:#4FA183;" d="M180.8,153.5c0.3-0.9,5.4-15,18.3-15.5c13.3-0.6,19.1,7.2,19.1,7.2h-8c-1.7-3.3-5-5-15-3.3
					C185.5,143.5,181.1,152.9,180.8,153.5z"/>
				<path style="fill:#1E8A58;" d="M165.8,104c6.3-1.2,17.6-2.5,37.7,7.6c1.7,0.8,3.3,1.7,4.8,2.5c1.3,3.7,2.4,7.3,2.9,10.6
					c-7.5-5.3-17.6-12.1-22.7-14.3C179.6,106.5,165.8,104,165.8,104z"/>
			</g>
			<g>
			</g>
		</g>
	</g>
	<g id="XMLID_8_">
		<g>
			<path style="fill:#C47855;" d="M262.4,201.9c0.1,0.8-0.5,1.4-1.2,1.4l-78.2,0.2c-10.4,0-20.8,0-31.1,0.4
				c-29.6,1-59.3,4.8-88.7,1.6c-0.7-0.1-1.1-0.6-1.1-1.3c0-4.4,0-11.2-0.1-18.8c19.2,2.5,38.7,1.9,58,1.3c10.8-0.3,21.6-0.7,32.4-1
				c17.5-0.5,33.5-1,50.3-1.8c4-0.2,8-0.4,12-0.5c5.6-0.1,11.2,0,16.8,0.6c6.5,0.8,13.6,0.8,20.1,0.3c3.3-0.2,6.5-0.6,9.6-0.8
				C261.4,190.4,261.8,196.7,262.4,201.9z"/>
			<path style="fill:#C47855;" d="M260.6,160.1c0.1,6.6,0.2,13.5,0.4,20.1c-15.5,0-31,0.1-46.5,0.4c-11.3,0.2-22.7,0.4-34,0.7
				c-17.9,0.5-35.8,1.1-53.8,1.4c-7.4,0.1-14.8,0.2-22.1,0.3c-7,0.1-13.9,0.1-20.9,0.2c-7.3,0.1-14.6,0.2-21.9-0.4
				c-0.1-6.5-0.2-13.4-0.2-19.8c15.1-0.7,49.5-2.1,59.9-1.1c5.2,0.5,10.7,0.3,16,0.2c4.9,0,9.5,0.3,14.3-0.1
				c9.5-0.7,19.1-0.4,28.7-0.3C207.2,162.4,233.9,161.8,260.6,160.1z"/>
			<path style="fill:#C47855;" d="M260.5,142.1c0,4.7,0,10,0.1,15.4c-0.9-0.1-1.7-0.1-2.6-0.2c-22.4-1.8-39.5,0-67.3,0.4
				c-4.8,0.1-9.6,1-14.3,1c-6.4,0-12.8-0.9-19.2-1.2c-21-1-71.5,4-95.5,1.3c-0.1-6.4-0.1-12-0.1-15.6l0-1.3
				c36.3,1.4,40.3,0.4,72,0.5c12.3,0,58.7,1.6,71,1C222.9,142.6,242,141.5,260.5,142.1z"/>
			<path style="fill:#4F4143;" d="M214.5,180.6c15.5-0.3,31-0.4,46.5-0.4c0,1.1,0.1,2.2,0.1,3.3c-3.1,0.2-6.3,0.6-9.6,0.8
				c-6.6,0.5-13.6,0.4-20.1-0.3c-5.6-0.7-11.2-0.8-16.8-0.6L214.5,180.6z"/>
			<path style="fill:#4F4143;" d="M214.5,180.6l0,2.8c-4,0.1-8,0.3-12,0.5c-16.8,0.8-32.8,1.3-50.3,1.8c-10.8,0.3-21.6,0.7-32.4,1
				c-19.3,0.6-38.8,1.2-58-1.3c0-0.8,0-1.6,0-2.5c7.3,0.5,14.6,0.5,21.9,0.4c7-0.1,13.9-0.1,20.9-0.2c7.4-0.1,14.8-0.2,22.1-0.3
				c17.9-0.3,35.9-1,53.8-1.4C191.9,181,203.2,180.8,214.5,180.6z"/>
			<path style="fill:#4F4143;" d="M61.6,158.9c24.1,2.7,74.6-2.4,95.5-1.3c6.4,0.3,12.8,1.2,19.2,1.2c4.8,0,9.6-0.9,14.3-1
				c27.8-0.4,44.9-2.3,67.3-0.4c0.9,0.1,1.7,0.1,2.6,0.2c0,0.9,0,1.7,0,2.6c-26.6,1.6-53.4,2.2-80.1,1.8c-9.6-0.2-19.1-0.4-28.7,0.3
				c-4.9,0.4-9.5,0.1-14.3,0.1c-5.3,0-10.8,0.3-16-0.2c-10.4-1-44.8,0.4-59.9,1.1C61.6,161.7,61.6,160.3,61.6,158.9z"/>
		</g>
		<g>
		</g>
	</g>
	<g>
		<g id="XMLID_4_">
			<g>
				<path style="fill:#337E4F;" d="M154.9,90.7c-0.2,0.9-3.5,14.7-6,20.6c-2.6,6-4.4,10.9-6.9,13.6v0c-1.9,0.2-3.9,0.3-5.9,0.1
					c-0.6-0.1-1.2-0.1-1.8-0.1c3.6-2.4,10.5-10.1,11.6-15c0.5-2.1,2.1-5.7,3.9-9.3c2.3-3.8,3.9-7.1,4.7-8.8c0,0,0,0,0,0
					C154.7,91.3,154.8,91,154.9,90.7z"/>
				<path style="fill:#3F9C61;" d="M149.7,100.5c1.6-3.3,3.3-6.5,4.3-8.4c0.1-0.1,0.2-0.3,0.4-0.4C153.6,93.4,152,96.8,149.7,100.5z
					"/>
				<path style="fill:#3F9C61;" d="M150.6,95.1c-3.5,3.5-8.7,8.1-13.9,10.9c-9.1,4.9-14.4,6.5-17.1,9.1c-2.7,2.7-3.1,4.6-3.1,4.6
					c-0.8-1.4-1.8-2.6-2.9-3.3c-0.5-0.3-0.9-0.7-1.5-1.2c0,0,0.6-4.8,4.9-7.4c2.2-1.3,4.6-2.2,7.5-2.9c2.7-0.7,5.9-1.4,9.7-2.2
					C139.3,101.5,146.2,98.2,150.6,95.1z"/>
				<path style="fill:#388A56;" d="M142,124.8c7.6-0.9,13.8-4.1,15.2-4.9c-2.6,1.8-17.8,12-25.8,13c-8.7,1.1-12.3,4.1-13.6,5.8
					c1.6-3,2-6.8,1.6-10.4c0,0,0.4-0.3,1.1-0.7c2-1.1,6.5-3,13.7-2.8h0c0.6,0,1.2,0,1.8,0.1C138.1,125.1,140.1,125.1,142,124.8
					L142,124.8z"/>
				<path style="fill:#3F9C61;" d="M137.8,114.4c4.7-3.3,8.9-8.9,11.9-13.9c-1.8,3.6-3.4,7.3-3.9,9.3c-1.1,4.9-8,12.6-11.6,15h0
					c-7.2-0.2-11.7,1.7-13.7,2.8C124.4,122.8,128,121.2,137.8,114.4z"/>
				<path style="fill:#337E4F;" d="M154,92.1c-1,1.9-2.7,5.1-4.3,8.4c-3,5-7.1,10.6-11.9,13.9c-9.9,6.8-13.4,8.4-17.3,13.3
					c-0.8,0.4-1.1,0.7-1.1,0.7c-0.4-3.2-1.4-6.3-2.8-8.7c0,0,0.4-1.9,3.1-4.6c2.7-2.7,8-4.2,17.1-9.1c5.2-2.8,10.4-7.4,13.9-10.9
					C152.1,94.1,153.3,93,154,92.1z"/>
				<path style="fill:#337E4F;" d="M113.7,143c1.8-1,3.2-2.4,4.1-4.2c0,0,0,0,0-0.1c1.2-1.7,4.9-4.7,13.6-5.8c8-1,23.2-11.2,25.8-13
					c0.2-0.1,0.3-0.2,0.3-0.2s-8,33.7-44,23.7V143H113.7z"/>
				<path style="fill:#299951;" d="M97.4,96.6c0,0,5.1,7.7,10.2,13.7c0,0,0,0,0,0c1.6,1.9,3.2,3.6,4.6,4.8c0.5,0.5,1,0.9,1.5,1.2
					c1.1,0.8,2,1.9,2.9,3.3c1.4,2.4,2.4,5.5,2.8,8.7c0.4,3.6,0,7.4-1.6,10.4c0,0,0,0,0,0.1c-0.9,1.7-2.3,3.2-4.1,4.2h-0.2H109v0
					c8.3-10.5,1.2-22.5-2.6-28.2c-3.5-5.3-8.3-16.4-9-18C97.3,96.7,97.4,96.7,97.4,96.6z"/>
				<path style="fill:#238245;" d="M97.3,96.8c0.7,1.6,5.5,12.8,9,18c3.8,5.7,10.9,17.7,2.6,28.2v0h-4.6v0
					c-0.1-11.3-2.6-21.7-3-25.9C101.1,113.2,97.8,98.9,97.3,96.8C97.3,96.8,97.3,96.8,97.3,96.8z"/>
				<path style="fill:#388A56;" d="M97.8,64.4c1.3,4.6,3.7,11.1,7.5,15.8c6.4,8,9.5,12.5,11,17.4c1.5,4.9,0.8,9.9,0.8,9.9l0.2,0.2
					c-4.3,2.6-4.9,7.4-4.9,7.4c-1.4-1.3-3-3-4.6-4.8c0,0,0,0,0,0c-0.2-0.4-3.2-7.1-5.8-13.8c-2.7-6.8-3.4-14.8-3-21.6
					C98.9,71.5,98.4,67.6,97.8,64.4z"/>
				<path style="fill:#299951;" d="M97.3,96.8c0.5,2,3.8,16.4,4.1,20.2c0.4,4.2,2.9,14.6,3,25.9v0h-4.9c-5-7.1-6.8-22.2-4.5-30.9
					c0.8-3,1.9-12.7,2.2-15C97.2,97,97.3,96.9,97.3,96.8z"/>
				<path style="fill:#3F9C61;" d="M96.5,58.8c0,0,1.7,6,6.9,11.2c5.1,5.2,12.9,8.6,16.3,12.9c3.4,4.3,7.3,14.7,4.9,21.9
					c-2.9,0.8-5.3,1.6-7.5,2.9l-0.2-0.2c0,0,0.8-4.9-0.8-9.9c-1.5-4.9-4.6-9.5-11-17.4c-3.8-4.7-6.2-11.2-7.5-15.8
					c-0.5-2.7-1.1-4.8-1.2-5.3C96.5,59,96.5,58.9,96.5,58.8z"/>
				<path style="fill:#3F9C61;" d="M94,103.6L94,103.6c-2.8-9.2-1.4-16.9,0.9-24.9c2-7.1,1.6-17.1,1.5-19.3c0-0.1,0-0.2,0-0.3
					c0.1,0.6,0.5,2.6,1.2,5.3c0.6,3.1,1.2,7.1,1,10.5c-0.4,6.8,0.4,14.8,3,21.6c2.6,6.6,5.6,13.3,5.8,13.8
					c-5.1-6-10.2-13.7-10.2-13.7c0,0,0,0.1-0.1,0.1c-0.1-0.1-0.1-0.2-0.1-0.2s0,0,0,0c0,0,0,0,0,0.1c0,0.1-0.1,0.4-0.2,0.8
					c0,0,0,0,0,0C95.8,100.3,94.9,102.2,94,103.6z"/>
				<path style="fill:#5BA150;" d="M96.5,59.1c0.1,0.5,0.7,2.6,1.2,5.3C97,61.8,96.6,59.7,96.5,59.1C96.5,59.2,96.5,59.2,96.5,59.1
					C96.5,59.1,96.5,59.1,96.5,59.1z"/>
				<path style="fill:#238245;" d="M97.2,97.1c-0.3,2.4-1.4,12-2.2,15c-2.3,8.7-0.5,23.8,4.5,30.9h-5.8c-4.7-3.7-8.9-21-3.6-29.4
					c4.3-6.8,6.4-13.8,7-16.2c0,0,0,0,0,0C97.1,97.3,97.1,97.2,97.2,97.1z"/>
				<path style="fill:#337E4F;" d="M93.9,70.9c1.6-5.6,2.5-8.9,2.6-11.4c0.1,2.2,0.5,12.2-1.5,19.3c-2.3,8-3.8,15.7-0.9,24.9h0
					c-1.5,2.5-2.7,3.9-4.8,6.6c0,0,0,0,0-0.1c-0.1-0.2-0.4-0.8-1-1.7c-0.9-1.8-2-5-2-9.3C86.2,92.3,92.2,76.9,93.9,70.9z"/>
				<path style="fill:#299951;" d="M97,97.5c-0.6,2.4-2.7,9.4-7,16.2c-5.3,8.3-1.1,25.7,3.6,29.4h-7.4c0,0-2.5-2-4.5-5.5
					c-1.7-2.9-3-6.8-2.1-11.4c0.1-0.4,0.2-0.8,0.3-1.3c0.5-1.9,1.4-3.8,2.8-5.9c2.9-4.2,4.9-6.8,6.4-8.7c2.1-2.7,3.3-4,4.8-6.6
					C94.9,102.2,95.8,100.3,97,97.5z"/>
				<path style="fill:#388A56;" d="M81.7,137.5c-29.4,1.8-40.3-18.3-41.6-20.9c1.7,1.6,3.4,2.4,6.6,4.1c2.9,1.4,8.1,2.3,13.2,2.5
					c1,0,2.1,0.1,3.1,0.1c2.5,0,5.2,0.1,7.7,0.5c3.5,0.4,6.7,1.2,8.9,2.4C78.7,130.7,80,134.6,81.7,137.5z"/>
				<path style="fill:#3F9C61;" d="M54.6,87.3c4.4,3.5,16.2,9.4,23.8,12.7c5.2,2.3,8.3,6.2,9.8,8.4c0.5,1,0.8,1.5,1,1.7
					c0,0,0,0.1,0,0.1c-1.5,1.9-3.5,4.5-6.4,8.7c-1.4,2-2.3,4-2.8,5.9h0c-1.4-7.8-7-18.8-10.8-23.3C65.7,97.4,56.4,88.9,54.6,87.3z"
					/>
				<path style="fill:#388A56;" d="M69.2,101.5c3.8,4.5,9.4,15.5,10.8,23.3h0c-0.1,0.4-0.2,0.9-0.3,1.3c-2.2-1.2-5.4-1.9-8.9-2.4v0
					c-1.8-1.7-4.6-9.3-5.8-16.1c-1.1-6.3-9.3-18.6-10.5-20.3c0,0,0-0.1,0-0.1c0,0,0,0,0,0c0,0,0.1,0.1,0.1,0.1c0,0,0,0,0,0
					C56.4,88.9,65.7,97.4,69.2,101.5z"/>
				<path style="fill:#337E4F;" d="M54.5,87.3c1.2,1.7,9.4,13.9,10.5,20.3c1.1,6.8,3.9,14.5,5.8,16.1v0c-2.5-0.3-5.2-0.5-7.7-0.5
					c-1,0-2,0-3.1-0.1v0c-3.9-5.2-0.4-16.2-0.4-21.4C59.6,97,55.1,88.3,54.5,87.3z"/>
				<path style="fill:#337E4F;" d="M42.4,125c-1.7-4.3-2.6-8.6-2.6-8.6c0.1,0.1,0.2,0.2,0.2,0.2c1.3,2.6,12.2,22.7,41.6,20.9
					c2,3.5,4.5,5.5,4.5,5.5c-14.6,3.4-23.2-0.9-30.1-3.4S44.1,129.3,42.4,125z"/>
			</g>
			<g>
			</g>
		</g>
	</g>
	<g>
		<g id="XMLID_9_">
			<g>
				<path style="fill:#2C7523;" d="M201.4,149.6c-1.3-2.7-5-8.6-12-8.9c-5.2-0.2-8.7,1.4-10.8,2.8c0,0,0,0,0,0c-0.8,0-1.3,0-1.3,0
					l3.3-4c0,0,6-3,12.1-0.1c6.1,2.9,9.2,8.1,9.6,11.8C202.3,151,202,150.4,201.4,149.6z"/>
				<path style="fill:#26661E;" d="M189.4,140.6c7,0.3,10.7,6.2,12,8.9c-1.3-2-4.3-5.5-9.1-6.3c-4.2-0.7-6.7-0.5-8.2,0.2
					c-0.4,0-3.6-0.1-5.5-0.1C180.7,142,184.2,140.4,189.4,140.6z"/>
			</g>
			<g>
			</g>
		</g>
	</g>
	<g id="XMLID_7_">
		<g>
			<path style="fill:#4FA183;" d="M180.8,153.5c0.5-1.3,5.6-14.9,18.3-15.5c8.4-0.3,13.8,2.6,16.6,4.8c-2.2-0.1-5.9-0.1-7.3,0.5
				c-2.1-1.8-5.9-2.4-13.3-1.1C186.2,143.6,181.7,151.6,180.8,153.5z"/>
			<path style="fill:#52BFA0;" d="M194.5,136.1c8.9-4.5,17.6,0.2,17.6,0.2l5.3,6.7c0,0-0.7,0-1.7-0.1c-2.9-2.2-8.2-5.2-16.6-4.8
				c-12.7,0.5-17.9,14.2-18.3,15.5c0,0,0,0,0,0.1c-0.1,0.2-0.2,0.3-0.2,0.3C181.1,148.3,185.6,140.5,194.5,136.1z"/>
		</g>
		<g>
		</g>
	</g>
</g>
</svg>
