<?xml version="1.0" encoding="utf-8"?>
<!-- Generator: Adobe Illustrator 22.1.0, SVG Export Plug-In . SVG Version: 6.00 Build 0)  -->
<svg version="1.1" id="Layer_1" xmlns="http://www.w3.org/2000/svg" xmlns:xlink="http://www.w3.org/1999/xlink" x="0px" y="0px"
	 viewBox="0 0 326 218" style="enable-background:new 0 0 326 218;" xml:space="preserve">
<g>
	<g>
		<g id="XMLID_6_">
			<g>
				<path style="fill:#1E8A58;" d="M97,132.6c0.3-0.2,4.5-3.2,11.8-4.2c7.5-1.1,9.7,0,18.1,7.1h5.4c-0.5-0.7-2-2.7-3.9-5l-2.9-3
					c0,0,0,0,0,0c-0.4-0.2-8.2-4.4-15.5-3.3C102.3,125.2,99.1,128.4,97,132.6z"/>
				<path style="fill:#4FA183;" d="M105.1,56.2c1.6,2.7,6.4,11.2,13.4,26.6c0.7,1.6,1.4,3.1,1.9,4.5c2,0.9,4.1,1.9,6.2,3.1
					C119,72,107.9,59.2,105.1,56.2z"/>
				<path style="fill:#21B56F;" d="M79,110.2c3.2-0.5,33.3-4.4,56.7,25.6c0,0,1.7-1.1,3-3.7c-3.4-3.7-8.9-9-14.2-11.8v0
					c-0.2-0.1-0.4-0.2-0.6-0.3c-8.6-4.2-19.4-9.5-30.1-10.6C84.6,108.4,80.1,109.8,79,110.2z"/>
				<path style="fill:#3CB085;" d="M103.4,101.9c0,0,16.4,8.1,21.1,18.4v0c5.3,2.8,10.8,8.2,14.2,11.8c0.4-0.9,0.7-1.9,1-3.1
					c0,0-1.3-4.4-5.9-9.7c-0.7-0.8-1.5-1.7-2.4-2.5c-1.3-1.3-2.7-2.7-4.2-4C121.5,107.5,114.5,102.7,103.4,101.9z"/>
				<path style="fill:#56C993;" d="M134.4,95.6c-5.5-18.7-29.2-39.7-29.9-40.3c0,0.1,0.2,0.4,0.5,0.9c0,0,0,0,0,0
					c2.8,3.1,13.9,15.8,21.6,34.2C129.3,91.9,131.9,93.6,134.4,95.6z"/>
				<path style="fill:#52BFA0;" d="M122.3,92.1c-9-6.3-17.4-9.8-18.7-10.4c0,0,0,0,0,0c-0.1,0-0.1,0-0.2,0
					c0.5,0.3,11.1,6.4,20.5,15.2C123.5,95.4,122.9,93.8,122.3,92.1z"/>
				<path style="fill:#86DBBD;" d="M120.4,87.3c-8.3-3.7-15.5-5.3-16.8-5.5c1.3,0.5,9.7,4,18.7,10.4C121.7,90.6,121.1,89,120.4,87.3
					z"/>
				<path style="fill:#86DBBD;" d="M120.4,87.3c0.7,1.7,1.3,3.3,1.9,4.8c2.3,1.7,4.7,3.5,7,5.6c-0.8-2.5-1.7-4.9-2.7-7.3
					C124.5,89.2,122.4,88.2,120.4,87.3z"/>
				<path style="fill:#52BFA0;" d="M122.3,92.1c0.6,1.7,1.2,3.3,1.6,4.8c2.7,2.5,5.2,5.2,7.5,8c-0.6-2.5-1.3-4.9-2.1-7.3
					C127,95.6,124.6,93.8,122.3,92.1z"/>
				<path style="fill:#1E8A58;" d="M125.4,127.5l2.9,3C127.5,129.6,126.5,128.5,125.4,127.5z"/>
				<path style="fill:#4FA183;" d="M123.9,97c3.2,10.2,3.2,15.7,3.2,15.7v0c1.5,1.3,2.9,2.7,4.2,4c0.9,0.9,1.7,1.7,2.4,2.5
					c-0.4-5-1.2-9.8-2.3-14.3C129.2,102.1,126.6,99.4,123.9,97z"/>
				<path style="fill:#86DBBD;" d="M134.4,95.6L134.4,95.6c-2.5-2-5.1-3.7-7.8-5.2c1,2.3,1.9,4.8,2.7,7.3
					c10.2,9,18.8,21.8,15.8,38.1h4.6l1-4.4c0.3-2.3,0.4-5.3-0.3-9c-0.3-1.6-0.7-3.2-1.2-5c-0.6-1.9-1.4-3.9-2.4-6c0,0,0,0,0,0
					c-1-2-2.2-4.1-3.6-6.3C140.8,101.4,137.8,98.3,134.4,95.6z"/>
				<path style="fill:#21B56F;" d="M128.3,130.5c2,2.2,3.4,4.2,3.9,5h0.8L128.3,130.5z"/>
				<path style="fill:#52BFA0;" d="M129.3,97.7c0.8,2.3,1.5,4.8,2.1,7.3c2.2,2.8,4,5.6,5.4,8.6c3.1,6.9,3.5,11.9,2.8,15.4
					c-0.2,1.2-0.6,2.3-1,3.1c2,2.2,3.3,3.7,3.3,3.7h3.2C148.2,119.5,139.5,106.7,129.3,97.7z"/>
				<path style="fill:#21B56F;" d="M130.3,29.8c0,4.2,3.2,26.5,6.5,42.4c3.2,15.7,9.9,38.5,10.1,39.2c0,0,0,0,0,0
					c1,2.1,1.8,4.1,2.4,6h0c0,0,1.8-7.8,3.8-16.4c0,0,0,0,0,0c-0.2-0.5-6.6-19.4-10.9-30.9C137.9,58.4,130.3,29.8,130.3,29.8z"/>
				<path style="fill:#1DA163;" d="M99.1,113.5c8.6,3.2,18.3,7.4,23.7,11.7c0.9,0.7,1.8,1.5,2.6,2.3c0,0,0,0,0,0c1.1,1,2,2,2.9,3
					l4.7,5h-0.8c0.1,0.2,0.2,0.3,0.2,0.3h3.2c-23.5-29.9-53.6-26.1-56.7-25.6c0,0,0,0,0,0c-0.2,0.1-0.3,0.1-0.3,0.1
					S90.5,110.4,99.1,113.5z"/>
				<path style="fill:#56C993;" d="M131.4,104.9c1.1,4.6,1.9,9.3,2.3,14.3c4.5,5.3,5.9,9.7,5.9,9.7c0.6-3.5,0.2-8.5-2.8-15.4
					C135.5,110.6,133.6,107.7,131.4,104.9z"/>
				<path style="fill:#21B56F;" d="M135.7,135.8h6.2c0,0-1.3-1.6-3.3-3.7C137.4,134.7,135.7,135.8,135.7,135.8z"/>
				<path style="fill:#86DBBD;" d="M150.7,131.4l-1,4.4C149.7,135.8,150.4,134.2,150.7,131.4z"/>
				<path style="fill:#3CB085;" d="M188.4,122c7.5,0,18.3,6.4,18.3,6.4s-6.5-7.4-17.2-9.5c-8.7-1.7-16.8,0.1-22.9,1.9v0
					c-1.4,0.4-2.7,0.9-4,1.3c-1.3,0.4-2.6,1.1-3.8,1.9c0,0-0.1,0-0.1,0.1c-4.6,2.9-8,7.5-8,7.5c-0.4,2.8-1,4.4-1,4.4h9.7
					c0,0,0-0.1,0.1-0.3c0.6-1,2.8-4.9,6.4-7.8c0,0,0,0,0,0c0.7-0.5,1.4-1,2.1-1.5C173.4,123.1,180.9,122,188.4,122z"/>
				<path style="fill:#1E8A58;" d="M150.4,122.4c0.6,3.7,0.6,6.8,0.3,9c0,0,3.4-4.5,8-7.5c0,0,0,0,0.1-0.1c0.7-0.5,3.9-2.8,8.1-5.7
					c0.5-2.8,1.3-5.8,2.5-8.9c-4.4,2.3-7.9,4.5-10.6,6.4c-2,1.4-3.6,2.6-4.9,3.6c0,0,0,0,0,0C151.4,121.2,150.4,122.4,150.4,122.4z"
					/>
				<path style="fill:#52BFA0;" d="M161.3,104.1c-1.5,7-2.6,11.5-2.6,11.5c2.7-1.9,6.2-4,10.6-6.4c3.6-9.9,9.9-20.8,13.7-27.5
					c5.2-9.2,12.5-18.5,12.9-19.1c-4.3,3.2-17.2,16.9-21.5,22.2C170.1,90.2,161.3,104.1,161.3,104.1z"/>
				<path style="fill:#52BFA0;" d="M158.8,123.9c1.2-0.8,2.5-1.4,3.8-1.9c1.2-0.4,2.5-0.8,4-1.3v0l0-0.1c0.1-0.8,0.2-1.6,0.3-2.5
					C162.7,121,159.5,123.4,158.8,123.9z"/>
				<path style="fill:#3CB085;" d="M165.4,22.7c0.8,11-7.2,51.3-8.1,58c-0.5,3.6-2.4,12.3-4.2,20.3c0,0,0,0,0,0
					c-1.9,8.6-3.8,16.4-3.8,16.4h0c0.6,1.8,0.9,3.4,1.2,5c0,0,1-1.2,3.4-3.1c0,0,0,0,0,0c0.1-0.4,4.9-14.2,10-50.2
					C167.8,41.5,166.3,27.7,165.4,22.7z"/>
				<path style="fill:#429C72;" d="M168,55.2c0.9-23-2-31.9-2.9-34.3c0.1,0.4,0.2,1,0.3,1.8c0,0,0,0,0,0c1,5.1,2.4,18.8-1.5,46.4
					c-5.1,36-9.9,49.8-10,50.2c1.2-1,2.8-2.2,4.9-3.6c0,0,1.1-4.5,2.6-11.5C163.8,92.1,167.3,72.6,168,55.2z"/>
				<path style="fill:#52BFA0;" d="M192.9,142.6c-0.5-4.7-4.3-11.2-11.9-15c-7.4-3.7-14.8,0-15.1,0.1c0,0,0,0,0,0
					c-3.5,2.9-5.8,6.8-6.4,7.8l0,0h1.2c0,0,5-6.6,16.4-6.1C188.2,129.9,192.6,141.8,192.9,142.6z"/>
				<path style="fill:#4FA183;" d="M180.5,132.8c8.3,1.4,12.1,9.3,12.4,9.8c-0.3-0.7-4.6-12.6-15.7-13.1
					c-11.4-0.5-16.4,6.1-16.4,6.1h6.9C169.1,132.8,171.9,131.4,180.5,132.8z"/>
				<path style="fill:#1E8A58;" d="M186.3,106.1c7.5-3.2,19.4-5.3,19.4-5.3c-5.4-1.1-15.1-2.1-32.3,6.4c-1.4,0.7-2.8,1.4-4.1,2.1
					c-1.1,3.1-2,6.1-2.5,8.9C173.3,113.7,181.9,108,186.3,106.1z"/>
			</g>
			<g>
			</g>
		</g>
	</g>
	<g>
		<g>
			<g id="XMLID_10_">
				<g>
					<path style="fill:#76C316;" d="M120.8,119.2c1.9,2.1,0.9,8.4-3.7,11.2s-13.9,7.7-16.7,9.8l-3.8-0.2
						c8.4-7.7,19.9-23.1,20.3-23.7l0,0c0,0,0,0,0,0C118.8,116.9,120,118.3,120.8,119.2z"/>
					<path style="fill:#3EB800;" d="M102.7,125.9c4.4-4.2,13.6-9.2,14.1-9.6c-0.4,0.6-11.9,15.9-20.3,23.7l-7.4-0.5H91
						C91,139.5,98.2,130.2,102.7,125.9z"/>
					<path style="fill:#56B626;" d="M109.6,97.5c0,9.8-7.1,23.4-7.1,23.4c-3.2,2.5-5.9,5.7-8,8.8c0.3-0.9,6-17.4,3.7-37.6
						c-2.5-20.7-11.4-26.6-11.4-26.6l0-0.3C104.5,65.8,109.6,88.1,109.6,97.5z"/>
					<path style="fill:#72C82F;" d="M89.2,139.5c0,0,1.8-4.6,5.4-9.8c0,0,0,0,0,0c2.1-3,4.8-6.2,8-8.8c0.8-0.6,1.6-1.2,2.5-1.7
						c5.7-3.5,9.4-3.8,11.9-2.9c0,0,0,0,0,0l0,0c-0.6,0.3-9.8,5.4-14.1,9.6c-4.5,4.3-11.7,13.6-11.7,13.6H89.2z"/>
					<path style="fill:#76C316;" d="M82.2,65.6c0.7-0.1,1.5-0.2,2.3-0.3c0.8-0.1,1.5-0.1,2.3,0l0,0.3c0,0,8.9,5.8,11.4,26.6
						c2.4,20.2-3.3,36.7-3.7,37.6c0,0,0,0,0,0c-3.5,5.1-5.4,9.8-5.4,9.8h-3.7c2.9-10.8,0-29.4,0-40.9C85.5,87.6,82.4,67,82.2,65.6
						C82.2,65.6,82.2,65.6,82.2,65.6z"/>
					<path style="fill:#56B626;" d="M85.5,98.6c0,11.4,2.9,30.1,0,40.9h-5.6c-3.5-5.2-8-18.9-10.4-28.2c-2.5-9.3-1.2-22.6,0.8-28.5
						c2-5.7,11.3-16.5,11.9-17.3C82.4,67,85.5,87.6,85.5,98.6z"/>
					<path style="fill:#76C316;" d="M82.2,65.6C82.2,65.6,82.2,65.6,82.2,65.6C82.2,65.6,82.2,65.6,82.2,65.6
						C82.2,65.6,82.2,65.6,82.2,65.6z"/>
					<path style="fill:#85C56A;" d="M82.2,65.6C82.2,65.6,82.2,65.6,82.2,65.6c-0.6,0.8-9.9,11.6-11.9,17.3
						c-2.1,5.9-3.3,19.2-0.8,28.5c2.5,9.3,6.9,22.9,10.4,28.2h-3.7c-13.9-15.4-17.7-35-16.7-42.7C60.3,89.4,64.6,68.5,82.2,65.6z"/>
				</g>
				<g>
				</g>
			</g>
		</g>
		<path style="fill:#FA94C4;" d="M77.6,59.4c0,0,0,7.6,7.8,7.6c5.6,0,6.7-5.1,6.7-7.6c0,0-3.4,0-5,2.1L84.8,59l-2.2,2.5
			C82.6,61.5,82,60.3,77.6,59.4z"/>
	</g>
	<g id="XMLID_12_">
		<g>
			<path style="fill:#C47855;" d="M258.8,135.2c-0.7,6.5-1,12.8-1.3,19.2c-44.3-2.6-88.9-1.2-133.5-0.9c-19.2,0.2-38.5,0.1-57.7-0.6
				c0-5.8,0-11.5,0.1-17v-1.5C130.6,134.1,194.7,134.4,258.8,135.2z"/>
			<path style="fill:#4F4143;" d="M257.6,154.3c-0.1,1.5-0.1,2.9-0.1,4.4c-44.4-2.2-88.9-3.2-133.3-2.7l0-2.6
				C168.7,153.1,213.2,151.7,257.6,154.3z"/>
			<path style="fill:#C47855;" d="M257.4,158.7c-0.1,4.8-0.2,9.6-0.3,14.5c-52.4-1.2-100.2-1.5-160.7,0c-10,0.2-20,1.2-30,1.5
				c0-5.7-0.1-11.5-0.1-17.3c19.2-0.7,38.4-1.2,57.7-1.4C168.6,155.6,213.1,156.5,257.4,158.7z"/>
			<path style="fill:#C47855;" d="M257.1,177.1c-0.1,4.9-0.2,9.9-0.3,15.1c-0.1,1.2-1.1,2.2-2.3,2.2c-24,0-55.6-1.8-77-2
				c-40.8-0.3-65.2,1.9-108.7-0.8c-1.2-0.1-2.2-1-2.2-2.3c-0.1-4.1-0.1-8.2-0.1-12.4c32.2-1,67.4-1.2,99-0.4
				C198.9,177.6,226.7,176.6,257.1,177.1z"/>
			<path style="fill:#4F4143;" d="M124.1,153.4l0,2.6c-19.2,0.2-38.5,0.6-57.7,1.4c0-1.5,0-3,0-4.5
				C85.6,153.5,104.9,153.6,124.1,153.4z"/>
			<path style="fill:#4F4143;" d="M66.5,174.7c10-0.3,20-1.2,30-1.5c60.5-1.5,108.3-1.2,160.7,0c0,1.3,0,2.6,0,3.9
				c-30.4-0.5-58.2,0.4-91.6-0.4c-31.5-0.8-66.8-0.6-99,0.4C66.5,176.3,66.5,175.5,66.5,174.7z"/>
		</g>
		<g>
		</g>
	</g>
	<g>
		<g id="XMLID_11_">
			<g>
				<path style="fill:#239958;" d="M260.3,124.8c-2.6,7.6-10.1,13.5-16.3,13.5c-6.3,0-8.4-2.1-8.4-2.1c2.6,0,4.9-0.6,7.1-2v0
					C253.4,134.4,258.9,126.9,260.3,124.8z"/>
				<path style="fill:#4EAD8E;" d="M244,122c9.5-14.2,10.3-23.8,10.4-25.8c0.8,1.3,4.5,7.8,3.8,15.4c-0.8,8.6-7.5,11.7-7.5,11.7
					c1.4-4.7,1.4-9.6,1.3-11.2c0,0,0,0,0,0c0-0.3,0-0.5,0-0.5C251.3,115.7,247.5,119.5,244,122z"/>
				<path style="fill:#3A9978;" d="M251.9,112.1c0.1,1.6,0.1,6.5-1.3,11.2c-0.6,2-1.4,3.9-2.6,5.5c-0.2,0.2-0.4,0.5-0.6,0.7
					c-1.6,2-3.1,3.5-4.7,4.6c-2.2,1.4-4.4,2.1-7.1,2c-0.8,0-1.7-0.1-2.6-0.2c1.5-1.4,2.5-3.1,3.1-4.4
					C248,127.6,251.3,114.6,251.9,112.1z"/>
				<path style="fill:#37B45D;" d="M242.6,134.2c1.6-1.1,3.1-2.6,4.7-4.6c8.6,0.7,12.8-5.1,13.1-5.4c-0.1,0.2-0.1,0.4-0.2,0.6
					C258.9,126.9,253.4,134.4,242.6,134.2L242.6,134.2z"/>
				<path style="fill:#239958;" d="M237.3,90.3c1,2.9,4.1,8.7,5.3,13.9c0.4,1.5,0.6,2.9,0.6,4.2c0,7-4.5,8.6-4.5,8.6
					c-0.1-0.3-0.1-0.5-0.2-0.8c-0.7-2.3-1.7-4.2-2.8-5.6c0.4-0.9,1.5-3.2,2.3-6.3C238.9,101.5,237.8,93.6,237.3,90.3z"/>
				<path style="fill:#58C4A1;" d="M250.3,100.7c3.1-2.4,3.9-4.7,3.9-4.7s0.1,0.1,0.2,0.3c0,2-0.8,11.7-10.4,25.8
					c-1.9,1.4-3.6,2.4-4.7,2.9c-0.7,0.3-1.4,0.6-2.3,0.9v0c0,0,2.8-3.6,1.8-8.7c0,0,4.5-1.6,4.5-8.6c0-1.3-0.2-2.8-0.6-4.2h0
					C244.4,103.2,247.1,103,250.3,100.7z"/>
				<path style="fill:#249647;" d="M233,107.9c-0.1,3.9-4,8.5-7.8,11.6c-0.6,0.5-1.1,0.9-1.6,1.4c0,0,1.6-6.9,0.8-13.2
					c-0.1-0.6-0.2-1.3-0.5-2.1v0c0.9-3.1,3.4-4.5,6.4-7.1c0,0,0,0,0,0c0.6-0.5,1.2-1.1,1.9-1.7c3.9-3.9,4.7-7.8,4.7-7.8
					c0,0.3,0.1,0.8,0.3,1.4c0.5,3.3,1.6,11.1,0.8,14.1c-0.8,3-1.9,5.4-2.3,6.3c-1.4-2-2.7-3-2.7-3C233,107.8,233,107.8,233,107.9z"
					/>
				<path style="fill:#249647;" d="M236.9,128.9c0,0-0.2,1.2-0.9,2.7c-0.6,1.3-1.6,3-3.1,4.4c-1.5,1.4-3.5,2.6-6.2,3.1
					c-0.3,0.1-0.6,0.1-0.9,0.1c-3.3-1.5-3.7-8.3-3.7-8.7C223,130.8,229.6,133.3,236.9,128.9z"/>
				<path style="fill:#37B45D;" d="M228.5,126.8c8.1-9.1,5.3-17.3,4.6-18.9c0-0.1,0-0.1,0-0.2c0,0,1.3,1.1,2.7,3
					c1,1.4,2.1,3.3,2.8,5.6c0.1,0.3,0.1,0.5,0.2,0.8c1.1,5.1-1.8,8.7-1.8,8.7v0C234.6,126.5,231.6,126.9,228.5,126.8z"/>
				<path style="fill:#69C9A8;" d="M227.5,85.8c4.6,6.9,2.9,12.4,2.8,12.7c0,0,0,0,0,0c-3.1,2.7-5.5,4.1-6.4,7.1
					c-0.7-2.3-2-5-3.4-7.6c1.8-1.9,1.6-19.9,1.6-22.1C222.8,78.7,223,79,227.5,85.8z"/>
				<path style="fill:#31A153;" d="M224.4,107.7c0.8,6.3-0.8,13.2-0.8,13.2c-1.8,1.8-3,3.7-3.6,4.8c0,0-1.1-4.9-3-9
					c0.4-4.5-0.4-13.2-1.1-16.7c-0.6-2.9-0.9-8.9-1-10.6c0.1-0.3,0.1-0.4,0.1-0.4s2.9,4.3,5.6,9.1c1.4,2.6,2.7,5.3,3.4,7.6v0
					C224.2,106.4,224.3,107.1,224.4,107.7z"/>
				<path style="fill:#3EC968;" d="M220,125.6c0.6-1.1,1.7-2.9,3.6-4.8c0.5-0.5,1-0.9,1.6-1.4c3.9-3.1,7.7-7.7,7.8-11.6
					c0.7,1.6,3.5,9.8-4.6,18.9c-1.4,0-2.7-0.1-4.1-0.3c-2.2-0.3-3.7-0.2-4.8,0C219.6,126.5,219.7,126.2,220,125.6z"/>
				<path style="fill:#34A880;" d="M244,122c3.5-2.6,7.3-6.3,7.9-10.4c0,0,0,0.2,0,0.5c0,0,0,0,0,0c-0.5,2.4-3.9,15.5-15.8,19.5
					c0.7-1.6,0.9-2.7,0.9-2.7c-7.3,4.4-14,1.9-14.8,1.6c-0.1,0-0.1,0-0.1,0c-0.5,0.5-1,1-1.5,1.3c0,0-1-2-3.2-4.2c0,0,0.6-0.7,2.2-1
					c1.1-0.2,2.6-0.3,4.8,0c1.3,0.2,2.7,0.3,4.1,0.3c3.1,0,6.1-0.3,8.5-1c0.9-0.3,1.7-0.5,2.3-0.9C240.4,124.4,242.1,123.4,244,122z
					"/>
				<path style="fill:#37B45D;" d="M214.9,89.3c0.1,1.7,0.4,7.7,1,10.6c0.7,3.5,1.6,12.2,1.1,16.7c-1-2.2-2.2-4.2-3.6-5
					c-1-0.6-2.3-1.2-3.8-1.9l0,0c0,0-0.6-2.7,0.3-6.1c0.2-0.9,0.6-1.9,1.1-3c0.9-1.8,1.7-4,2.4-6C214.2,92.3,214.7,90.2,214.9,89.3z
					"/>
				<path style="fill:#4EAD8E;" d="M216.6,81.8c3.9-2.3,5.5-6.3,5.5-6.3c0,0.1,0.1,0.2,0.1,0.4c0,2.2,0.1,20.2-1.6,22.1
					c-2.6-4.8-5.6-9.1-5.6-9.1s0,0.2-0.1,0.4c-0.2,0.9-0.7,2.9-1.5,5.3c-0.8-0.9-2.3-1.1-4-1.4v0C208.6,87.4,212.6,84.2,216.6,81.8z
					"/>
				<path style="fill:#3EC968;" d="M222.1,130.5c0,0.4,0.4,7.2,3.7,8.7c-5.6,0.7-9.4-2-11.2-3.6h0c-0.8-0.7-1.1-1.2-1.1-1.2
					s2.6,0.5,6.1-1.8c0.3-0.2,0.7-0.5,1-0.8C221,131.4,221.5,131,222.1,130.5C222.1,130.4,222.1,130.5,222.1,130.5z"/>
				<path style="fill:#3EC968;" d="M209.4,93.2c1.6,0.2,3.2,0.5,4,1.4c-0.6,2-1.4,4.2-2.4,6c-0.5,1-0.9,2-1.1,3c0,0-4.1-2.2-6.9-5.7
					c-2.5-3.1-2.2-10.2-2.1-11.8c0.4,1.1,1.6,4.4,3.8,5.9C206,92.8,207.8,93,209.4,93.2z"/>
				<path style="fill:#31A153;" d="M201.8,132.9c2.9,1,5.9,1.8,8.6,2.2c0,0-4.8,7.1-13.5,5.5c-8.6-1.6-15.7-6.2-18.8-10.2
					C178.7,130.7,190.4,136.5,201.8,132.9z"/>
				<path style="fill:#249647;" d="M209.6,109.7c-2.2-1-4.8-2.2-7.1-3.9l0.1-0.1c0,0-3.3-5.1-2.5-9.8c0.8-4.7,0.8-10.2,0.8-10.2
					s0,0.1,0.1,0.3c-0.1,1.6-0.4,8.7,2.1,11.8c2.8,3.5,6.9,5.7,6.9,5.7C209.1,107,209.6,109.7,209.6,109.7L209.6,109.7z"/>
				<path style="fill:#44B38C;" d="M217,116.6c1.9,4.1,3,9,3,9c-0.3,0.6-0.5,0.9-0.5,0.9c-1.7,0.4-2.2,1-2.2,1
					c-1.4-1.5-3.2-3-5.6-4.2c-0.3-2.6-5.9-7.8-9.1-11.6c-3-3.7-5.1-11.3-5.2-11.8c1.1,2.5,2.9,4.3,4.9,5.8c2.3,1.7,4.9,2.9,7.1,3.9
					c1.5,0.7,2.8,1.3,3.8,1.9C214.8,112.4,216,114.4,217,116.6z"/>
				<path style="fill:#3A9978;" d="M197.6,100c0.1,0.5,2.2,8.1,5.2,11.8c3.1,3.8,8.8,9,9.1,11.6c-1.2-0.6-2.4-1.1-3.9-1.5
					c-2-0.5-4.3-1.1-6.7-1.6c-2.8-3.5-3.8-8.4-4-12.5C197,103.4,197.5,100,197.6,100C197.5,100,197.5,100,197.6,100z"/>
				<path style="fill:#5CC3A1;" d="M197.3,107.7c0.2,4.1,1.2,9,4,12.5c-1.7-0.4-3.4-0.8-5-1.3v0c-1-2.9-5.3-10.2-7.4-12.7
					c-2.1-2.4-3.1-10.4-3.1-10.4S189.9,106.1,197.3,107.7z"/>
				<path style="fill:#4EAD8E;" d="M185.8,95.8c0,0,1,8,3.1,10.4c2.1,2.4,6.4,9.7,7.4,12.7c-3.6-1-7-2.3-9.8-4.1c0,0,0,0,0,0
					C186.4,114.4,183.5,107.3,185.8,95.8z"/>
				<path style="fill:#37B45D;" d="M217.4,127.6c2.1,2.2,3.2,4.2,3.2,4.2c-0.4,0.3-0.7,0.5-1,0.8l-1-0.9
					c-29.9-5.2-36.3-21.1-36.9-22.5c0.9,2.3,2.6,4.2,4.8,5.7c0,0,0,0,0,0c2.7,1.8,6.2,3.1,9.8,4.1v0c1.7,0.5,3.4,0.9,5,1.3
					c2.4,0.6,4.7,1.1,6.7,1.6c1.4,0.4,2.7,0.9,3.9,1.5C214.1,124.6,216,126.1,217.4,127.6z"/>
				<path style="fill:#239958;" d="M214.6,135.6c-1.3-0.1-2.7-0.2-4.2-0.5c-2.7-0.5-5.7-1.2-8.6-2.2c-3.1-1.1-6.2-2.4-8.8-4
					c-0.8-0.5-1.6-1-2.3-1.6c-6.1-4.5-8.9-17.5-9.1-18.3h0c0,0,0,0,0,0.1c0.5,1.5,7,17.3,36.9,22.5l1,0.9c-3.5,2.3-6.1,1.8-6.1,1.8
					S213.8,134.9,214.6,135.6z"/>
				<path style="fill:#3ABF63;" d="M201.8,132.9c-11.4,3.7-23.1-2.1-23.6-2.4c0,0,0,0,0,0v0c0,0,7.8,2.3,14.9-1.6l0,0
					C195.6,130.4,198.7,131.8,201.8,132.9z"/>
			</g>
			<g>
			</g>
		</g>
	</g>
</g>
</svg>
