<svg viewBox="0 0 308 160" fill="none" xmlns="http://www.w3.org/2000/svg">
<path d="M264.4 155C264.5 155.8 263.9 156.4 263.2 156.4L185 156.5C174.6 156.5 164.2 156.5 153.9 156.9C124.3 157.9 94.6 161.6 65.2 158.5C64.6 158.4 64.1 157.9 64.1 157.2C64.1 152.8 64.1 146 64 138.4C83.2 140.9 102.6 140.3 122 139.7C132.8 139.4 143.6 139 154.4 138.7C172 138.1 187.9 137.7 204.7 136.9C209.4 136.7 214.1 136.5 218.7 136.4C223.6 136.3 228.6 136.5 233.5 137.1C240.1 137.9 247.1 137.9 253.6 137.4C256.9 137.2 260.1 136.8 263.2 136.6C263.4 143.4 263.8 149.7 264.4 155Z" fill="#C47855"/>
<path d="M262.6 113.2C262.7 119.8 262.8 126.7 263 133.3C248.2 133.3 233.4 133.4 218.6 133.7C206.6 133.9 194.6 134.1 182.6 134.5C164.7 135 146.7 135.6 128.8 135.9C121.4 136 114 136.1 106.6 136.2C99.6 136.3 92.7 136.3 85.7 136.4C78.4 136.5 71.1 136.6 63.8 136C63.7 129.5 63.6 122.6 63.6 116.2C78.7 115.5 113.1 114.1 123.5 115.2C128.7 115.7 134.2 115.5 139.5 115.4C144.4 115.4 149 115.7 153.9 115.3C163.4 114.6 173 114.9 182.5 115C209.2 115.4 236 114.8 262.6 113.2Z" fill="#C47855"/>
<path d="M262.6 110.6C262.6 111.5 262.6 112.3 262.6 113.2C236 114.9 209.2 115.4 182.5 115C172.9 114.8 163.4 114.5 153.9 115.3C149 115.7 144.4 115.4 139.5 115.4C134.3 115.4 128.8 115.7 123.5 115.2C113.1 114.2 78.7 115.6 63.6 116.2C63.6 114.8 63.6 113.3 63.5 112C87.6 114.7 138.1 109.7 159 110.7C165.4 111 171.8 111.9 178.2 111.9C183 111.9 187.7 110.9 192.5 110.9C220.3 110.4 237.4 108.6 259.8 110.4C260.9 110.4 261.7 110.5 262.6 110.6Z" fill="#4F4143"/>
<path d="M262.5 95.1C262.5 99.8 262.5 105.1 262.6 110.5C261.7 110.4 260.9 110.3 260 110.3C237.6 108.5 220.5 110.3 192.7 110.8C187.9 110.9 183.1 111.8 178.4 111.8C172 111.8 165.6 110.9 159.2 110.6C138.2 109.6 87.7 114.6 63.7 111.9C63.6 105.5 63.6 99.9 63.6 96.3L63.7 95C100 96.4 104 95.4 135.6 95.5C147.9 95.6 194.3 97.1 206.6 96.5C224.9 95.6 244 94.6 262.5 95.1Z" fill="#C47855"/>
<path d="M274.5 47.5C296.5 41.5 307.5 43.5 307.5 43.5C307.5 43.5 294.5 47.5 284.5 54.5C274.5 61.5 264.8 72.9 264.8 72.9C258.4 74.1 252.2 75.7 246.5 77.5C236.4 80.9 227.9 87.1 222.3 91.9C222.4 91.5 225.6 79.4 231.5 70.5C232.1 69.7 232.7 68.8 233.4 67.9C241.2 62.3 252.5 53.5 274.5 47.5Z" fill="#027B2E"/>
<path d="M284.5 96.5C297.5 104.5 301.5 115.5 301.5 115.5C301.5 115.5 295.5 108.5 288.5 107.5C281.5 106.5 270 108 264 106H262.5V96.5H261.5C262.6 94.2 264.1 92.1 266 90.2C266.1 90.2 271.5 88.5 284.5 96.5Z" fill="#026F2C"/>
<path d="M264.8 72.9C278.8 70.4 293.5 69.8 304.5 72.5C304.5 72.5 278.3 77.7 266 90.2C264.1 92.1 262.5 94.2 261.5 96.5L217.2 96.7C218.4 95.5 220.1 93.8 222.3 91.9C227.8 87.1 236.4 80.9 246.5 77.5C252.2 75.6 258.4 74 264.8 72.9Z" fill="#015033"/>
<path d="M288.5 28.5C288.5 28.5 275.5 30.5 264.5 36.5C253.8 42.3 248.4 48.7 248.1 49C245 49.9 240.9 51.7 235.5 55.4C232.1 57.7 228.7 60.5 225.5 63.4C222.6 57.3 221.3 51.7 220.7 46.5C220.7 46.5 232.5 36.4 249.5 30.4C266.5 24.4 282.5 24.5 288.5 28.5Z" fill="#009F5B"/>
<path d="M248.2 49.1C252.5 47.9 254.6 48.6 254.6 48.6C251 49.5 240 59.4 233.5 68C232.8 68.9 232.2 69.8 231.6 70.6C225.7 79.4 222.5 91.6 222.4 92C220.2 93.9 218.4 95.6 217.3 96.8L207.4 96.9C208.9 96.7 210.3 96.6 211.7 96.6C211.7 96.6 209.5 92.9 203.8 90C207.1 84.4 211.5 78.5 216.5 72.9C219.4 69.6 222.5 66.5 225.7 63.6C229 60.6 232.4 57.9 235.7 55.6C240.9 51.8 245.1 49.9 248.2 49.1Z" fill="#025923"/>
<path d="M203.2 40.4C204.2 37.1 205.6 33.2 207.5 28.5C214.4 11.8 229.2 0.499998 229.6 0.0999985C229.4 0.599998 222.4 16.6 221.5 26.5C220.9 32.4 219.9 39.1 220.7 46.6C221.2 51.8 222.6 57.4 225.5 63.5C222.3 66.4 219.2 69.6 216.3 72.8C216.3 72.8 213.8 63.8 200.8 52.9C200.7 52.7 200.7 48.8 203.2 40.4Z" fill="#02702C"/>
<path d="M189.3 68.6C189.7 69.1 190 69.6 190.3 70.1C187.8 70.2 184.6 70.6 181.1 71.8C179 70.5 177.1 69.4 175.2 68.4C179.9 67.8 184.7 67.7 189.3 68.6Z" fill="#01462E"/>
<path d="M203.2 40.4C201 34.4 197.8 30.2 194.1 26.9C189.2 22.4 183.5 19.4 178.4 15.5C169.7 8.7 166.6 6.6 166.4 6.5C166.6 6.8 170.6 12.1 181.4 26.5C182.2 27.6 183 28.7 183.6 29.7C184.2 30.6 184.8 31.5 185.2 32.4C189.8 40.5 188.7 44.5 188.7 44.5C189.2 44.8 189.8 45.2 190.4 45.5C194.4 48 197.8 50.5 200.6 53C200.7 52.7 200.7 48.8 203.2 40.4Z" fill="#01462E"/>
<path d="M183.8 29.7C184.4 30.6 184.9 31.5 185.4 32.4C182.9 33.9 179.9 35.7 176.8 37.8C174.1 36.5 171.5 35.3 168.9 34.4C175.1 32.1 179.9 30.6 183.8 29.7Z" fill="#026F2C"/>
<path d="M169.5 55.5C169.5 55.5 165 57.8 159.1 61.8C158.5 61.7 158 61.6 157.5 61.5C154.4 61.1 150.4 61 146.7 61.1C150.1 59.8 153.5 58.8 156.5 58C162.4 56.3 167.3 55.5 169.5 55.5Z" fill="#025923"/>
<path d="M119.2 61.8C123.5 57 132.2 49.4 148.5 42.5C151.6 41.2 154.6 40 157.3 38.9C160.7 40.5 164.2 42.5 167.6 44.9C163.2 48.8 159.1 53.2 156.5 57.9C153.4 58.7 150.1 59.8 146.7 61C140.8 61.1 135.5 61.4 135.5 61.4C136.4 61.9 137.7 62.9 139.2 64.1C134.1 66.4 129.3 69.2 125.5 72.4C112.5 83.4 108 96.9 108 96.9V97.2H107.4C107.2 93.6 107.4 82.1 115.8 66.1C115.8 66.1 115.8 66.1 115.8 66C116.3 65.5 117.3 64 119.2 61.8Z" fill="#026F2C"/>
<path d="M163.2 86.1C158.6 91 155.3 95 153.7 97L128.9 97.1C129.7 94.9 132 89.7 138.5 81C141.2 79 144 77.3 146.5 76.4C147.9 75.9 149.5 75.3 151.2 74.7C155.5 78.7 159.8 82.9 163.2 86.1Z" fill="#01462E"/>
<path d="M203.6 90C206.9 84.4 211.3 78.5 216.3 72.9C216.3 72.9 213.8 63.9 200.8 53C197.9 50.6 194.5 48.1 190.6 45.5C190 45.1 189.5 44.8 188.9 44.5C184.7 41.9 180.7 39.7 176.9 37.8C174.2 36.5 171.6 35.3 169 34.4C159 30.6 150.1 29.6 142.3 31.3C140.7 31.6 139.2 32.1 137.6 32.6C137.6 32.6 138.7 32.7 140.5 33.1C144 33.9 150.3 35.5 157.4 38.9C160.8 40.5 164.3 42.5 167.7 44.9C170.4 46.8 173.1 49 175.6 51.5C180.8 56.7 185.4 62.8 189.4 68.6C189.8 69.1 190.1 69.6 190.4 70.2C194 75.6 196.9 80.7 198.9 84.6C199.8 86.2 200.5 87.7 201 88.8C197.6 87.5 193.1 86.5 187.5 86.5C180.3 86.5 173.7 87.8 167.3 90.2C162.8 91.9 158.4 94.2 154.2 97.1C153.8 97.4 153.4 97.6 153 97.9C148.7 100.9 144.6 104.5 140.5 108.5C128.8 120.2 122.8 144.4 122.5 145.5C122.9 144.6 129.2 130.2 151.5 118.5C165.2 111.3 178.9 104.9 190.7 100.9C196.8 98.8 202.4 97.4 207.2 96.8C208.7 96.6 210.1 96.5 211.5 96.5C211.5 96.5 209.3 92.8 203.6 90Z" fill="#00622A"/>
<path d="M198.8 84.6C192.8 79.6 186.7 75.3 181.1 71.8C179.1 70.5 177.1 69.4 175.2 68.4C168.7 64.9 163.1 62.7 159.1 61.8C158.5 61.7 158 61.6 157.5 61.5C154.4 61.1 150.4 61 146.7 61.1C140.8 61.2 135.5 61.5 135.5 61.5C136.4 62 137.7 63 139.2 64.2C141.5 66 144.3 68.5 147.3 71.2C148.6 72.4 149.9 73.6 151.2 74.8C155.5 78.8 159.8 82.9 163.1 86.2C164.8 87.8 166.2 89.2 167.3 90.2C173.6 87.8 180.3 86.5 187.5 86.5C193.1 86.5 197.5 87.5 201 88.8C200.4 87.7 199.7 86.2 198.8 84.6Z" fill="#009F5B"/>
<path d="M139.2 64.2C134.1 66.5 129.3 69.3 125.5 72.5C112.5 83.5 108 97 108 97V97.3L121.6 97.2H128.9C129.7 95 132 89.8 138.5 81.1C139.1 80.3 139.8 79.4 140.5 78.5C142.6 75.9 144.9 73.4 147.3 71.1C144.3 68.5 141.5 66 139.2 64.2Z" fill="#025923"/>
<path d="M118.7 61.2C118.9 61.4 119 61.6 119.2 61.9C117.3 64 116.3 65.6 115.9 66.2C116.7 64.5 117.6 62.9 118.7 61.2Z" fill="#009F5B"/>
<path d="M147.5 24.5C143.5 24.5 133.6 29.4 111 47.1C110.8 47.2 110.7 47.3 110.5 47.5C109 48.7 107.5 50 106.2 51.3C104.3 53.2 102.5 55.1 100.9 57.2C97.5 61.5 94.7 66.2 92.6 70.7C86.9 82.6 85.1 93.9 84.6 97.4L107.4 97.3C107.2 93.7 107.4 82.2 115.8 66.2C116.6 64.6 117.6 62.9 118.6 61.2C120.3 58.4 122.2 55.5 124.4 52.5C131.2 43.4 136.4 37.2 140.3 33C138.5 32.6 137.4 32.5 137.4 32.5C138.9 32 140.5 31.5 142.1 31.2C148.3 24.9 149.9 24.5 147.5 24.5Z" fill="#015033"/>
<path d="M102.5 9.5C96.9 22.3 96.6 34.4 97.6 43.3C98.6 51.8 100.9 57.2 100.9 57.2C102.5 55.2 104.2 53.2 106.2 51.3C107.6 50 109 48.7 110.5 47.5C110.7 47.4 110.8 47.3 111 47.1C103.6 29.3 102.5 9.5 102.5 9.5Z" fill="#009F5B"/>
<path d="M97.7 43.3C98.7 51.8 101 57.2 101 57.2C97.6 61.6 94.8 66.2 92.7 70.7C92.5 70.5 89.4 66.1 82.9 61.5C82.8 61.3 81.7 57.5 79.3 52.9C78 46.4 75.6 41.4 71.6 32.5C67.6 23.5 60.6 15.5 60.6 15.5C64.6 16.5 74.6 20.5 84.6 30.5C89 35 93.7 39.5 97.7 43.3Z" fill="#00622A"/>
<path d="M92.6 70.7C86.9 82.6 85.1 93.9 84.7 97.4H81.1V97C78.5 87.5 69.6 80.7 59.6 76.1C50.6 71.9 40.7 69.5 33.6 68.5C18.6 66.5 3.6 72.5 3.6 72.5C10.6 58.5 41.6 47.5 62.6 52.5C64.2 52.9 65.8 53.3 67.3 53.8C73.8 55.9 79 58.7 82.9 61.5C89.3 66.1 92.4 70.4 92.6 70.7Z" fill="#009F5B"/>
<path d="M81 97V97.4L62.2 97.5C56.4 94 35 93 24 97C13 101 0 120 0 120C3 105 15.5 88.5 29 83C39.3 78.8 59.2 76.7 59.2 76.7L59.5 76.1C69.5 80.7 78.4 87.5 81 97Z" fill="#026F2C"/>
<path d="M79.2 53C81.5 57.6 82.7 61.3 82.8 61.6C78.9 58.8 73.7 56 67.2 53.9C61.8 39.2 51.6 30.6 51.6 30.6C51.6 30.6 55.6 30.6 66.6 37.6C72.3 41.2 76.5 47.7 79.2 53Z" fill="#01462E"/>
</svg>
