<svg viewBox="0 0 243 153" fill="none" xmlns="http://www.w3.org/2000/svg">
<path d="M219.9 147.7C220 148.5 219.4 149.1 218.7 149.1L140.5 149.2C130.1 149.2 119.7 149.2 109.4 149.6C79.8 150.6 50.1 154.4 20.7 151.2C20 151.1 19.6 150.6 19.6 149.9C19.6 145.5 19.6 138.7 19.5 131.1C38.7 133.6 58.2 133 77.5 132.4C88.3 132.1 99.1 131.7 109.9 131.4C127.4 130.9 143.4 130.4 160.2 129.6C164.2 129.4 168.2 129.2 172.2 129.1C177.8 129 183.4 129.1 189 129.7C195.5 130.5 202.6 130.5 209.1 130C212.4 129.8 215.6 129.4 218.7 129.2C218.9 136.1 219.3 142.5 219.9 147.7Z" fill="#C47855"/>
<path d="M218.1 105.9C218.2 112.6 218.3 119.4 218.5 126C203 126 187.5 126.1 172 126.4C160.7 126.6 149.3 126.8 138 127.1C120.1 127.6 102.2 128.2 84.2 128.5C76.8 128.6 69.4 128.7 62.1 128.8C55.1 128.9 48.2 129 41.2 129C33.9 129.1 26.6 129.1 19.3 128.6C19.2 122.1 19.1 115.2 19.1 108.8C34.2 108.1 68.6 106.7 79 107.7C84.2 108.2 89.7 108 95 107.9C99.9 107.9 104.5 108.2 109.3 107.8C118.8 107.1 128.4 107.4 138 107.5C164.7 108.2 191.4 107.6 218.1 105.9Z" fill="#C47855"/>
<path d="M218 81.3C218 87.5 218 95.2 218.1 103.4C217.2 103.3 216.4 103.3 215.5 103.2C193.1 101.3 176 103.2 148.2 103.6C143.4 103.7 138.6 104.6 133.9 104.6C127.5 104.6 121.1 103.7 114.7 103.4C93.7 102.4 43.2 107.4 19.2 104.7C19.1 98.3 19.1 92.7 19.1 89.1L19.2 87.9C54.1 89.7 89.1 85.9 124.1 85.4C136.4 85.2 148.7 85.5 161 84.9C179.9 83.9 199 80.9 218 81.3Z" fill="#C47855"/>
<path d="M188.9 129.8C183.3 129.1 177.7 129 172.1 129.2V126.4C187.6 126.1 203.1 126 218.6 126C218.6 127.1 218.7 128.2 218.7 129.3C215.6 129.5 212.4 129.9 209.1 130.1C202.4 130.6 195.4 130.5 188.9 129.8Z" fill="#4F4143"/>
<path d="M172 126.4V129.2C168 129.3 164 129.5 160 129.7C143.2 130.5 127.2 131 109.7 131.5C98.9 131.8 88.1 132.2 77.3 132.5C58 133.1 38.5 133.7 19.3 131.2C19.3 130.4 19.3 129.6 19.3 128.7C26.6 129.2 33.9 129.2 41.2 129.1C48.2 129 55.1 128.9 62.1 128.9C69.5 128.8 76.9 128.7 84.2 128.6C102.1 128.3 120.1 127.6 138 127.2C149.4 126.8 160.7 126.6 172 126.4Z" fill="#4F4143"/>
<path d="M19.1 104.7C43.2 107.4 93.7 102.3 114.6 103.4C121 103.7 127.4 104.6 133.8 104.6C138.6 104.6 143.4 103.7 148.1 103.6C175.9 103.2 193 101.3 215.4 103.2C216.3 103.3 217.1 103.3 218 103.4C218 104.3 218 105.1 218 106C191.4 107.7 164.6 108.2 137.9 107.8C128.3 107.6 118.8 107.4 109.2 108.1C104.3 108.5 99.7 108.2 94.9 108.2C89.6 108.2 84.1 108.5 78.9 108C68.5 107 34.1 108.4 19 109.1C19.1 107.5 19.1 106.1 19.1 104.7Z" fill="#4F4143"/>
<path d="M222 39.1C222.4 41.1 222.5 42.9 222.5 44.4H221.9C219.3 44.5 216.8 44.6 214.2 44.8C211.1 45 208 45.1 205 44.3C202.4 43.6 199.9 42.3 197.7 40.9L197.6 40.8C201.7 36.1 204.7 34.3 205 34.1C203.6 34.5 202.3 34.6 200.5 34.5C201 32.9 201 32.1 208 26.1C215 20.1 222 21.1 222 21.1C216 21.1 220 29.1 222 39.1Z" fill="#338728"/>
<path d="M221 82.5C220.3 82.4 219.6 82.2 219 82.1C217.6 81.7 216.3 81.3 215.1 80.9C215.7 77.9 217.4 75.1 220 73.4C221.1 72.6 222.4 72 223.3 71.1C224.5 69.8 225 68 225.4 66.3C226 63.6 226.6 61 227.1 58.3L227.8 57.1C233.3 60.9 241.2 68.1 242.1 77.3C243.1 88.3 241.1 91.3 241.1 91.3C241 84.7 229.1 84.1 221 82.5Z" fill="#59B33F"/>
<path d="M219 82.6V82.2C219.6 82.4 220.3 82.5 221 82.6C224 90 221 104.2 221 104.2C220.7 103.7 220.3 103.1 219.5 102.4C217.5 100.6 213.6 98.4 207 96.2C206.3 96 205.7 95.7 205.1 95.5L205.2 95.3C207.4 93.4 210 91.8 212.7 90.6C214.2 90 215.7 89.4 216.7 88.1C217.9 86.5 217.8 84.2 219 82.6Z" fill="#2C7523"/>
<path d="M215.1 80.9C216.3 81.4 217.6 81.8 219 82.1V82.5C217.8 84.1 217.9 86.4 216.7 88C215.7 89.3 214.2 89.8 212.7 90.5C210 91.7 207.5 93.3 205.2 95.2L205.1 95.4C197.9 92.5 197 89.1 197 89.1C199.6 83.8 200.4 79.9 200.5 79.7C201 79.5 201.5 79.4 202 79.2C204 78.4 205.7 77.4 207.2 76C207.4 76.2 210 78.8 215.1 80.9Z" fill="#26661E"/>
<path d="M207.2 76C205.7 77.3 203.9 78.4 202 79.2C201.5 79.4 201 79.6 200.5 79.7C188.1 83.9 176.7 80.6 171.9 76.5C173.1 73.3 172.9 70 170.2 67C170.2 67 170.9 65.8 172.1 63.9L172.4 64.1C181 65 189.7 64.5 198.2 62.7C204.5 61.4 210.6 59.3 217 58.5C215.7 63.2 212.9 71.1 207.2 76Z" fill="#52A63A"/>
<path d="M217 58.4C217.7 55.8 218 54.1 218 54.1C218 54.1 215.1 53.3 210.9 52.4C212.8 52 216 52 219.5 52.8C221.4 53.3 223.3 54 225.1 55C225.9 55.5 226.8 56.1 227.8 56.8L227.1 58C226.6 60.7 226.1 63.4 225.4 66C225 67.7 224.5 69.5 223.3 70.8C222.4 71.8 221.1 72.4 220 73.1C217.5 74.9 215.7 77.6 215.1 80.6C209.9 78.6 207.4 75.9 207.2 75.7C212.9 71.1 215.7 63.2 217 58.4Z" fill="#52A63A"/>
<path d="M210.9 52.5C215.1 53.4 218 54.2 218 54.2C218 54.2 217.7 55.9 217 58.5C210.6 59.3 204.5 61.4 198.2 62.7C189.8 64.5 181 65 172.4 64.1L172.1 63.9C173.9 61.2 176.8 57.3 180.4 54.3C181 53.8 181.7 53.3 182.3 52.8C184.4 51.4 186.6 50.3 189 50.1C189.7 50 190.4 50 191.1 50C197.1 49.9 205.2 51.2 210.9 52.5Z" fill="#59B33F"/>
<path d="M200.5 34.5C202.3 34.6 203.6 34.6 205 34.1C204.7 34.3 201.7 36.1 197.6 40.8C196.3 42.3 194.9 44.2 193.4 46.3C192.7 43.8 191.7 41.3 189.9 39.5C188.1 37.6 185.4 36.3 182.8 36.7C183.2 36.4 183.7 36.2 184.1 35.9C186.1 34.8 188.5 34 191.1 34C195.4 34.1 198.3 34.4 200.5 34.5Z" fill="#95D96F"/>
<path d="M179 39.7C179.9 38.8 181.2 37.7 182.7 36.7C185.3 36.3 188 37.6 189.8 39.5C191.6 41.4 192.6 43.8 193.3 46.3C192.5 47.4 191.8 48.6 191 49.9C190.2 49.9 189.5 50 188.9 50C186.6 50.2 184.3 51.3 182.2 52.7C182.1 52.3 180.3 45.7 177.1 41.5C177.4 41.5 178 40.7 179 39.7Z" fill="#7CBF58"/>
<path d="M210.9 52.5C205.2 51.3 197.1 49.9 191.1 50C191.9 48.7 192.6 47.5 193.4 46.4C194.9 44.2 196.3 42.4 197.6 40.9L197.7 41C200 42.4 202.4 43.8 205 44.4C208 45.2 211.1 45 214.2 44.9C216.8 44.8 219.3 44.7 221.9 44.5H222.5C222.3 50.5 219.4 52.9 219.4 52.9C216 52 212.8 52 210.9 52.5Z" fill="#2C7523"/>
<path d="M182.7 36.7C181.2 37.7 179.9 38.8 179 39.7C177.4 38.7 175.1 37.4 172.8 36C170.5 32.6 169 29.1 169 29.1C167.8 29.7 166.5 30.7 165.1 31.9C163.7 31.2 162.8 30.8 162.5 30.7C159.7 30.1 156.9 29.4 154.2 28.8H153.6C156.4 26.3 159.7 23.6 162 22.2C167 19.2 173 18.2 179 20.2C185 22.2 191 22.2 191 22.2C189 24.2 184 36.1 184 36.1C183.6 36.2 183.2 36.5 182.7 36.7Z" fill="#59B33F"/>
<path d="M177.3 41.6C180.4 45.8 182.3 52.4 182.4 52.8C181.7 53.2 181.1 53.7 180.5 54.3C177.1 52.4 173.9 50.2 171.1 50.1C168.4 50.1 165.6 50.8 163.1 51.7C159.2 53.1 155.2 54.4 151.3 55.8C151.4 53.2 151.7 49.8 153 46.7C153.5 45.4 154.2 44.1 155.1 43.1C158.6 38.9 162.1 34.7 165.2 31.9C167.2 32.9 170.1 34.5 172.8 36C173.7 37.4 174.8 38.9 176 40.1C176.4 40.5 176.9 41 177.3 41.6Z" fill="#95D96F"/>
<path d="M172.8 36C175.2 37.3 177.5 38.7 179 39.7C178 40.7 177.3 41.5 177.2 41.6C176.8 41.1 176.4 40.6 175.9 40.1C174.8 38.9 173.7 37.5 172.8 36Z" fill="#52A63A"/>
<path d="M172.8 36C170 34.5 167.2 32.9 165.2 31.9C166.6 30.7 167.9 29.7 169.1 29.1C169 29.1 170.5 32.6 172.8 36Z" fill="#95D96F"/>
<path d="M170.2 66.9C172.9 70 173.1 73.3 171.9 76.4C170.4 80.5 166.5 84.4 162.9 87.2C162.3 83.3 161.4 79.5 159.3 76.2C157.5 73.5 155.1 71.5 152.8 69.2C150.6 66.9 148.5 64.3 147.9 61.2L147.8 60.8C148.9 60.4 150.1 60.2 151.3 60.1C156.8 59.6 163.3 61.7 167 64.1C168.3 65 169.4 65.9 170.2 66.9Z" fill="#327D21"/>
<path d="M161 122.1C161 122.1 156.7 94.1 161.8 88.1C162.2 87.8 162.6 87.5 162.9 87.2C166.5 84.4 170.3 80.5 171.9 76.4C176.7 80.6 188 83.8 200.5 79.6C200.4 79.8 199.6 83.7 197 89C194.1 95 188.9 102.8 180 109C163 121.1 161 122.1 161 122.1Z" fill="#26661E"/>
<path d="M161.8 88.1C159.9 89.5 158.2 90.5 157 91.1C152 93.6 134.2 97.5 128.7 98.7C130.6 96.3 131.4 93.9 131.5 91.2C134.5 84.8 136.1 78.9 137.9 73.7C139.4 69.6 141.1 66 144.1 63.1C145.2 62 146.5 61.3 147.9 60.8L148 61.2C148.5 64.3 150.6 67 152.9 69.2C155.1 71.5 157.6 73.5 159.4 76.2C161.5 79.4 162.4 83.3 163 87.2C162.6 87.5 162.2 87.8 161.8 88.1Z" fill="#388D25"/>
<path d="M167 64.1C163.3 61.6 156.9 59.6 151.3 60.1V59.8C151.3 59.8 151.1 58.2 151.2 55.8C155.1 54.4 159.1 53.1 163 51.7C165.5 50.8 168.3 50.1 171 50.1C173.8 50.1 177 52.4 180.4 54.3C176.9 57.3 173.9 61.2 172.1 63.9C170.9 65.7 170.2 67 170.2 67C169.4 65.9 168.3 65 167 64.1Z" fill="#7CBF58"/>
<path d="M152.9 46.7C152.9 46.7 153 42.6 150.5 38.8C150.4 38.6 150.2 38.3 150 38.1C149.2 37 148.4 35.6 147.8 34.1C147.8 34.1 150.4 31.6 153.6 28.7H154.2C157 29.3 159.8 30 162.5 30.6C162.8 30.7 163.8 31.1 165.1 31.8C161.9 34.6 158.5 38.8 155 43C154.1 44.2 153.4 45.4 152.9 46.7Z" fill="#52A63A"/>
<path d="M151.2 55.8C151.1 58.1 151.3 59.8 151.3 59.8V60.1C150.1 60.2 148.9 60.4 147.8 60.8C146.3 61.3 145 62.1 144 63.1C141.1 66 139.3 69.6 137.8 73.7C134.8 70.9 132.4 67.5 130.8 63.7C130.9 63.4 130.9 63.2 130.9 62.9C131.9 61.9 132.9 61 134 60C140.6 54 146.2 46.8 150.1 38.7L150.3 38.6C152.8 42.4 152.7 46.5 152.7 46.5C151.6 49.8 151.2 53.2 151.2 55.8Z" fill="#2C7523"/>
<path d="M143 10.1C146 15.1 148.1 25.1 146.6 31.1C145.6 28.4 145 26.1 145 26.1C145 27.3 143.1 30.2 140.6 32.8L139.5 32.4C136.8 32.3 134.1 31.3 132 29.6C130.5 28.4 129.3 26.8 127.5 25.9C126.1 25.2 124.5 25 122.9 25C120.2 25 117.4 25.5 114.9 26.3C112.8 27 110.7 28 108.5 28.5C109.9 24.3 113.4 15.8 119.9 10C128.9 2 138.9 1 142.9 0C143 0.1 140 5.1 143 10.1Z" fill="#76CA45"/>
<path d="M145 26.1C145 26.1 145.6 28.4 146.6 31.1C146.9 32.1 147.4 33.1 147.8 34.1C148.5 35.6 149.2 37 150 38.1C150.2 38.3 150.3 38.6 150.5 38.8L150.3 38.9C146.3 46.9 140.8 54.2 134.2 60.2C133.2 61.1 132.1 62 131.1 63.1C132.1 56.7 130.7 50.6 128.7 46.2C128.9 45.9 132.2 40.2 136.1 37.3C137.6 36.2 139.2 34.6 140.7 33C143.1 30.2 145 27.4 145 26.1Z" fill="#338728"/>
<path d="M139.5 32.5L140.6 32.9C139.1 34.5 137.5 36 136 37.2C132.1 40.1 128.8 45.8 128.6 46.1C127.4 43.3 126 41.2 125 40.2C122 37.2 120 31.2 120 31.2C118.6 32.6 113.6 36.1 108.6 40.9C108.6 40.9 109.2 36.9 107.8 31.2C107.8 31.1 108.1 30.2 108.6 28.7C110.8 28.2 112.9 27.2 115 26.5C117.6 25.6 120.3 25.2 123 25.2C124.6 25.2 126.2 25.4 127.6 26.1C129.3 27 130.6 28.6 132.1 29.8C134.1 31.4 136.8 32.4 139.5 32.5Z" fill="#6CC24E"/>
<path d="M131 85.1C130.4 81.3 128.7 78.1 126.2 75.8C127 74.8 128.1 72.5 130 67.1C130.4 66 130.7 64.9 130.9 63.8C132.5 67.6 134.9 71 137.9 73.8C136.1 78.9 134.5 84.8 131.5 91.3C131.5 89.3 131.3 87.3 131 85.1Z" fill="#26661E"/>
<path d="M129.7 60.6C128.9 58.3 127.5 56.1 125.5 54.6C125.1 54.3 124.6 53.9 124 53.8C123.4 53.7 122.8 53.9 122.2 54.1C113.8 56.8 106.5 62.3 99.5 67.6C99.1 67.9 98.8 68.2 98.5 68.5C98.1 67.9 97.6 67.4 97.1 66.8C97.1 66.8 96.9 55.1 102.9 47.1C104.6 44.8 106.6 42.7 108.5 40.8C113.4 36 118.4 32.5 119.9 31.1C119.9 31.1 121.9 37.1 124.9 40.1C125.9 41.1 127.3 43.2 128.5 46C130.4 50.4 131.9 56.5 130.9 62.9C130.8 63 130.7 63.1 130.6 63.2C130.3 62.4 130 61.5 129.7 60.6Z" fill="#59B33F"/>
<path d="M131.5 91.2C131.4 93.9 130.7 96.4 128.7 98.7C127.6 98.9 127 99.1 127 99.1C128.8 96.4 130.3 93.8 131.5 91.2Z" fill="#388D25"/>
<path d="M107.8 31.1C109.3 36.8 108.6 40.8 108.6 40.8C106.6 42.7 104.7 44.8 103 47.1C97 55.1 97.2 66.8 97.2 66.8C95.3 65 92.8 63.6 90.2 62.6C87.4 61.5 84.4 60.9 81.6 60.6C81.4 60.6 81.2 60.6 81.1 60.5V60.1C81.1 60.1 80.3 54.2 77.2 48.5C76.9 47.9 76.6 47.3 76.2 46.8C77.4 40.6 82.2 30.4 86.4 22.3C89.9 15.5 93 10.2 93 10.2C93 10.2 98 12.2 104 22.2C105.9 25.3 107.1 28.4 107.8 31.1Z" fill="#8AD561"/>
<path d="M126.5 101C123.8 95.3 122.4 89.1 122.5 82.8C122.5 82.2 122.5 81.6 122.3 81C121.9 80 120.7 79.5 119.7 79.2C113.6 77.2 107 76.4 100.6 76.9C100.8 76.7 100.9 76.4 101.1 76.2C101.1 76.2 109.1 70.2 119.1 72.2C121.8 72.7 124.3 74 126.3 75.9C128.7 78.2 130.5 81.4 131.1 85.2C131.4 87.4 131.6 89.4 131.5 91.3C130.3 93.9 128.9 96.5 127.1 99.2C127.1 99.2 127.7 99.1 128.8 98.8C128.1 99.5 127.4 100.2 126.5 101Z" fill="#328626"/>
<path d="M98.6 68.5C100.2 70.7 101 73.3 100.5 76.6C100.5 76.6 100.5 76.7 100.5 76.8C98.4 79.8 97.3 82.7 96.8 85.4C95.3 87.1 93.2 88.7 90.2 89.6C94.8 79.9 92.1 71.2 90.1 62.5C92.8 63.5 95.3 64.9 97.1 66.7C97.7 67.4 98.2 67.9 98.6 68.5Z" fill="#66B74A"/>
<path d="M130.7 63.3C130.8 63.5 130.8 63.6 130.9 63.7C130.7 64.8 130.4 65.9 130 67C128.2 72.4 127 74.8 126.2 75.7C124.2 73.8 121.7 72.5 119 72C109 70 101 76 101 76C100.8 76.2 100.6 76.5 100.5 76.7C100.5 76.6 100.5 76.5 100.5 76.5C101 73.2 100.2 70.6 98.6 68.4C98.8 68 99.2 67.7 99.6 67.5C106.7 62.2 113.9 56.7 122.3 54C122.9 53.8 123.5 53.6 124.1 53.7C124.7 53.8 125.1 54.1 125.6 54.5C127.5 56.1 129 58.2 129.8 60.5C130 61.5 130.3 62.4 130.7 63.3Z" fill="#52A63A"/>
<path d="M100.5 76.8C107 76.3 113.5 77.1 119.6 79.1C120.6 79.4 121.8 79.9 122.2 80.9C122.4 81.5 122.4 82.1 122.4 82.7C122.4 89 123.8 95.2 126.4 100.9C125.9 101.3 125.5 101.7 124.9 102.1C117.9 107.1 109.9 112.1 106.9 118.1C106.9 118.1 106.9 112.1 102.9 105.1C101.6 102.8 100 100.2 98.7 97.3C97.1 93.8 96.1 89.8 96.7 85.5C99.9 82 100.4 77.8 100.5 76.8Z" fill="#388D25"/>
<path d="M100.5 76.8C100.4 77.8 99.9 82 96.8 85.4C97.2 82.7 98.4 79.8 100.5 76.8Z" fill="#388D25"/>
<path d="M90.2 89.7C93.2 88.8 95.3 87.2 96.8 85.5C96.1 89.8 97.2 93.8 98.8 97.3C98.3 98.2 97.7 99 97 99.9C93.6 100.5 90.1 100.2 86.8 98.9C86.1 98.6 85.4 98.3 85.1 97.6C84.9 97.2 84.9 96.7 84.9 96.2C84.9 94.4 84.9 92.5 85 90.7V90.6C86.9 90.5 88.7 90.2 90.2 89.7Z" fill="#2E7A23"/>
<path d="M45 79C44.8 78.9 44.6 78.7 44.5 78.6C44.5 78.6 50.8 76.7 54.9 73.9C55.9 73.2 56.9 72.4 57.5 71.6C58.7 69.9 61.1 67.6 64.3 65.4C68.7 62.4 74.5 59.9 81 60.5C81.2 60.5 81.4 60.5 81.5 60.6C84.3 60.9 87.3 61.5 90.1 62.6C92.1 71.3 94.8 80 90.2 89.7C88.7 90.2 86.9 90.5 84.9 90.6C84.8 90.6 84.6 90.6 84.5 90.6C83.3 90.6 82 90.6 80.7 90.5C79.3 90.4 77.8 90.3 76.2 90.1C69.7 89.3 62.5 87.4 56.1 84.9C54.5 84.3 53 83.6 51.6 82.9C49.1 81.7 46.9 80.4 45 79Z" fill="#76CA45"/>
<path d="M86.4 22.2C82.2 30.3 77.3 40.5 76.2 46.7C74.6 44.2 72.6 41.8 70.1 40.1C67.5 38.4 65.4 37 63.7 35.7C66 34.4 68.2 32.7 70.1 31.1C74.3 27.6 78 22.8 81.8 18.9L81.9 18.8C83.6 19.8 85.1 21 86.4 22.2Z" fill="#52A63A"/>
<path d="M80.7 90.5C82 90.6 83.3 90.6 84.5 90.6C84.6 90.6 84.8 90.6 84.9 90.6V90.7C84.9 92.5 84.9 94.4 84.8 96.2C84.8 96.7 84.8 97.2 85 97.6C85.3 98.3 86 98.6 86.7 98.9C89.9 100.2 93.5 100.5 96.9 99.9C95.8 101.2 94.3 102.7 92 105.1C88 109.1 75 112.1 75 112.1C75 112.1 80 106.1 79 99.1C78 92.3 80.6 90.6 80.7 90.5Z" fill="#338727"/>
<path d="M81 60.1V60.5C74.6 59.9 68.7 62.4 64.3 65.4C63.3 63.6 61.5 62.5 59.9 61.2C60.4 60.7 61 60.2 61.5 59.6C66.1 55.3 70.8 50.9 76.6 48.6L77.1 48.4C80.2 54.2 81 60.1 81 60.1Z" fill="#328626"/>
<path d="M76.2 90.1L76.1 90.6C70.8 96.3 64.2 101.8 57 106L56.7 105.5C53.9 104 51.9 100.9 51.7 97.7C51.5 94.5 54.3 87.5 55.9 86.2L56 85C62.5 87.4 69.7 89.3 76.2 90.1Z" fill="#52A63A"/>
<path d="M76.7 48.7C70.8 50.9 66.1 55.4 61.6 59.7C61.1 60.2 60.5 60.7 60 61.3C59.2 60.6 58.5 59.9 57.9 59C57 57.4 56.8 55.5 55.9 53.9C55.1 52.5 53.7 51.6 52.8 50.2C52.4 49.6 52 48.9 51.8 48.2C51.9 46.5 52.1 45 52.4 43.5C52.6 42.7 52.8 41.8 53 41.1C53.2 40.4 53.4 39.7 53.5 39C56.9 39 60.3 37.6 63.5 35.7C65.2 37 67.3 38.4 69.9 40.1C72.5 41.8 74.5 44.2 76 46.7C76.3 47.3 76.7 47.9 77 48.4L76.7 48.7Z" fill="#388D25"/>
<path d="M59.9 61.2C61.5 62.5 63.3 63.6 64.3 65.4C61.1 67.5 58.8 69.9 57.5 71.6C56.9 72.4 56 73.2 54.9 73.9C54.4 72.1 54 70.3 53.6 68.6C55.3 65.8 57.5 63.5 59.9 61.2Z" fill="#328626"/>
<path d="M55 26.1C57.1 30.4 59.3 32.6 63.6 35.7C60.4 37.6 56.9 39 53.6 39C55 32.6 55 26.1 55 26.1Z" fill="#388D25"/>
<path d="M53 65.2C52.2 61 51.8 57.1 51.7 53.8C51.6 51.8 51.7 50 51.8 48.3C52 49 52.3 49.7 52.8 50.3C53.7 51.6 55 52.6 55.9 54C56.8 55.6 57 57.5 57.9 59.1C58.4 60 59.1 60.7 60 61.4C57.7 63.6 55.4 66 53.8 68.8C53.4 67.4 53.2 66.3 53 65.2Z" fill="#388D25"/>
<path d="M49 38.1C50.5 38.7 52 39 53.5 39C53.3 39.7 53.2 40.4 53 41.1C52.8 41.9 52.6 42.7 52.4 43.5C52.4 43.5 50.2 41.6 48.6 38.3V38.2L49 38.1Z" fill="#52A63A"/>
<path d="M51.8 48.2C51.7 49.9 51.6 51.8 51.7 53.7C47.7 54.7 47.1 57.6 37.3 58C30.5 55.4 24.4 50.7 20.2 44.7H20.1C19.9 43.1 19.6 41.5 19 40.1C17 35.1 11 30.1 11 30.1C11 30.1 26 29.1 36 32.1C45.7 35 48.5 38.2 48.7 38.3C50.2 41.5 52.5 43.5 52.5 43.5C52.1 45 51.9 46.5 51.8 48.2Z" fill="#76CA45"/>
<path d="M48.9 84L51 84.2C50.7 87.2 49.8 90.1 48.4 92.8C46.7 96 44.4 98.8 42.5 101.9C40.6 105 39.1 108.5 39.4 112.1L39.6 112.7C28.9 115.2 27.5 115.7 33.1 110.1C33.8 109.4 34.3 108.8 34.8 108.1C38.9 102.6 38.2 96.6 39.1 92.1C39.3 90.9 40.2 89.8 41.3 88.7C43.4 86.7 46.6 85.1 48.9 84Z" fill="#59B33F"/>
<path d="M48.6 38.3C47.4 35.6 46.6 32.1 48 28.1C51 19.1 52 13.1 46 10.1C46 10.1 69.4 11.8 81.8 18.8L81.7 18.9C77.9 22.8 74.2 27.6 70 31.1C68 32.7 65.9 34.4 63.6 35.7C59.3 32.6 57.2 30.4 55 26.1C55 26.1 55 32.6 53.5 39C52 39 50.4 38.7 49 38.1L48.6 38.3Z" fill="#59B33F"/>
<path d="M45 79C44.5 79.5 44 80.1 43.6 80.7C43.6 80.7 43.6 80.8 43.5 80.8C45.6 75.2 43.3 69.6 42.6 68.5C41.8 67.1 40.5 65.9 39.3 64.8C37.2 62.9 33.1 60 30.9 58V57.8C32.1 57.8 33.5 57.9 34.9 58C44.9 59 52.8 65.1 52.8 65.1C53 66.2 53.2 67.3 53.5 68.5C53.9 70.2 54.3 72 54.8 73.8C50.8 76.7 44.5 78.6 44.5 78.6C44.7 78.7 44.9 78.9 45 79Z" fill="#7CBF58"/>
<path d="M42 112.1C41.1 112.3 40.3 112.5 39.5 112.7L39.3 112.1C39 108.5 40.5 105 42.4 101.9C44.3 98.8 46.7 96 48.3 92.8C49.7 90.1 50.6 87.2 50.9 84.2L48.8 84C50.4 83.3 51.5 82.9 51.5 82.9C52.9 83.6 54.4 84.3 56 84.9L55.9 86.1C54.3 87.4 51.4 94.4 51.7 97.6C51.9 100.8 53.9 103.9 56.7 105.4L57 105.9C52.3 108.8 47.2 110.9 42 112.1Z" fill="#59B33F"/>
<path d="M37.3 58.1C47.1 57.7 47.7 54.8 51.7 53.8C51.8 57.2 52.2 61 53 65.2C53 65.2 45.1 59.1 35.1 58.1C35.8 58.1 36.6 58.1 37.3 58.1Z" fill="#66B74A"/>
<path d="M43.6 80.8C44.1 80.1 44.5 79.5 45.1 79C47 80.4 49.2 81.7 51.7 82.9C51.7 82.9 50.6 83.3 49 84C46.7 85 43.5 86.7 41.3 88.7C36.3 89.5 32.5 89.6 29.5 89.1C35 88.4 40.2 85.4 43.6 80.8Z" fill="#7CBF58"/>
<path d="M31 58.1C33.1 60 37.2 62.9 39.4 64.9C40.6 66 41.9 67.1 42.7 68.6C43.4 69.7 45.7 75.3 43.6 80.9C40.3 85.4 35 88.5 29.5 89.2C25.9 88.6 23.5 87.4 21.5 85.8C19.9 84.6 18.6 83.3 17.1 82.2C12.1 78.2 0.100006 77.2 0.100006 77.2C4.10001 76.2 8.10001 71.2 14.1 65.2C17.9 61.4 21.2 59.2 25.7 58.4C27.3 58.1 29.1 57.9 31.1 58V58.1H31Z" fill="#95D96F"/>
<path d="M39 92.1C38.1 96.5 38.8 102.6 34.7 108.1C34.7 108.1 34.3 108.2 33.6 108.5V108.4C29.7 104.9 24 105 19 103.5C18.7 103.4 18.3 103.3 18.1 103C17.9 102.7 18 102.3 18 102C18.5 99.2 20.6 97.1 22.6 95.2C24.2 93.6 25.7 88.6 27.9 89.2V89.3C28.4 89.3 28.8 89.2 29.3 89.2C32.3 89.7 36.1 89.6 41.1 88.8C40.1 89.8 39.2 90.9 39 92.1Z" fill="#328626"/>
<path d="M21.4 85.8C23.4 87.3 25.8 88.6 29.4 89.2C28.9 89.3 28.5 89.3 28 89.3V89.2C25.8 88.6 24.3 93.6 22.7 95.2C20.7 97.2 18.6 99.3 18.1 102C18 102.3 18 102.7 18.2 103C18.4 103.3 18.7 103.4 19.1 103.5C24.1 104.9 29.8 104.9 33.7 108.4V108.5C31.6 109.2 26.7 110.8 20.9 111.7C20 111.9 19 112 18 112.1C9 113.1 0 111.1 0 111.1C5 108.1 9 103.1 12 94.1C15 85.1 21.4 85.8 21.4 85.8Z" fill="#388D25"/>
<path d="M20.2 44.7C24.4 50.7 30.5 55.4 37.3 58C36.6 58 35.8 58.1 35 58.1C33.6 58 32.2 57.9 31 57.9C29 57.9 27.2 58 25.6 58.3C21 53.4 20.6 48.8 20.2 44.7Z" fill="#66B74A"/>
</svg>
