<svg viewBox="0 0 202 174" fill="none" xmlns="http://www.w3.org/2000/svg">
<path d="M37.6507 111.7C37.9507 111.5 42.1507 108.5 49.4507 107.5C56.9507 106.4 59.1507 107.5 67.5507 114.6H72.9507C72.4507 113.9 70.9507 111.9 69.0507 109.6L66.1507 106.6C65.7507 106.4 57.9507 102.2 50.6507 103.3C42.9507 104.3 39.7507 107.5 37.6507 111.7Z" fill="#1E8A58"/>
<path d="M45.7507 35.3C47.3507 38 52.1507 46.5 59.1507 61.9C59.8507 63.5 60.5507 65 61.0507 66.4C63.0507 67.3 65.1507 68.3 67.2507 69.5C59.6507 51.1 48.5507 38.3 45.7507 35.3Z" fill="#4FA183"/>
<path d="M19.6507 89.3C22.8507 88.8 52.9507 84.9 76.3507 114.9C76.3507 114.9 78.0507 113.8 79.3507 111.2C75.9507 107.5 70.4507 102.2 65.1507 99.4C64.9507 99.3 64.7507 99.2 64.5507 99.1C55.9507 94.9 45.1507 89.6 34.4507 88.5C25.2507 87.5 20.7507 88.9 19.6507 89.3Z" fill="#21B56F"/>
<path d="M44.0507 81C44.0507 81 60.4507 89.1 65.1507 99.4C70.4507 102.2 75.9507 107.6 79.3507 111.2C79.7507 110.3 80.0507 109.3 80.3507 108.1C80.3507 108.1 79.0507 103.7 74.4507 98.4C73.7507 97.6 72.9507 96.7 72.0507 95.9C70.7507 94.6 69.3507 93.2 67.8507 91.9C62.1507 86.6 55.1507 81.8 44.0507 81Z" fill="#3CB085"/>
<path d="M75.0507 74.7C69.5507 56 45.8507 35 45.1507 34.4C45.1507 34.5 45.3507 34.8 45.6507 35.3C48.4507 38.4 59.5507 51.1 67.2507 69.5C69.9507 71 72.5507 72.7 75.0507 74.7Z" fill="#56C993"/>
<path d="M62.9507 71.2C53.9507 64.9 45.5507 61.4 44.2507 60.8C44.1507 60.8 44.1507 60.8 44.0507 60.8C44.5507 61.1 55.1507 67.2 64.5507 76C64.1507 74.5 63.5507 72.9 62.9507 71.2Z" fill="#52BFA0"/>
<path d="M61.0507 66.4C52.7507 62.7 45.5507 61.1 44.2507 60.9C45.5507 61.4 53.9507 64.9 62.9507 71.3C62.3507 69.7 61.7507 68.1 61.0507 66.4Z" fill="#86DBBD"/>
<path d="M61.0507 66.4C61.7507 68.1 62.3507 69.7 62.9507 71.2C65.2507 72.9 67.6507 74.7 69.9507 76.8C69.1507 74.3 68.2507 71.9 67.2507 69.5C65.1507 68.3 63.0507 67.3 61.0507 66.4Z" fill="#86DBBD"/>
<path d="M62.9507 71.2C63.5507 72.9 64.1507 74.5 64.5507 76C67.2507 78.5 69.7507 81.2 72.0507 84C71.4507 81.5 70.7507 79.1 69.9507 76.7C67.6507 74.7 65.2507 72.9 62.9507 71.2Z" fill="#52BFA0"/>
<path d="M66.0507 106.6L68.9507 109.6C68.1507 108.7 67.1507 107.6 66.0507 106.6Z" fill="#1E8A58"/>
<path d="M64.5507 76.1C67.7507 86.3 67.7507 91.8 67.7507 91.8C69.2507 93.1 70.6507 94.5 71.9507 95.8C72.8507 96.7 73.6507 97.5 74.3507 98.3C73.9507 93.3 73.1507 88.5 72.0507 84C69.8507 81.2 67.2507 78.5 64.5507 76.1Z" fill="#4FA183"/>
<path d="M75.0507 74.7C72.5507 72.7 69.9507 71 67.2507 69.5C68.2507 71.8 69.1507 74.3 69.9507 76.8C80.1507 85.8 88.7507 98.6 85.7507 114.9H90.3507L91.3507 110.5C91.6507 108.2 91.7507 105.2 91.0507 101.5C90.7507 99.9 90.3507 98.3 89.8507 96.5C89.2507 94.6 88.4507 92.6 87.4507 90.5C86.4507 88.5 85.2507 86.4 83.8507 84.2C81.4507 80.5 78.4507 77.4 75.0507 74.7Z" fill="#86DBBD"/>
<path d="M68.9507 109.6C70.9507 111.8 72.3507 113.8 72.8507 114.6H73.6507L68.9507 109.6Z" fill="#21B56F"/>
<path d="M69.9507 76.8C70.7507 79.1 71.4507 81.6 72.0507 84.1C74.2507 86.9 76.0507 89.7 77.4507 92.7C80.5507 99.6 80.9507 104.6 80.2507 108.1C80.0507 109.3 79.6507 110.4 79.2507 111.2C81.2507 113.4 82.5507 114.9 82.5507 114.9H85.7507C88.8507 98.6 80.1507 85.8 69.9507 76.8Z" fill="#52BFA0"/>
<path d="M70.9507 8.89999C70.9507 13.1 74.1507 35.4 77.4507 51.3C80.6507 67 87.3507 89.8 87.5507 90.5C88.5507 92.6 89.3507 94.6 89.9507 96.5C89.9507 96.5 91.7507 88.7 93.7507 80.1C93.5507 79.6 87.1507 60.7 82.8507 49.2C78.5507 37.5 70.9507 8.89999 70.9507 8.89999Z" fill="#21B56F"/>
<path d="M39.7507 92.6C48.3507 95.8 58.0507 100 63.4507 104.3C64.3507 105 65.2507 105.8 66.0507 106.6C67.1507 107.6 68.0507 108.6 68.9507 109.6L73.6507 114.6H72.8507C72.9507 114.8 73.0507 114.9 73.0507 114.9H76.2507C52.7507 85 22.6507 88.8 19.5507 89.3C19.3507 89.4 19.2507 89.4 19.2507 89.4C19.2507 89.4 31.1507 89.5 39.7507 92.6Z" fill="#1DA163"/>
<path d="M72.0507 84C73.1507 88.6 73.9507 93.3 74.3507 98.3C78.8507 103.6 80.2507 108 80.2507 108C80.8507 104.5 80.4507 99.5 77.4507 92.6C76.1507 89.7 74.2507 86.8 72.0507 84Z" fill="#56C993"/>
<path d="M76.3507 114.9H82.5507C82.5507 114.9 81.2507 113.3 79.2507 111.2C78.0507 113.8 76.3507 114.9 76.3507 114.9Z" fill="#21B56F"/>
<path d="M91.3507 110.5L90.3507 114.9C90.3507 114.9 91.0507 113.3 91.3507 110.5Z" fill="#86DBBD"/>
<path d="M129.051 101.1C136.551 101.1 147.351 107.5 147.351 107.5C147.351 107.5 140.851 100.1 130.151 98C121.451 96.3 113.351 98.1 107.251 99.9C105.851 100.3 104.551 100.8 103.251 101.2C101.951 101.6 100.651 102.3 99.4507 103.1C99.4507 103.1 99.3507 103.1 99.3507 103.2C94.7507 106.1 91.3507 110.7 91.3507 110.7C90.9507 113.5 90.3507 115.1 90.3507 115.1H100.051C100.051 115.1 100.051 115 100.151 114.8C100.751 113.8 102.951 109.9 106.551 107C107.251 106.5 107.951 106 108.651 105.5C114.051 102.2 121.551 101.1 129.051 101.1Z" fill="#3CB085"/>
<path d="M91.0507 101.5C91.6507 105.2 91.6507 108.3 91.3507 110.5C91.3507 110.5 94.7507 106 99.3507 103C99.3507 103 99.3507 103 99.4507 102.9C100.151 102.4 103.351 100.1 107.551 97.2C108.051 94.4 108.851 91.4 110.051 88.3C105.651 90.6 102.151 92.8 99.4507 94.7C97.4507 96.1 95.8507 97.3 94.5507 98.3C92.0507 100.3 91.0507 101.5 91.0507 101.5Z" fill="#1E8A58"/>
<path d="M101.951 83.2C100.451 90.2 99.3507 94.7 99.3507 94.7C102.051 92.8 105.551 90.7 109.951 88.3C113.551 78.4 119.851 67.5 123.651 60.8C128.851 51.6 136.151 42.3 136.551 41.7C132.251 44.9 119.351 58.6 115.051 63.9C110.751 69.3 101.951 83.2 101.951 83.2Z" fill="#52BFA0"/>
<path d="M99.4507 103C100.651 102.2 101.951 101.6 103.251 101.1C104.451 100.7 105.751 100.3 107.251 99.8V99.7C107.351 98.9 107.451 98.1 107.551 97.2C103.351 100.1 100.151 102.5 99.4507 103Z" fill="#52BFA0"/>
<path d="M106.051 1.79999C106.851 12.8 98.8507 53.1 97.9507 59.8C97.4507 63.4 95.5507 72.1 93.7507 80.1C91.8507 88.7 89.9507 96.5 89.9507 96.5C90.5507 98.3 90.8507 99.9 91.1507 101.5C91.1507 101.5 92.1507 100.3 94.5507 98.4C94.6507 98 99.4507 84.2 104.551 48.2C108.451 20.6 106.951 6.79999 106.051 1.79999Z" fill="#3CB085"/>
<path d="M108.651 34.3C109.551 11.3 106.651 2.4 105.751 0C105.851 0.4 105.951 1 106.051 1.8C107.051 6.9 108.451 20.6 104.551 48.2C99.4507 84.2 94.6507 98 94.5507 98.4C95.7507 97.4 97.3507 96.2 99.4507 94.8C99.4507 94.8 100.551 90.3 102.051 83.3C104.451 71.2 107.951 51.7 108.651 34.3Z" fill="#429C72"/>
<path d="M133.551 121.7C133.051 117 129.251 110.5 121.651 106.7C114.251 103 106.851 106.7 106.551 106.8C103.051 109.7 100.751 113.6 100.151 114.6H101.351C101.351 114.6 106.351 108 117.751 108.5C128.851 109 133.251 120.9 133.551 121.7Z" fill="#52BFA0"/>
<path d="M121.151 111.9C129.451 113.3 133.251 121.2 133.551 121.7C133.251 121 128.951 109.1 117.851 108.6C106.451 108.1 101.451 114.7 101.451 114.7H108.351C109.751 111.9 112.551 110.5 121.151 111.9Z" fill="#4FA183"/>
<path d="M126.951 85.2C134.451 82 146.351 79.9 146.351 79.9C140.951 78.8 131.251 77.8 114.051 86.3C112.651 87 111.251 87.7 109.951 88.4C108.851 91.5 107.951 94.5 107.451 97.3C113.951 92.8 122.551 87.1 126.951 85.2Z" fill="#1E8A58"/>
<path d="M61.4507 98.3C63.3507 100.4 62.3507 106.7 57.7507 109.5C53.1507 112.3 43.8507 117.2 41.0507 119.3L37.2507 119.1C45.6507 111.4 57.1507 96 57.5507 95.4C59.4507 96 60.6507 97.4 61.4507 98.3Z" fill="#76C316"/>
<path d="M43.3507 105C47.7507 100.8 56.9507 95.8 57.4507 95.4C57.0507 96 45.5507 111.3 37.1507 119.1L29.7507 118.6H31.6507C31.6507 118.6 38.8507 109.3 43.3507 105Z" fill="#3EB800"/>
<path d="M50.2507 76.6C50.2507 86.4 43.1507 100 43.1507 100C39.9507 102.5 37.2507 105.7 35.1507 108.8C35.4507 107.9 41.1507 91.4 38.8507 71.2C36.3507 50.5 27.4507 44.6 27.4507 44.6V44.3C45.1507 44.9 50.2507 67.2 50.2507 76.6Z" fill="#56B626"/>
<path d="M29.8507 118.6C29.8507 118.6 31.6507 114 35.2507 108.8C37.3507 105.8 40.0507 102.6 43.2507 100C44.0507 99.4 44.8507 98.8 45.7507 98.3C51.4507 94.8 55.1507 94.5 57.6507 95.4C57.0507 95.7 47.8507 100.8 43.5507 105C39.0507 109.3 31.8507 118.6 31.8507 118.6H29.8507V118.6Z" fill="#72C82F"/>
<path d="M22.8507 44.7C23.5507 44.6 24.3507 44.5 25.1507 44.4C25.9507 44.3 26.6507 44.3 27.4507 44.4V44.7C27.4507 44.7 36.3507 50.5 38.8507 71.3C41.2507 91.5 35.5507 108 35.1507 108.9C31.6507 114 29.7507 118.7 29.7507 118.7H26.0507C28.9507 107.9 26.0507 89.3 26.0507 77.8C26.1507 66.7 23.0507 46.1 22.8507 44.7Z" fill="#76C316"/>
<path d="M26.1507 77.7C26.1507 89.1 29.0507 107.8 26.1507 118.6H20.5507C17.0507 113.4 12.5507 99.7 10.1507 90.4C7.65072 81.1 8.95072 67.8 10.9507 61.9C12.9507 56.2 22.2507 45.4 22.8507 44.6C23.0507 46.1 26.1507 66.7 26.1507 77.7Z" fill="#56B626"/>
<path d="M22.8507 44.7C22.2507 45.5 12.9507 56.3 10.9507 62C8.85073 67.9 7.65072 81.2 10.1507 90.5C12.6507 99.8 17.0507 113.4 20.5507 118.7H16.8507C2.95072 103.3 -0.849276 83.7 0.150724 76C0.950724 68.5 5.25072 47.6 22.8507 44.7Z" fill="#85C56A"/>
<path d="M18.2507 38.5C18.2507 38.5 18.2507 46.1 26.0507 46.1C31.6507 46.1 32.7507 41 32.7507 38.5C32.7507 38.5 29.3507 38.5 27.7507 40.6L25.4507 38.1L23.2507 40.6C23.2507 40.6 22.6507 39.4 18.2507 38.5Z" fill="#FA94C4"/>
<path d="M199.451 114.3C198.751 120.8 198.451 127.1 198.151 133.5C153.851 130.9 109.251 132.3 64.6507 132.6C45.4507 132.8 26.1507 132.7 6.95071 132C6.95071 126.2 6.95071 120.5 7.05071 115V113.5C71.2507 113.2 135.351 113.5 199.451 114.3Z" fill="#C47855"/>
<path d="M198.251 133.4C198.151 134.9 198.151 136.3 198.151 137.8C153.751 135.6 109.251 134.6 64.8507 135.1V132.5C109.351 132.2 153.851 130.8 198.251 133.4Z" fill="#4F4143"/>
<path d="M198.051 137.8C197.951 142.6 197.851 147.4 197.751 152.3C145.351 151.1 97.5507 150.8 37.0507 152.3C27.0507 152.5 17.0507 153.5 7.05071 153.8C7.05071 148.1 6.95071 142.3 6.95071 136.5C26.1507 135.8 45.3507 135.3 64.6507 135.1C109.251 134.7 153.751 135.6 198.051 137.8Z" fill="#C47855"/>
<path d="M197.751 156.2C197.651 161.1 197.551 166.1 197.451 171.3C197.351 172.5 196.351 173.5 195.151 173.5C171.151 173.5 139.551 171.7 118.151 171.5C77.3507 171.2 52.9507 173.4 9.4507 170.7C8.2507 170.6 7.25069 169.7 7.25069 168.4C7.15069 164.3 7.1507 160.2 7.1507 156C39.3507 155 74.5507 154.8 106.151 155.6C139.551 156.7 167.351 155.7 197.751 156.2Z" fill="#C47855"/>
<path d="M64.7507 132.5V135.1C45.5507 135.3 26.2507 135.7 7.05072 136.5C7.05072 135 7.05072 133.5 7.05072 132C26.2507 132.6 45.5507 132.7 64.7507 132.5Z" fill="#4F4143"/>
<path d="M7.1507 153.8C17.1507 153.5 27.1507 152.6 37.1507 152.3C97.6507 150.8 145.451 151.1 197.851 152.3C197.851 153.6 197.851 154.9 197.851 156.2C167.451 155.7 139.651 156.6 106.251 155.8C74.7507 155 39.4507 155.2 7.25069 156.2C7.15069 155.4 7.1507 154.6 7.1507 153.8Z" fill="#4F4143"/>
<path d="M200.951 103.9C198.351 111.5 190.851 117.4 184.651 117.4C178.351 117.4 176.251 115.3 176.251 115.3C178.851 115.3 181.151 114.7 183.351 113.3C194.051 113.5 199.551 106 200.951 103.9Z" fill="#239958"/>
<path d="M184.651 101.1C194.151 86.9 194.951 77.3 195.051 75.3C195.851 76.6 199.551 83.1 198.851 90.7C198.051 99.3 191.351 102.4 191.351 102.4C192.751 97.7 192.751 92.8 192.651 91.2C192.651 90.9 192.651 90.7 192.651 90.7C191.951 94.8 188.151 98.6 184.651 101.1Z" fill="#4EAD8E"/>
<path d="M192.551 91.2C192.651 92.8 192.651 97.7 191.251 102.4C190.651 104.4 189.851 106.3 188.651 107.9C188.451 108.1 188.251 108.4 188.051 108.6C186.451 110.6 184.951 112.1 183.351 113.2C181.151 114.6 178.951 115.3 176.251 115.2C175.451 115.2 174.551 115.1 173.651 115C175.151 113.6 176.151 111.9 176.751 110.6C188.651 106.7 191.951 93.7 192.551 91.2Z" fill="#3A9978"/>
<path d="M183.251 113.3C184.851 112.2 186.351 110.7 187.951 108.7C196.551 109.4 200.751 103.6 201.051 103.3C200.951 103.5 200.951 103.7 200.851 103.9C199.551 106 194.051 113.5 183.251 113.3Z" fill="#37B45D"/>
<path d="M177.951 69.4C178.951 72.3 182.051 78.1 183.251 83.3C183.651 84.8 183.851 86.2 183.851 87.5C183.851 94.5 179.351 96.1 179.351 96.1C179.251 95.8 179.251 95.6 179.151 95.3C178.451 93 177.451 91.1 176.351 89.7C176.751 88.8 177.851 86.5 178.651 83.4C179.551 80.6 178.451 72.7 177.951 69.4Z" fill="#239958"/>
<path d="M190.951 79.8C194.051 77.4 194.851 75.1 194.851 75.1C194.851 75.1 194.951 75.2 195.051 75.4C195.051 77.4 194.251 87.1 184.651 101.2C182.751 102.6 181.051 103.6 179.951 104.1C179.251 104.4 178.551 104.7 177.651 105C177.651 105 180.451 101.4 179.451 96.3C179.451 96.3 183.951 94.7 183.951 87.7C183.951 86.4 183.751 84.9 183.351 83.5C185.051 82.3 187.751 82.1 190.951 79.8Z" fill="#58C4A1"/>
<path d="M173.651 87C173.551 90.9 169.651 95.5 165.851 98.6C165.251 99.1 164.751 99.5 164.251 100C164.251 100 165.851 93.1 165.051 86.8C164.951 86.2 164.851 85.5 164.551 84.7C165.451 81.6 167.951 80.2 170.951 77.6C171.551 77.1 172.151 76.5 172.851 75.9C176.751 72 177.551 68.1 177.551 68.1C177.551 68.4 177.651 68.9 177.851 69.5C178.351 72.8 179.451 80.6 178.651 83.6C177.851 86.6 176.751 89 176.351 89.9C174.951 87.9 173.651 86.9 173.651 86.9C173.651 86.9 173.651 86.9 173.651 87Z" fill="#249647"/>
<path d="M177.551 108C177.551 108 177.351 109.2 176.651 110.7C176.051 112 175.051 113.7 173.551 115.1C172.051 116.5 170.051 117.7 167.351 118.2C167.051 118.3 166.751 118.3 166.451 118.3C163.151 116.8 162.751 110 162.751 109.6C163.651 109.9 170.251 112.4 177.551 108Z" fill="#249647"/>
<path d="M169.151 105.9C177.251 96.8 174.451 88.6 173.751 87C173.751 86.9 173.751 86.9 173.751 86.8C173.751 86.8 175.051 87.9 176.451 89.8C177.451 91.2 178.551 93.1 179.251 95.4C179.351 95.7 179.351 95.9 179.451 96.2C180.551 101.3 177.651 104.9 177.651 104.9C175.251 105.6 172.251 106 169.151 105.9Z" fill="#37B45D"/>
<path d="M168.151 64.9C172.751 71.8 171.051 77.3 170.951 77.6C167.851 80.3 165.451 81.7 164.551 84.7C163.851 82.4 162.551 79.7 161.151 77.1C162.951 75.2 162.751 57.2 162.751 55C163.451 57.8 163.651 58.1 168.151 64.9Z" fill="#69C9A8"/>
<path d="M165.051 86.8C165.851 93.1 164.251 100 164.251 100C162.451 101.8 161.251 103.7 160.651 104.8C160.651 104.8 159.551 99.9 157.651 95.8C158.051 91.3 157.251 82.6 156.551 79.1C155.951 76.2 155.651 70.2 155.551 68.5C155.651 68.2 155.651 68.1 155.651 68.1C155.651 68.1 158.551 72.4 161.251 77.2C162.651 79.8 163.951 82.5 164.651 84.8C164.851 85.5 164.951 86.2 165.051 86.8Z" fill="#31A153"/>
<path d="M160.651 104.7C161.251 103.6 162.351 101.8 164.251 99.9C164.751 99.4 165.251 99 165.851 98.5C169.751 95.4 173.551 90.8 173.651 86.9C174.351 88.5 177.151 96.7 169.051 105.8C167.651 105.8 166.351 105.7 164.951 105.5C162.751 105.2 161.251 105.3 160.151 105.5C160.251 105.6 160.351 105.3 160.651 104.7Z" fill="#3EC968"/>
<path d="M184.651 101.1C188.151 98.5 191.951 94.8 192.551 90.7C192.551 90.7 192.551 90.9 192.551 91.2C192.051 93.6 188.651 106.7 176.751 110.7C177.451 109.1 177.651 108 177.651 108C170.351 112.4 163.651 109.9 162.851 109.6C162.751 109.6 162.751 109.6 162.751 109.6C162.251 110.1 161.751 110.6 161.251 110.9C161.251 110.9 160.251 108.9 158.051 106.7C158.051 106.7 158.651 106 160.251 105.7C161.351 105.5 162.851 105.4 165.051 105.7C166.351 105.9 167.751 106 169.151 106C172.251 106 175.251 105.7 177.651 105C178.551 104.7 179.351 104.5 179.951 104.1C181.051 103.5 182.751 102.5 184.651 101.1Z" fill="#34A880"/>
<path d="M155.551 68.4C155.651 70.1 155.951 76.1 156.551 79C157.251 82.5 158.151 91.2 157.651 95.7C156.651 93.5 155.451 91.5 154.051 90.7C153.051 90.1 151.751 89.5 150.251 88.8C150.251 88.8 149.651 86.1 150.551 82.7C150.751 81.8 151.151 80.8 151.651 79.7C152.551 77.9 153.351 75.7 154.051 73.7C154.851 71.4 155.351 69.3 155.551 68.4Z" fill="#37B45D"/>
<path d="M157.251 60.9C161.151 58.6 162.751 54.6 162.751 54.6C162.751 54.7 162.851 54.8 162.851 55C162.851 57.2 162.951 75.2 161.251 77.1C158.651 72.3 155.651 68 155.651 68C155.651 68 155.651 68.2 155.551 68.4C155.351 69.3 154.851 71.3 154.051 73.7C153.251 72.8 151.751 72.6 150.051 72.3C149.251 66.5 153.251 63.3 157.251 60.9Z" fill="#4EAD8E"/>
<path d="M162.751 109.6C162.751 110 163.151 116.8 166.451 118.3C160.851 119 157.051 116.3 155.251 114.7C154.451 114 154.151 113.5 154.151 113.5C154.151 113.5 156.751 114 160.251 111.7C160.551 111.5 160.951 111.2 161.251 110.9C161.651 110.5 162.151 110.1 162.751 109.6C162.751 109.6 162.751 109.5 162.751 109.6Z" fill="#3EC968"/>
<path d="M150.051 72.3C151.651 72.5 153.251 72.8 154.051 73.7C153.451 75.7 152.651 77.9 151.651 79.7C151.151 80.7 150.751 81.7 150.551 82.7C150.551 82.7 146.451 80.5 143.651 77C141.151 73.9 141.451 66.8 141.551 65.2C141.951 66.3 143.151 69.6 145.351 71.1C146.651 71.9 148.451 72.1 150.051 72.3Z" fill="#3EC968"/>
<path d="M142.451 112C145.351 113 148.351 113.8 151.051 114.2C151.051 114.2 146.251 121.3 137.551 119.7C128.951 118.1 121.851 113.5 118.751 109.5C119.351 109.8 131.051 115.6 142.451 112Z" fill="#31A153"/>
<path d="M150.251 88.8C148.051 87.8 145.451 86.6 143.151 84.9L143.251 84.8C143.251 84.8 139.951 79.7 140.751 75C141.551 70.3 141.551 64.8 141.551 64.8C141.551 64.8 141.551 64.9 141.651 65.1C141.551 66.7 141.251 73.8 143.751 76.9C146.551 80.4 150.651 82.6 150.651 82.6C149.751 86.1 150.251 88.8 150.251 88.8Z" fill="#249647"/>
<path d="M157.651 95.7C159.551 99.8 160.651 104.7 160.651 104.7C160.351 105.3 160.151 105.6 160.151 105.6C158.451 106 157.951 106.6 157.951 106.6C156.551 105.1 154.751 103.6 152.351 102.4C152.051 99.8 146.451 94.6 143.251 90.8C140.251 87.1 138.151 79.5 138.051 79C139.151 81.5 140.951 83.3 142.951 84.8C145.251 86.5 147.851 87.7 150.051 88.7C151.551 89.4 152.851 90 153.851 90.6C155.451 91.5 156.651 93.5 157.651 95.7Z" fill="#44B38C"/>
<path d="M138.251 79.1C138.351 79.6 140.451 87.2 143.451 90.9C146.551 94.7 152.251 99.9 152.551 102.5C151.351 101.9 150.151 101.4 148.651 101C146.651 100.5 144.351 99.9 141.951 99.4C139.151 95.9 138.151 91 137.951 86.9C137.651 82.5 138.151 79.1 138.251 79.1C138.151 79.1 138.151 79.1 138.251 79.1Z" fill="#3A9978"/>
<path d="M137.951 86.8C138.151 90.9 139.151 95.8 141.951 99.3C140.251 98.9 138.551 98.5 136.951 98C135.951 95.1 131.651 87.8 129.551 85.3C127.451 82.9 126.451 74.9 126.451 74.9C126.451 74.9 130.551 85.2 137.951 86.8Z" fill="#5CC3A1"/>
<path d="M126.451 74.9C126.451 74.9 127.451 82.9 129.551 85.3C131.651 87.7 135.951 95 136.951 98C133.351 97 129.951 95.7 127.151 93.9C127.051 93.5 124.151 86.4 126.451 74.9Z" fill="#4EAD8E"/>
<path d="M158.051 106.7C160.151 108.9 161.251 110.9 161.251 110.9C160.851 111.2 160.551 111.4 160.251 111.7L159.251 110.8C129.351 105.6 122.951 89.7 122.351 88.3C123.251 90.6 124.951 92.5 127.151 94C129.851 95.8 133.351 97.1 136.951 98.1C138.651 98.6 140.351 99 141.951 99.4C144.351 100 146.651 100.5 148.651 101C150.051 101.4 151.351 101.9 152.551 102.5C154.751 103.7 156.651 105.2 158.051 106.7Z" fill="#37B45D"/>
<path d="M155.251 114.7C153.951 114.6 152.551 114.5 151.051 114.2C148.351 113.7 145.351 113 142.451 112C139.351 110.9 136.251 109.6 133.651 108C132.851 107.5 132.051 107 131.351 106.4C125.251 101.9 122.451 88.9 122.251 88.1C122.251 88.1 122.251 88.1 122.251 88.2C122.751 89.7 129.251 105.5 159.151 110.7L160.151 111.6C156.651 113.9 154.051 113.4 154.051 113.4C154.051 113.4 154.451 114 155.251 114.7Z" fill="#239958"/>
<path d="M142.451 112C131.051 115.7 119.351 109.9 118.851 109.6C118.851 109.6 126.651 111.9 133.751 108C136.251 109.5 139.351 110.9 142.451 112Z" fill="#3ABF63"/>
</svg>
