<?xml version="1.0" encoding="utf-8"?>
<!-- Generator: Adobe Illustrator 22.1.0, SVG Export Plug-In . SVG Version: 6.00 Build 0)  -->
<svg version="1.1" id="Layer_1" xmlns="http://www.w3.org/2000/svg" xmlns:xlink="http://www.w3.org/1999/xlink" x="0px" y="0px"
	 viewBox="0 0 326 218" style="enable-background:new 0 0 326 218;" xml:space="preserve">
<g>
	<g id="XMLID_2_">
		<g>
			<path style="fill:#C47855;" d="M269.4,180.1c0.1,0.8-0.5,1.4-1.2,1.4l-78.2,0.1c-10.4,0-20.8,0-31.1,0.4
				c-29.6,1-59.3,4.8-88.7,1.6c-0.7-0.1-1.1-0.6-1.1-1.3c0-4.4,0-11.2-0.1-18.8c19.2,2.5,38.7,1.9,58,1.3c10.8-0.3,21.6-0.7,32.4-1
				c17.5-0.5,33.5-1,50.3-1.8c4-0.2,8-0.4,12-0.5c5.6-0.1,11.2,0,16.8,0.6c6.5,0.8,13.6,0.8,20.1,0.3c3.3-0.2,6.5-0.6,9.6-0.8
				C268.4,168.5,268.8,174.9,269.4,180.1z"/>
			<path style="fill:#C47855;" d="M267.6,138.3c0.1,6.7,0.2,13.5,0.4,20.1c-15.5,0-31,0.1-46.5,0.4c-11.3,0.2-22.7,0.4-34,0.7
				c-17.9,0.5-35.8,1.1-53.8,1.4c-7.4,0.1-14.8,0.2-22.1,0.3c-7,0.1-13.9,0.2-20.9,0.2c-7.3,0.1-14.6,0.1-21.9-0.4
				c-0.1-6.5-0.2-13.4-0.2-19.8c15.1-0.7,49.5-2.1,59.9-1.1c5.2,0.5,10.7,0.3,16,0.2c4.9,0,9.5,0.3,14.3-0.1
				c9.5-0.7,19.1-0.4,28.7-0.3C214.2,140.6,240.9,140,267.6,138.3z"/>
			<path style="fill:#C47855;" d="M267.5,113.7c0,6.2,0,13.9,0.1,22.1c-0.9-0.1-1.7-0.1-2.6-0.2c-22.4-1.9-39.5,0-67.3,0.4
				c-4.8,0.1-9.6,1-14.3,1c-6.4,0-12.8-0.9-19.2-1.2c-21-1-71.5,4-95.5,1.3c-0.1-6.4-0.1-12-0.1-15.6l0.1-1.2
				c34.9,1.8,69.9-2,104.9-2.5c12.3-0.2,24.6,0.1,36.9-0.5C229.4,116.3,248.5,113.3,267.5,113.7z"/>
			<path style="fill:#4F4143;" d="M238.4,162.2c-5.6-0.7-11.2-0.8-16.8-0.6l0-2.8c15.5-0.3,31-0.4,46.5-0.4c0,1.1,0.1,2.2,0.1,3.3
				c-3.1,0.2-6.3,0.6-9.6,0.8C251.9,163,244.9,162.9,238.4,162.2z"/>
			<path style="fill:#4F4143;" d="M221.5,158.8l0,2.8c-4,0.1-8,0.3-12,0.5c-16.8,0.8-32.8,1.3-50.3,1.8c-10.8,0.3-21.6,0.7-32.4,1
				c-19.3,0.6-38.8,1.2-58-1.3c0-0.8,0-1.6,0-2.5c7.3,0.5,14.6,0.5,21.9,0.4c7-0.1,13.9-0.2,20.9-0.2c7.4-0.1,14.8-0.2,22.1-0.3
				c17.9-0.3,35.9-1,53.8-1.4C198.9,159.2,210.2,159,221.5,158.8z"/>
			<path style="fill:#4F4143;" d="M68.6,137.1c24.1,2.7,74.6-2.4,95.5-1.3c6.4,0.3,12.8,1.2,19.2,1.2c4.8,0,9.6-0.9,14.3-1
				c27.8-0.4,44.9-2.3,67.3-0.4c0.9,0.1,1.7,0.1,2.6,0.2c0,0.9,0,1.7,0,2.6c-26.6,1.7-53.4,2.2-80.1,1.8c-9.6-0.2-19.1-0.4-28.7,0.3
				c-4.9,0.4-9.5,0.1-14.3,0.1c-5.3,0-10.8,0.3-16-0.2c-10.4-1-44.8,0.4-59.9,1.1C68.6,139.9,68.6,138.5,68.6,137.1z"/>
		</g>
		<g>
		</g>
	</g>
	<g>
		<g id="XMLID_1_">
			<g>
				<path style="fill:#338728;" d="M271.5,71.5c0.4,2,0.5,3.8,0.5,5.3l-0.6,0c-2.6,0.1-5.1,0.2-7.7,0.4c-3.1,0.2-6.2,0.3-9.2-0.5
					c-2.6-0.7-5.1-2-7.3-3.4l-0.1-0.1c4.1-4.7,7.1-6.5,7.4-6.7c-1.4,0.4-2.7,0.5-4.5,0.4c0.5-1.6,0.5-2.4,7.5-8.4c7-6,14-5,14-5
					C265.5,53.5,269.5,61.5,271.5,71.5z"/>
				<path style="fill:#59B33F;" d="M270.5,114.9c-0.7-0.1-1.4-0.3-2-0.4c-1.4-0.4-2.7-0.8-3.9-1.2c0.6-3,2.3-5.8,4.9-7.5
					c1.1-0.8,2.4-1.4,3.3-2.3c1.2-1.3,1.7-3.1,2.1-4.8c0.6-2.7,1.2-5.3,1.7-8l0.7-1.2c5.5,3.8,13.4,11,14.3,20.2c1,11-1,14-1,14
					C290.5,117.1,278.6,116.5,270.5,114.9z"/>
				<path style="fill:#2C7523;" d="M268.5,115l0-0.4c0.6,0.2,1.3,0.3,2,0.4c3,7.4,0,21.6,0,21.6c-0.3-0.5-0.7-1.1-1.5-1.8
					c-2-1.8-5.9-4-12.5-6.2c-0.7-0.2-1.3-0.5-1.9-0.7l0.1-0.2c2.2-1.9,4.8-3.5,7.5-4.7c1.5-0.6,3-1.2,4-2.5
					C267.4,118.9,267.3,116.6,268.5,115z"/>
				<path style="fill:#26661E;" d="M264.6,113.3c1.2,0.5,2.5,0.9,3.9,1.2l0,0.4c-1.2,1.6-1.1,3.9-2.3,5.5c-1,1.3-2.5,1.8-4,2.5
					c-2.7,1.2-5.2,2.8-7.5,4.7l-0.1,0.2c-7.2-2.9-8.1-6.3-8.1-6.3c2.6-5.3,3.4-9.2,3.5-9.4c0.5-0.2,1-0.3,1.5-0.5
					c2-0.8,3.7-1.8,5.2-3.2C256.9,108.6,259.5,111.2,264.6,113.3z"/>
				<path style="fill:#52A63A;" d="M256.7,108.4c-1.5,1.3-3.3,2.4-5.2,3.2c-0.5,0.2-1,0.4-1.5,0.5c-12.4,4.2-23.8,0.9-28.6-3.2
					c1.2-3.2,1-6.5-1.7-9.5l0,0c0,0,0.7-1.2,1.9-3.1l0.3,0.2c8.6,0.9,17.3,0.4,25.8-1.4c6.3-1.3,12.4-3.4,18.8-4.2
					C265.2,95.6,262.4,103.5,256.7,108.4z"/>
				<path style="fill:#52A63A;" d="M266.5,90.8c0.7-2.6,1-4.3,1-4.3s-2.9-0.8-7.1-1.7v0c1.9-0.4,5.1-0.4,8.6,0.4
					c1.9,0.5,3.8,1.2,5.6,2.2c0.8,0.5,1.7,1.1,2.7,1.8l-0.7,1.2c-0.5,2.7-1,5.4-1.7,8c-0.4,1.7-0.9,3.5-2.1,4.8
					c-0.9,1-2.2,1.6-3.3,2.3c-2.5,1.8-4.3,4.5-4.9,7.5c-5.2-2-7.7-4.7-7.9-4.9C262.4,103.5,265.2,95.6,266.5,90.8z"/>
				<path style="fill:#59B33F;" d="M260.4,84.9c4.2,0.9,7.1,1.7,7.1,1.7s-0.3,1.7-1,4.3c-6.4,0.8-12.5,2.9-18.8,4.2
					c-8.4,1.8-17.2,2.3-25.8,1.4l-0.3-0.2c1.8-2.7,4.7-6.6,8.3-9.6c0.6-0.5,1.3-1,1.9-1.5c0,0,0,0,0,0c2.1-1.4,4.3-2.5,6.7-2.7
					c0.7-0.1,1.4-0.1,2.1-0.1C246.6,82.3,254.7,83.6,260.4,84.9z"/>
				<path style="fill:#95D96F;" d="M250,66.9c1.8,0.1,3.1,0.1,4.5-0.4c-0.3,0.2-3.3,2-7.4,6.7c-1.3,1.5-2.7,3.4-4.2,5.5
					c-0.7-2.5-1.7-5-3.5-6.8c-1.8-1.9-4.5-3.2-7.1-2.8c0.4-0.3,0.9-0.5,1.3-0.8c2-1.1,4.4-1.9,7-1.9C244.9,66.5,247.8,66.8,250,66.9
					z"/>
				<path style="fill:#7CBF58;" d="M228.5,72.1c0.9-0.9,2.2-2,3.7-3c2.6-0.4,5.3,0.9,7.1,2.8c1.8,1.9,2.8,4.3,3.5,6.8
					c-0.8,1.1-1.5,2.3-2.3,3.6v0c-0.8,0-1.5,0.1-2.1,0.1c-2.3,0.2-4.6,1.3-6.7,2.7c-0.1-0.4-1.9-7-5.1-11.2
					C226.9,73.9,227.5,73.1,228.5,72.1z"/>
				<path style="fill:#2C7523;" d="M260.4,84.9c-5.7-1.2-13.8-2.6-19.8-2.5v0c0.8-1.3,1.5-2.5,2.3-3.6c1.5-2.2,2.9-4,4.2-5.5
					l0.1,0.1c2.3,1.4,4.7,2.8,7.3,3.4c3,0.8,6.1,0.6,9.2,0.5c2.6-0.1,5.1-0.2,7.7-0.4l0.6,0c-0.2,6-3.1,8.4-3.1,8.4
					C265.5,84.4,262.3,84.4,260.4,84.9L260.4,84.9z"/>
				<path style="fill:#59B33F;" d="M232.2,69.1c-1.5,1-2.8,2.1-3.7,3c-1.6-1-3.9-2.3-6.2-3.7l0,0c-2.3-3.4-3.8-6.9-3.8-6.9
					c-1.2,0.6-2.5,1.6-3.9,2.8c-1.4-0.7-2.3-1.1-2.6-1.2c-2.8-0.6-5.6-1.3-8.3-1.9l-0.6,0c2.8-2.5,6.1-5.2,8.4-6.6c5-3,11-4,17-2
					s12,2,12,2c-2,2-7,13.9-7,13.9C233.1,68.6,232.7,68.9,232.2,69.1z"/>
				<path style="fill:#95D96F;" d="M226.8,74c3.1,4.2,5,10.8,5.1,11.2c0,0,0,0,0,0c-0.7,0.4-1.3,0.9-1.9,1.5
					c-3.4-1.9-6.6-4.1-9.4-4.2c-2.7,0-5.5,0.7-8,1.6c-3.9,1.4-7.9,2.7-11.8,4.1c0.1-2.6,0.4-6,1.7-9.1c0.5-1.3,1.2-2.6,2.1-3.6
					c3.5-4.2,7-8.4,10.1-11.2c2,1,4.9,2.6,7.6,4.1l0,0c0.9,1.4,2,2.9,3.2,4.1C225.9,72.9,226.4,73.4,226.8,74z"/>
				<path style="fill:#52A63A;" d="M222.3,68.4c2.4,1.3,4.7,2.7,6.2,3.7c-1,1-1.7,1.8-1.8,1.9c-0.4-0.5-0.8-1-1.3-1.5
					C224.3,71.3,223.2,69.9,222.3,68.4z"/>
				<path style="fill:#95D96F;" d="M222.3,68.4c-2.8-1.5-5.6-3.1-7.6-4.1c1.4-1.2,2.7-2.2,3.9-2.8C218.5,61.5,220,65,222.3,68.4z"/>
				<path style="fill:#327D21;" d="M219.7,99.3c2.7,3.1,2.9,6.4,1.7,9.5c-1.5,4.1-5.4,8-9,10.8c-0.6-3.9-1.5-7.7-3.6-11
					c-1.8-2.7-4.2-4.7-6.5-7c-2.2-2.3-4.3-4.9-4.9-8l-0.1-0.4c1.1-0.4,2.3-0.6,3.5-0.7c5.5-0.5,12,1.6,15.7,4
					C217.8,97.4,218.9,98.3,219.7,99.3z"/>
				<path style="fill:#26661E;" d="M210.5,154.5c0,0-4.3-28,0.8-34c0.4-0.3,0.8-0.6,1.1-0.9c3.6-2.8,7.4-6.7,9-10.8
					c4.8,4.2,16.1,7.4,28.6,3.2c-0.1,0.2-0.9,4.1-3.5,9.4c-2.9,6-8.1,13.8-17,20C212.5,153.5,210.5,154.5,210.5,154.5z"/>
				<path style="fill:#388D25;" d="M211.3,120.5c-1.9,1.4-3.6,2.4-4.8,3c-5,2.5-22.8,6.4-28.3,7.6c1.9-2.4,2.7-4.8,2.8-7.5
					c3-6.4,4.6-12.3,6.4-17.5c1.5-4.1,3.2-7.7,6.2-10.6c1.1-1.1,2.4-1.8,3.8-2.3l0.1,0.4c0.5,3.1,2.6,5.8,4.9,8
					c2.2,2.3,4.7,4.3,6.5,7c2.1,3.2,3,7.1,3.6,11C212.1,119.9,211.7,120.2,211.3,120.5z"/>
				<path style="fill:#7CBF58;" d="M216.5,96.5c-3.7-2.5-10.1-4.5-15.7-4l0-0.3c0,0-0.2-1.6-0.1-4c3.9-1.4,7.9-2.7,11.8-4.1
					c2.5-0.9,5.3-1.6,8-1.6c2.8,0,6,2.3,9.4,4.2c-3.5,3-6.5,6.9-8.3,9.6c-1.2,1.8-1.9,3.1-1.9,3.1l0,0
					C218.9,98.3,217.8,97.4,216.5,96.5z"/>
				<path style="fill:#52A63A;" d="M202.4,79.1c0,0,0.1-4.1-2.4-7.9c-0.1-0.2-0.3-0.5-0.5-0.7c-0.8-1.1-1.6-2.5-2.2-4
					c0,0,2.6-2.5,5.8-5.4l0.6,0c2.8,0.6,5.6,1.3,8.3,1.9c0.3,0.1,1.3,0.5,2.6,1.2c-3.2,2.8-6.6,7-10.1,11.2
					C203.6,76.6,202.9,77.8,202.4,79.1L202.4,79.1z"/>
				<path style="fill:#2C7523;" d="M200.7,88.2c-0.1,2.3,0.1,4,0.1,4l0,0.3c-1.2,0.1-2.4,0.3-3.5,0.7c-1.5,0.5-2.8,1.3-3.8,2.3
					c-2.9,2.9-4.7,6.5-6.2,10.6c-3-2.8-5.4-6.2-7-10c0.1-0.3,0.1-0.5,0.1-0.8c1-1,2-1.9,3.1-2.9c6.6-6,12.2-13.2,16.1-21.3l0.2-0.1
					c2.5,3.8,2.4,7.9,2.4,7.9l0,0C201.1,82.2,200.7,85.6,200.7,88.2z"/>
				<path style="fill:#76CA45;" d="M192.5,42.5c3,5,5.1,15,3.6,21c-1-2.7-1.6-5-1.6-5c0,1.2-1.9,4.1-4.4,6.7l-1.1-0.4
					c-2.7-0.1-5.4-1.1-7.5-2.8c-1.5-1.2-2.7-2.8-4.5-3.7c-1.4-0.7-3-0.9-4.6-0.9c-2.7,0-5.5,0.5-8,1.3c-2.1,0.7-4.2,1.7-6.4,2.2
					c1.4-4.2,4.9-12.7,11.4-18.5c9-8,19-9,23-10C192.5,32.5,189.5,37.5,192.5,42.5z"/>
				<path style="fill:#338728;" d="M194.5,58.5c0,0,0.6,2.3,1.6,5c0.3,1,0.8,2,1.2,3c0.7,1.5,1.4,2.9,2.2,4c0.2,0.2,0.3,0.5,0.5,0.7
					l-0.2,0.1c-4,8-9.5,15.3-16.1,21.3c-1,0.9-2.1,1.8-3.1,2.9c1-6.4-0.4-12.5-2.4-16.9c0.2-0.3,3.5-6,7.4-8.9
					c1.5-1.1,3.1-2.7,4.6-4.3C192.6,62.6,194.5,59.8,194.5,58.5z"/>
				<path style="fill:#6CC24E;" d="M189,64.9l1.1,0.4c-1.5,1.6-3.1,3.1-4.6,4.3c-3.9,2.9-7.2,8.6-7.4,8.9c-1.2-2.8-2.6-4.9-3.6-5.9
					c-3-3-5-9-5-9c-1.4,1.4-6.4,4.9-11.4,9.7l0,0c0,0,0.6-4-0.8-9.7c0-0.1,0.3-1,0.8-2.5c2.2-0.5,4.3-1.5,6.4-2.2
					c2.6-0.9,5.3-1.3,8-1.3c1.6,0,3.2,0.2,4.6,0.9c1.7,0.9,3,2.5,4.5,3.7C183.6,63.8,186.3,64.8,189,64.9z"/>
				<path style="fill:#26661E;" d="M180.5,117.5c-0.6-3.8-2.3-7-4.8-9.3c0.8-1,1.9-3.3,3.8-8.7c0.4-1.1,0.7-2.2,0.9-3.3
					c1.6,3.8,4,7.2,7,10c-1.8,5.1-3.4,11-6.4,17.5C181,121.7,180.8,119.7,180.5,117.5z"/>
				<path style="fill:#59B33F;" d="M179.2,93c-0.8-2.3-2.2-4.5-4.2-6c-0.4-0.3-0.9-0.7-1.5-0.8c-0.6-0.1-1.2,0.1-1.8,0.3
					c-8.4,2.7-15.7,8.2-22.7,13.5c-0.4,0.3-0.7,0.6-1,0.9c-0.4-0.6-0.9-1.1-1.4-1.7c0,0-0.2-11.7,5.8-19.7c1.7-2.3,3.7-4.4,5.6-6.3
					c4.9-4.8,9.9-8.3,11.4-9.7c0,0,2,6,5,9c1,1,2.4,3.1,3.6,5.9c1.9,4.4,3.4,10.5,2.4,16.9c-0.1,0.1-0.2,0.2-0.3,0.3
					C179.8,94.8,179.5,93.9,179.2,93z"/>
				<path style="fill:#388D25;" d="M181,123.6c-0.1,2.7-0.8,5.2-2.8,7.5c-1.1,0.2-1.7,0.4-1.7,0.4
					C178.3,128.8,179.8,126.2,181,123.6z"/>
				<path style="fill:#8AD561;" d="M157.3,63.5c1.5,5.7,0.8,9.7,0.8,9.7l0,0c-2,1.9-3.9,4-5.6,6.3c-6,8-5.8,19.7-5.8,19.7
					c-1.9-1.8-4.4-3.2-7-4.2c-2.8-1.1-5.8-1.7-8.6-2c-0.2,0-0.4,0-0.5-0.1l0-0.4c0,0-0.8-5.9-3.9-11.6c-0.3-0.6-0.6-1.2-1-1.7
					c1.2-6.2,6-16.4,10.2-24.5c3.5-6.8,6.6-12.1,6.6-12.1s5,2,11,12C155.4,57.7,156.6,60.8,157.3,63.5z"/>
				<path style="fill:#328626;" d="M176,133.4c-2.7-5.7-4.1-11.9-4-18.2c0-0.6,0-1.2-0.2-1.8c-0.4-1-1.6-1.5-2.6-1.8
					c-6.1-2-12.7-2.8-19.1-2.3l0,0c0.2-0.2,0.3-0.5,0.5-0.7c0,0,8-6,18-4c2.7,0.5,5.2,1.8,7.2,3.7c2.4,2.3,4.2,5.5,4.8,9.3
					c0.3,2.2,0.5,4.2,0.4,6.1c-1.2,2.6-2.6,5.2-4.4,7.9c0,0,0.6-0.1,1.7-0.4C177.6,131.9,176.9,132.6,176,133.4z"/>
				<path style="fill:#66B74A;" d="M148.1,100.9c1.6,2.2,2.4,4.8,1.9,8.1c0,0,0,0.1,0,0.2v0c-2.1,3-3.2,5.9-3.7,8.6
					c-1.5,1.7-3.6,3.3-6.6,4.2c4.6-9.7,1.9-18.4-0.1-27.1c2.7,1,5.2,2.4,7,4.2C147.2,99.8,147.7,100.3,148.1,100.9z"/>
				<path style="fill:#52A63A;" d="M180.2,95.7c0.1,0.2,0.1,0.3,0.2,0.4c-0.2,1.1-0.5,2.2-0.9,3.3c-1.8,5.4-3,7.8-3.8,8.7
					c-2-1.9-4.5-3.2-7.2-3.7c-10-2-18,4-18,4c-0.2,0.2-0.4,0.5-0.5,0.7h0c0-0.1,0-0.2,0-0.2c0.5-3.3-0.3-5.9-1.9-8.1
					c0.2-0.4,0.6-0.7,1-0.9c7.1-5.3,14.3-10.8,22.7-13.5c0.6-0.2,1.2-0.4,1.8-0.3c0.6,0.1,1,0.4,1.5,0.8c1.9,1.6,3.4,3.7,4.2,6
					C179.5,93.9,179.8,94.8,180.2,95.7z"/>
				<path style="fill:#388D25;" d="M150,109.2L150,109.2L150,109.2L150,109.2c6.5-0.5,13,0.3,19.1,2.3c1,0.3,2.2,0.8,2.6,1.8
					c0.2,0.6,0.2,1.2,0.2,1.8c0,6.3,1.4,12.5,4,18.2c-0.5,0.4-0.9,0.8-1.5,1.2c-7,5-15,10-18,16c0,0,0-6-4-13
					c-1.3-2.3-2.9-4.9-4.2-7.8c-1.6-3.5-2.6-7.5-2-11.8C149.4,114.4,149.9,110.2,150,109.2z"/>
				<path style="fill:#388D25;" d="M150,109.2c-0.1,1-0.6,5.2-3.7,8.6C146.7,115.1,147.9,112.2,150,109.2z"/>
				<path style="fill:#2E7A23;" d="M139.7,122.1L139.7,122.1c3-0.9,5.1-2.5,6.6-4.2c-0.7,4.3,0.4,8.3,2,11.8
					c-0.5,0.9-1.1,1.7-1.8,2.6c-3.4,0.6-6.9,0.3-10.2-1c-0.7-0.3-1.4-0.6-1.7-1.3c-0.2-0.4-0.2-0.9-0.2-1.4c0-1.8,0-3.7,0.1-5.5V123
					C136.4,122.9,138.2,122.6,139.7,122.1z"/>
				<path style="fill:#76CA45;" d="M94.5,111.4c-0.2-0.1-0.4-0.3-0.5-0.4c0,0,6.3-1.9,10.4-4.7c1-0.7,2-1.5,2.6-2.3
					c1.2-1.7,3.6-4,6.8-6.2c4.4-3,10.2-5.5,16.7-4.9c0.2,0,0.4,0,0.5,0.1c2.8,0.3,5.8,0.9,8.6,2c2,8.7,4.7,17.4,0.1,27.1h0
					c-1.5,0.5-3.3,0.8-5.3,0.9c-0.1,0-0.3,0-0.4,0c-1.2,0-2.5,0-3.8-0.1c0,0,0,0,0,0c-1.4-0.1-2.9-0.2-4.5-0.4
					c-6.5-0.8-13.7-2.7-20.1-5.2c-1.6-0.6-3.1-1.3-4.5-2C98.6,114.1,96.4,112.8,94.5,111.4z"/>
				<path style="fill:#52A63A;" d="M135.9,54.6c-4.2,8.1-9.1,18.3-10.2,24.5c-1.6-2.5-3.6-4.9-6.1-6.6c-2.6-1.7-4.7-3.1-6.4-4.4
					c2.3-1.3,4.5-3,6.4-4.6c4.2-3.5,7.9-8.3,11.7-12.2l0.1-0.1C133.1,52.2,134.6,53.4,135.9,54.6z"/>
				<path style="fill:#338727;" d="M130.2,122.9c1.3,0.1,2.6,0.1,3.8,0.1c0.1,0,0.3,0,0.4,0v0.1c0,1.8,0,3.7-0.1,5.5
					c0,0.5,0,1,0.2,1.4c0.3,0.7,1,1,1.7,1.3c3.2,1.3,6.8,1.6,10.2,1c-1.1,1.3-2.6,2.8-4.9,5.2c-4,4-17,7-17,7s5-6,4-13
					C127.5,124.7,130.1,123,130.2,122.9C130.2,122.9,130.2,122.9,130.2,122.9z"/>
				<path style="fill:#328626;" d="M130.5,92.5l0,0.4c-6.4-0.6-12.3,1.9-16.7,4.9c-1-1.8-2.8-2.9-4.4-4.2c0.5-0.5,1.1-1,1.6-1.6
					c4.6-4.3,9.3-8.7,15.1-11l0.5-0.2C129.7,86.6,130.5,92.5,130.5,92.5z"/>
				<path style="fill:#52A63A;" d="M125.7,122.5l-0.1,0.5c-5.3,5.7-11.9,11.2-19.1,15.4l-0.3-0.5c-2.8-1.5-4.8-4.6-5-7.8
					c-0.2-3.2,2.6-10.2,4.2-11.5l0.1-1.2C112,119.8,119.2,121.7,125.7,122.5z"/>
				<path style="fill:#388D25;" d="M126.2,81.1c-5.9,2.2-10.6,6.7-15.1,11c-0.5,0.5-1.1,1-1.6,1.6c-0.8-0.7-1.5-1.4-2.1-2.3
					c-0.9-1.6-1.1-3.5-2-5.1c-0.8-1.4-2.2-2.3-3.1-3.7c-0.4-0.6-0.8-1.3-1-2c0.1-1.7,0.3-3.2,0.6-4.7c0.2-0.8,0.4-1.7,0.6-2.4
					c0.2-0.7,0.4-1.4,0.5-2.1c3.4,0,6.8-1.4,10-3.3c1.7,1.3,3.8,2.7,6.4,4.4c2.6,1.7,4.6,4.1,6.1,6.6c0.3,0.6,0.7,1.2,1,1.7
					L126.2,81.1z"/>
				<path style="fill:#328626;" d="M109.4,93.6c1.6,1.3,3.4,2.4,4.4,4.2c-3.2,2.1-5.5,4.5-6.8,6.2c-0.6,0.8-1.5,1.6-2.6,2.3
					c-0.5-1.8-0.9-3.6-1.3-5.3C104.8,98.2,107,95.9,109.4,93.6z"/>
				<path style="fill:#388D25;" d="M104.5,58.5c2.1,4.3,4.3,6.5,8.6,9.6c-3.2,1.9-6.7,3.3-10,3.3C104.5,65,104.5,58.5,104.5,58.5z"
					/>
				<path style="fill:#388D25;" d="M102.5,97.6c-0.8-4.2-1.2-8.1-1.3-11.4c-0.1-2,0-3.8,0.1-5.5c0.2,0.7,0.5,1.4,1,2
					c0.9,1.3,2.2,2.3,3.1,3.7c0.9,1.6,1.1,3.5,2,5.1c0.5,0.9,1.2,1.6,2.1,2.3c-2.3,2.2-4.6,4.6-6.2,7.4
					C102.9,99.8,102.7,98.7,102.5,97.6z"/>
				<path style="fill:#52A63A;" d="M98.5,70.5c1.5,0.6,3,0.9,4.5,0.9c-0.2,0.7-0.3,1.4-0.5,2.1c-0.2,0.8-0.4,1.6-0.6,2.4
					c0,0-2.2-1.9-3.8-5.2c0,0,0,0,0,0c0,0,0-0.1,0-0.1L98.5,70.5z"/>
				<path style="fill:#76CA45;" d="M101.3,80.6c-0.1,1.7-0.2,3.6-0.1,5.5h0c-4,1-4.6,3.9-14.4,4.3c-6.8-2.6-12.9-7.3-17.1-13.3
					l-0.1,0c-0.2-1.6-0.5-3.2-1.1-4.6c-2-5-8-10-8-10s15-1,25,2c9.7,2.9,12.5,6.1,12.7,6.2c0,0,0,0,0,0c1.5,3.2,3.8,5.2,3.8,5.2
					C101.6,77.4,101.4,78.9,101.3,80.6z"/>
				<path style="fill:#59B33F;" d="M98.4,116.4l2.1,0.2c-0.3,3-1.2,5.9-2.6,8.6c-1.7,3.2-4,6-5.9,9.1c-1.9,3.1-3.4,6.6-3.1,10.2
					l0.2,0.6c-10.7,2.5-12.1,3-6.5-2.6c0.7-0.7,1.2-1.3,1.7-2c4.1-5.5,3.4-11.5,4.3-16c0.2-1.2,1.1-2.3,2.2-3.4
					C92.9,119.1,96.1,117.5,98.4,116.4z"/>
				<path style="fill:#59B33F;" d="M98.1,70.7c-1.2-2.7-2-6.2-0.6-10.2c3-9,4-15-2-18c0,0,23.4,1.7,35.8,8.7l-0.1,0.1
					c-3.8,3.9-7.5,8.7-11.7,12.2c-2,1.6-4.1,3.3-6.4,4.6c-4.3-3.1-6.4-5.3-8.6-9.6c0,0,0,6.5-1.5,12.9c-1.5,0-3.1-0.3-4.5-0.9
					L98.1,70.7z"/>
				<path style="fill:#7CBF58;" d="M94.5,111.4c-0.5,0.5-1,1.1-1.4,1.7c0,0,0,0.1-0.1,0.1c2.1-5.6-0.2-11.2-0.9-12.3
					c-0.8-1.4-2.1-2.6-3.3-3.7c-2.1-1.9-6.2-4.8-8.4-6.8v-0.2c1.2,0,2.6,0.1,4,0.2c10,1,17.9,7.1,17.9,7.1c0.2,1.1,0.4,2.2,0.7,3.4
					c0.4,1.7,0.8,3.5,1.3,5.3C100.3,109.1,94,111,94,111C94.2,111.1,94.4,111.3,94.5,111.4z"/>
				<path style="fill:#59B33F;" d="M91.5,144.5c-0.9,0.2-1.7,0.4-2.5,0.6l-0.2-0.6c-0.3-3.6,1.2-7.1,3.1-10.2
					c1.9-3.1,4.3-5.9,5.9-9.1c1.4-2.7,2.3-5.6,2.6-8.6l-2.1-0.2c1.6-0.7,2.7-1.1,2.7-1.1c1.4,0.7,2.9,1.4,4.5,2l-0.1,1.2
					c-1.6,1.3-4.5,8.3-4.2,11.5c0.2,3.2,2.2,6.3,5,7.8l0.3,0.5C101.8,141.2,96.7,143.3,91.5,144.5z"/>
				<path style="fill:#66B74A;" d="M86.8,90.5c9.8-0.4,10.4-3.3,14.4-4.3h0c0.1,3.4,0.5,7.2,1.3,11.4c0,0-7.9-6.1-17.9-7.1
					C85.3,90.5,86.1,90.5,86.8,90.5z"/>
				<path style="fill:#7CBF58;" d="M93.1,113.2C93.1,113.2,93.1,113.2,93.1,113.2c0.5-0.7,0.9-1.3,1.5-1.8c1.9,1.4,4.1,2.7,6.6,3.9
					c0,0-1.1,0.4-2.7,1.1c-2.3,1-5.5,2.7-7.7,4.7c-5,0.8-8.8,0.9-11.8,0.4C84.5,120.8,89.7,117.8,93.1,113.2z"/>
				<path style="fill:#95D96F;" d="M80.5,90.5c2.1,1.9,6.2,4.8,8.4,6.8c1.2,1.1,2.5,2.2,3.3,3.7c0.7,1.1,3,6.7,0.9,12.3
					c-3.3,4.5-8.6,7.6-14.1,8.3c-3.6-0.6-6-1.8-8-3.4c-1.6-1.2-2.9-2.5-4.4-3.6c-5-4-17-5-17-5c4-1,8-6,14-12
					c3.8-3.8,7.1-6,11.6-6.8c1.6-0.3,3.4-0.5,5.4-0.4V90.5z"/>
				<path style="fill:#328626;" d="M88.5,124.5c-0.9,4.4-0.2,10.5-4.3,16c0,0-0.4,0.1-1.1,0.4l0-0.1c-3.9-3.5-9.6-3.4-14.6-4.9
					c-0.3-0.1-0.7-0.2-0.9-0.5c-0.2-0.3-0.1-0.7-0.1-1c0.5-2.8,2.6-4.9,4.6-6.8c1.6-1.6,3.1-6.6,5.3-6l0,0.1c0.5,0,0.9-0.1,1.4-0.1
					c3,0.5,6.8,0.4,11.8-0.4C89.6,122.2,88.7,123.3,88.5,124.5z"/>
				<path style="fill:#388D25;" d="M70.9,118.2c2,1.5,4.4,2.8,8,3.4c-0.5,0.1-0.9,0.1-1.4,0.1l0-0.1c-2.2-0.6-3.7,4.4-5.3,6
					c-2,2-4.1,4.1-4.6,6.8c-0.1,0.3-0.1,0.7,0.1,1c0.2,0.3,0.5,0.4,0.9,0.5c5,1.4,10.7,1.4,14.6,4.9l0,0.1c-2.1,0.7-7,2.3-12.8,3.2
					c-0.9,0.2-1.9,0.3-2.9,0.4c-9,1-18-1-18-1c5-3,9-8,12-17C64.5,117.5,70.9,118.2,70.9,118.2L70.9,118.2z"/>
				<path style="fill:#66B74A;" d="M69.7,77.1c4.2,6,10.3,10.7,17.1,13.3c-0.7,0-1.5,0.1-2.3,0.1c-1.4-0.1-2.8-0.2-4-0.2
					c-2,0-3.8,0.1-5.4,0.4v0C70.5,85.8,70.1,81.2,69.7,77.1L69.7,77.1z"/>
			</g>
			<g>
			</g>
		</g>
	</g>
</g>
</svg>
