<svg viewBox="0 0 276 198" fill="none" xmlns="http://www.w3.org/2000/svg">
<path d="M147.4 114.1C161.2 107.4 169 108.3 173.3 109.1C173.3 109.1 163.8 110.8 157.7 113.3C151.8 115.7 136.5 126.6 135.5 127.3H135.4C131.9 129.5 129.2 132.9 129 133.1C129.2 131.3 129.3 128.9 128.8 126C128.8 126 130.6 123.9 135.4 120.7C137.7 119.2 140.6 117.4 144.3 115.5C145.4 115.1 146.3 114.6 147.4 114.1Z" fill="#26661E"/>
<path d="M141.4 130.2C138.5 132.5 136.7 135.6 136.3 136.4C136.2 136.5 136.2 136.6 136.2 136.6H128.4C128.5 136.4 128.9 135.2 129.2 133.2C129.4 132.9 132 129.6 135.6 127.4C135.6 127.4 135.6 127.4 135.7 127.4C136.7 126.8 137.8 126.2 138.8 125.9C144 124.2 151.8 121.7 160.4 123.4C168.8 125 173.9 130.5 174.2 130.9C173.7 130.6 165.4 125.9 159.5 125.9C153.4 125.9 147.4 126.7 143.1 129.2C142.4 129.4 141.9 129.8 141.4 130.2Z" fill="#52A63A"/>
<path d="M165.5 79.2C165.1 79.6 159.3 86.9 155.1 94.2C150.8 101.7 145 111.2 144.4 115.6C140.7 117.5 137.7 119.3 135.5 120.8C135.5 120.8 136.4 117.3 137.6 111.8C137.6 111.8 144.7 100.9 148.2 96.7C151.7 92.5 162 81.7 165.5 79.2Z" fill="#59B33F"/>
<path d="M150.4 131.6C159.3 132 162.8 141.3 163 141.9C162.8 141.4 159.7 135.3 153.1 134.2C146.2 133.1 143.9 134.2 142.8 136.4H137.3C137.2 136.4 141.2 131.3 150.4 131.6Z" fill="#26661E"/>
<path d="M140.7 46.4C141.5 48.3 143.7 55.4 143 73.3C142.5 87 139.6 102.3 137.6 111.7C136.4 117.2 135.5 120.7 135.5 120.7C130.7 123.9 128.9 126 128.9 126C128.7 124.8 128.4 123.5 127.9 122.1C127.9 122.1 129.4 116 130.9 109.2C132.4 102.9 133.9 96.1 134.3 93.2C135.2 87.7 142.4 52.2 140.7 46.4Z" fill="#388D25"/>
<path d="M136.2 136.4C136.7 135.6 138.5 132.5 141.3 130.2C141.9 129.9 147.6 127.3 153.4 130.1C159.5 133 162.6 138.2 163 141.9C162.8 141.3 159.3 132 150.4 131.6C141.2 131.2 137.2 136.4 137.2 136.4H136.2Z" fill="#2C7523"/>
<path d="M128.9 126.1C129.4 129 129.3 131.4 129.1 133.2L128.3 136.6H124.6C127 123.8 120.1 113.8 111.9 106.7C111.2 104.7 110.5 102.8 109.7 101C111.8 102.2 113.9 103.5 115.9 105.1C118.6 107.2 121.1 109.7 123 112.5C124.2 114.2 125.1 115.9 125.9 117.4V117.5C126.7 119.2 127.3 120.7 127.8 122.2C128.4 123.5 128.7 124.9 128.9 126.1Z" fill="#59B33F"/>
<path d="M128.3 136.6L129.1 133.2C128.9 135.2 128.4 136.4 128.3 136.6Z" fill="#52A63A"/>
<path d="M112 106.7C120.2 113.8 127.1 123.8 124.7 136.6H122.1C122.1 136.6 121.1 135.4 119.4 133.7C119.7 133 120 132.2 120.2 131.3C120.7 128.6 120.4 124.7 117.9 119.2C116.8 116.9 115.3 114.6 113.6 112.5C113.1 110.4 112.6 108.5 112 106.7Z" fill="#388D25"/>
<path d="M122.1 136.6H117.1C117.1 136.6 118.5 135.8 119.5 133.7C121.1 135.4 122.1 136.6 122.1 136.6Z" fill="#52A63A"/>
<path d="M119.4 133.6C116.7 130.7 112.3 126.5 108 124.3C104.2 116.2 91 109.9 91 109.9C99.9 110.6 105.6 114.3 110.1 118.4C111.3 119.5 112.4 120.5 113.5 121.6C114.2 122.3 114.8 123 115.4 123.6C119 127.8 120.1 131.2 120.1 131.2C120 132.2 119.8 133 119.4 133.6Z" fill="#59B33F"/>
<path d="M117.9 119.1C120.4 124.6 120.7 128.5 120.2 131.2C120.2 131.2 119.1 127.8 115.5 123.6C115.2 119.7 114.5 115.9 113.6 112.4C115.4 114.5 116.9 116.8 117.9 119.1Z" fill="#2C7523"/>
<path d="M112.8 53.3C112.8 53.3 118.9 75.8 122.3 84.9C125.8 94.1 131 109.2 131 109.2C129.4 116 128 122.1 128 122.1C127.5 120.6 126.9 119 126.1 117.4C126.1 117.4 126.1 117.4 126.1 117.3C125.8 116.2 120.5 98.6 118 86.5C115.3 74.1 112.8 56.7 112.8 53.3Z" fill="#52A63A"/>
<path d="M113.6 112.4C114.5 116 115.2 119.7 115.5 123.6C114.9 123 114.3 122.3 113.6 121.6C112.5 120.6 111.4 119.5 110.2 118.4C110.2 118.4 110.2 114.1 107.6 106.1C109.8 108 111.8 110.1 113.6 112.4Z" fill="#26661E"/>
<path d="M112 106.7C112.6 108.6 113.2 110.5 113.7 112.4C111.9 110.2 109.8 108.1 107.7 106.1C107.3 104.9 106.9 103.7 106.4 102.3C108.2 103.6 110.1 105 112 106.7Z" fill="#388D25"/>
<path d="M109.8 101C110.6 102.8 111.3 104.7 112 106.7C110.1 105.1 108.2 103.6 106.3 102.3C105.9 101.1 105.4 99.8 104.8 98.5C106.4 99.2 108.1 100 109.8 101Z" fill="#59B33F"/>
<path d="M108.9 130.2C108.9 130.1 108.8 130.1 108.8 130.1L108.9 130.2Z" fill="#52A63A"/>
<path d="M106.3 102.3C99.3 97.4 92.7 94.7 91.4 94.2C92.6 94.4 98.3 95.7 104.8 98.5C105.4 99.8 105.9 101.1 106.3 102.3Z" fill="#59B33F"/>
<path d="M91.4 94.2C92.7 94.7 99.3 97.4 106.3 102.3C106.8 103.6 107.2 104.9 107.6 106.1C99.8 99 91.1 94.2 91.1 94.2C91.1 94.2 91.2 94.1 91.4 94.2Z" fill="#388D25"/>
<path d="M92.5 74.1C94.8 76.6 103.7 86.5 109.8 101C108.1 100.1 106.4 99.3 104.8 98.6C104.3 97.5 103.8 96.3 103.2 95.1C97.7 82.9 93.8 76.2 92.5 74.1Z" fill="#26661E"/>
<path d="M92 73.3C92.6 73.8 111.6 90.3 116 105C114 103.4 111.9 102.1 109.8 100.9C103.7 86.5 94.8 76.5 92.5 74C92.2 73.6 92 73.4 92 73.3Z" fill="#2C7523"/>
<path d="M85.9 134.1C87.6 130.8 90.2 128.3 96.3 127.4C102.1 126.6 108.2 129.7 108.7 130C108.8 130 108.8 130.1 108.8 130.1L112.5 134H107.5C103.2 130.7 101.4 129.8 95.4 130.7C89.6 131.6 86.2 133.9 85.9 134.1Z" fill="#26661E"/>
<path d="M108.1 124.4C112.3 126.6 116.7 130.8 119.5 133.7C118.5 135.8 117.1 136.6 117.1 136.6C98.2 113.1 74 116.1 71.5 116.5C72.4 116.2 76 115.1 83.4 115.8C92 116.6 100.7 120.8 107.6 124.1C107.7 124.2 107.9 124.3 108.1 124.4Z" fill="#52A63A"/>
<path d="M108.8 130C108.2 129.4 107.5 128.8 106.7 128.2C102.4 124.9 94.6 121.5 87.7 119C80.8 116.5 71.3 116.5 71.3 116.5C71.3 116.5 71.4 116.5 71.5 116.4C74 116 98.2 112.9 117.1 136.5H114.5C114.5 136.5 112.2 133.1 108.9 130.1L108.8 130C108.8 130.1 108.8 130.1 108.8 130Z" fill="#388D25"/>
<path d="M244.3 42C242.4 45.2 236.8 55.3 228.6 73.6C227.8 75.4 227 77.2 226.3 78.9C223.9 80 221.5 81.2 219.1 82.6C228 60.8 241 45.6 244.3 42Z" fill="#4FA183"/>
<path d="M274.8 106.2C271.1 105.6 235.9 101 208.5 136.5C208.5 136.5 206.5 135.3 205 132.1C209 127.8 215.4 121.4 221.5 118.1C221.7 118 222 117.8 222.3 117.7C232.4 112.7 244.9 106.4 257.5 105.1C268.2 104 273.5 105.6 274.8 106.2Z" fill="#21B56F"/>
<path d="M246.3 96.2C246.3 96.2 227.2 105.8 221.7 118C215.5 121.3 209.1 127.7 205.2 132C204.7 131 204.3 129.7 204.1 128.3C204.1 128.3 205.6 123.1 210.9 116.8C211.7 115.8 212.7 114.8 213.7 113.8C215.3 112.2 216.9 110.6 218.6 109C225.1 103 233.3 97.2 246.3 96.2Z" fill="#3CB085"/>
<path d="M244.3 42C241 45.6 228 60.7 219.1 82.6C216 84.4 212.9 86.4 210 88.8C216.4 66.6 244.1 41.7 244.9 40.9C244.9 41 244.7 41.4 244.3 42C244.4 42 244.4 42 244.3 42Z" fill="#56C993"/>
<path d="M224.2 84.7C234.7 77.2 244.5 73 246 72.4C246.1 72.4 246.1 72.4 246.2 72.4C245.6 72.7 233.3 80 222.2 90.5C222.8 88.6 223.5 86.7 224.2 84.7Z" fill="#52BFA0"/>
<path d="M226.4 79C236.1 74.6 244.5 72.8 246 72.4C244.5 73 234.6 77.2 224.2 84.7C224.8 82.9 225.6 81 226.4 79Z" fill="#86DBBD"/>
<path d="M226.4 79C225.6 81 224.9 82.9 224.2 84.7C221.5 86.7 218.7 88.9 216 91.3C217 88.3 218 85.4 219.2 82.7C221.6 81.2 224 80 226.4 79Z" fill="#86DBBD"/>
<path d="M224.2 84.7C223.5 86.7 222.8 88.6 222.3 90.4C219.2 93.3 216.2 96.5 213.6 99.9C214.3 97 215.1 94.1 216 91.3C218.7 88.8 221.5 86.6 224.2 84.7Z" fill="#52BFA0"/>
<path d="M220.6 126.6C221.1 126.3 230.2 121.4 238.7 122.6C247.5 123.9 251.3 127.6 253.8 132.7C253.5 132.5 248.5 128.9 240 127.7C231.2 126.5 228.7 127.7 222.4 132.7H215.1L220.6 126.6Z" fill="#1E8A58"/>
<path d="M222.3 90.4C218.6 102.5 218.5 109 218.5 109C216.8 110.6 215.1 112.2 213.6 113.8C212.6 114.8 211.7 115.8 210.8 116.8C211.3 110.9 212.2 105.2 213.5 99.8C216.2 96.5 219.2 93.3 222.3 90.4Z" fill="#4FA183"/>
<path d="M210 88.8C212.9 86.5 216 84.4 219.1 82.6C218 85.4 216.9 88.3 215.9 91.2C204 101.9 193.9 117.1 197.4 136.4H192.1L190.9 131.2C190.6 128.5 190.5 124.9 191.2 120.5C191.5 118.7 192 116.7 192.6 114.6C193.3 112.4 194.2 110 195.4 107.5C196.5 105.1 197.9 102.6 199.6 100C202.5 95.7 206.1 92 210 88.8Z" fill="#86DBBD"/>
<path d="M251.3 110.1C241.2 113.9 229.9 118.9 223.6 123.9C222.5 124.7 221.5 125.7 220.6 126.6C218.5 128.7 216.6 130.8 215.2 132.6C213.5 134.8 212.4 136.4 212.4 136.4H208.6C236 100.9 271.2 105.5 274.9 106.1C275.1 106.2 275.2 106.3 275.2 106.3C275.2 106.3 261.4 106.3 251.3 110.1Z" fill="#1DA163"/>
<path d="M216 91.3C215.1 94.1 214.3 97 213.6 99.9C211 103.2 208.9 106.6 207.3 110.1C203.7 118.3 203.2 124.2 204 128.4C204.2 129.9 204.7 131.1 205.1 132.1C202.7 134.7 201.3 136.5 201.3 136.5H197.6C194 117.1 204.1 102 216 91.3Z" fill="#52BFA0"/>
<path d="M201 58.5C206 44.7 214.8 10.7 214.8 10.7C214.8 15.7 211 42.1 207.3 61C203.6 79.6 195.8 106.7 195.5 107.5C194.3 110 193.4 112.4 192.7 114.6C192.7 114.6 190.5 105.3 188.3 95.1C188.5 94.6 196 72.2 201 58.5Z" fill="#21B56F"/>
<path d="M213.5 99.9C212.2 105.3 211.2 111 210.8 116.9C205.5 123.2 204 128.4 204 128.4C203.3 124.3 203.7 118.4 207.3 110.1C208.8 106.6 211 103.2 213.5 99.9Z" fill="#56C993"/>
<path d="M208.5 136.5H201.2C201.2 136.5 202.7 134.7 205 132.1C206.5 135.2 208.5 136.5 208.5 136.5Z" fill="#21B56F"/>
<path d="M125.5 127.7C125.5 127.7 133 118.9 145.6 116.4C155.8 114.4 165.2 116.5 172.4 118.7C174.1 119.2 175.6 119.7 177 120.2C178.6 120.7 180.1 121.5 181.5 122.4C181.5 122.4 181.6 122.4 181.6 122.5C187 126 190.9 131.4 190.9 131.4C191.3 134.7 192.1 136.6 192.1 136.6H180.8C180.8 136.6 180.8 136.5 180.7 136.3C180.1 135.1 177.4 130.5 173.3 127C172.5 126.4 171.7 125.8 170.8 125.2C164.5 121.4 155.7 120.2 146.9 120.2C138.1 120.1 125.5 127.7 125.5 127.7Z" fill="#3CB085"/>
<path d="M191.3 120.6C190.6 125 190.6 128.6 191 131.3C191 131.3 187 125.9 181.7 122.4C181.7 122.4 181.6 122.4 181.6 122.3C180.8 121.7 177 118.9 172.2 115.5C171.7 112.2 170.6 108.6 169.3 104.9C174.4 107.7 178.5 110.2 181.7 112.4C184.1 114 185.9 115.5 187.4 116.7C190.2 119.2 191.3 120.6 191.3 120.6Z" fill="#1E8A58"/>
<path d="M178.6 98.9C180.3 107 181.6 112.2 181.6 112.5C178.4 110.3 174.3 107.7 169.2 105C165 93.2 157.6 80.4 153.1 72.3C147 61.3 138.5 50.4 138 49.7C143.1 53.5 158.1 69.8 163.1 76.1C168.3 82.4 178.6 98.9 178.6 98.9Z" fill="#52BFA0"/>
<path d="M181.6 122.4C180.2 121.5 178.7 120.7 177.1 120.2C175.7 119.7 174.1 119.2 172.5 118.7L172.6 118.6C172.5 117.6 172.4 116.7 172.2 115.7C177 119 180.8 121.8 181.6 122.4Z" fill="#52BFA0"/>
<path d="M173.9 2.3C172.9 15.3 182.3 63.1 183.4 71.1C184 75.3 186.2 85.7 188.3 95.2C190.6 105.4 192.7 114.7 192.7 114.7C192.1 116.8 191.6 118.8 191.3 120.6C191.3 120.6 190.1 119.2 187.3 116.9C187.1 116.4 181.6 100 175.6 57.3C171 24.6 172.8 8.3 173.9 2.3Z" fill="#3CB085"/>
<path d="M173.9 2.3C172.8 8.3 171.1 24.6 175.7 57.3C181.7 100 187.2 116.4 187.4 116.9C186 115.7 184.1 114.2 181.7 112.6C181.6 112.3 180.3 107.1 178.7 99C175.8 84.8 171.7 61.6 170.9 41C169.9 13.8 173.2 3.1 174.3 0.299999C174 0.699999 173.9 1.4 173.9 2.3Z" fill="#429C72"/>
<path d="M141.8 144.5C142.4 138.9 146.8 131.2 155.7 126.8C164.4 122.4 172.9 126.8 173.3 126.9C177.5 130.3 180.1 135 180.7 136.2H180.6H179.2C179.2 136.2 173.4 128.4 160.1 129C147.2 129.5 142.1 143.6 141.8 144.5Z" fill="#52BFA0"/>
<path d="M141.8 144.5C142.1 143.6 147.2 129.5 160.1 129C173.4 128.4 179.2 136.2 179.2 136.2H171.2C169.5 132.9 166.2 131.2 156.2 132.9C146.5 134.5 142.1 143.9 141.8 144.5Z" fill="#4FA183"/>
<path d="M126.8 95C133.1 93.8 144.4 92.5 164.5 102.6C166.2 103.4 167.8 104.3 169.3 105.1C170.6 108.8 171.7 112.4 172.2 115.7C164.7 110.4 154.6 103.6 149.5 101.4C140.6 97.5 126.8 95 126.8 95Z" fill="#1E8A58"/>
<path d="M223.4 192.9C223.5 193.7 222.9 194.3 222.2 194.3L144 194.5C133.6 194.5 123.2 194.5 112.9 194.9C83.3 195.9 53.6 199.7 24.2 196.5C23.5 196.4 23.1 195.9 23.1 195.2C23.1 190.8 23.1 184 23 176.4C42.2 178.9 61.7 178.3 81 177.7C91.8 177.4 102.6 177 113.4 176.7C130.9 176.2 146.9 175.7 163.7 174.9C167.7 174.7 171.7 174.5 175.7 174.4C181.3 174.3 186.9 174.4 192.5 175C199 175.8 206.1 175.8 212.6 175.3C215.9 175.1 219.1 174.7 222.2 174.5C222.4 181.4 222.8 187.7 223.4 192.9Z" fill="#C47855"/>
<path d="M221.6 151.1C221.7 157.7 221.8 164.6 222 171.2C206.5 171.2 191 171.3 175.5 171.6C164.2 171.8 152.8 172 141.5 172.3C123.6 172.8 105.7 173.4 87.7 173.7C80.3 173.8 72.9 173.9 65.6 174C58.6 174.1 51.7 174.1 44.7 174.2C37.4 174.3 30.1 174.4 22.8 173.8C22.7 167.3 22.6 160.4 22.6 154C37.7 153.3 72.1 151.9 82.5 152.9C87.7 153.4 93.2 153.2 98.5 153.1C103.4 153.1 108 153.4 112.8 153C122.3 152.3 131.9 152.6 141.5 152.7C168.2 153.4 194.9 152.8 221.6 151.1Z" fill="#C47855"/>
<path d="M221.5 133.1C221.5 137.8 221.5 143.1 221.6 148.5C220.7 148.4 219.9 148.4 219 148.3C196.6 146.5 179.5 148.3 151.7 148.7C146.9 148.8 142.1 149.7 137.4 149.7C131 149.7 124.6 148.8 118.2 148.5C97.2 147.5 46.7 152.5 22.7 149.8C22.6 143.4 22.6 137.8 22.6 134.2V132.9C58.9 134.3 62.9 133.3 94.6 133.4C106.9 133.4 153.3 135 165.6 134.4C183.9 133.6 203 132.5 221.5 133.1Z" fill="#C47855"/>
<path d="M175.5 171.6C191 171.3 206.5 171.2 222 171.2C222 172.3 222.1 173.4 222.1 174.5C219 174.7 215.8 175.1 212.5 175.3C205.9 175.8 198.9 175.7 192.4 175C186.8 174.3 181.2 174.2 175.6 174.4L175.5 171.6Z" fill="#4F4143"/>
<path d="M175.5 171.6V174.4C171.5 174.5 167.5 174.7 163.5 174.9C146.7 175.7 130.7 176.2 113.2 176.7C102.4 177 91.6 177.4 80.8 177.7C61.5 178.3 42 178.9 22.8 176.4C22.8 175.6 22.8 174.8 22.8 173.9C30.1 174.4 37.4 174.4 44.7 174.3C51.7 174.2 58.6 174.2 65.6 174.1C73 174 80.4 173.9 87.7 173.8C105.6 173.5 123.6 172.8 141.5 172.4C152.9 172 164.2 171.8 175.5 171.6Z" fill="#4F4143"/>
<path d="M22.6 149.9C46.7 152.6 97.2 147.5 118.1 148.6C124.5 148.9 130.9 149.8 137.3 149.8C142.1 149.8 146.9 148.9 151.6 148.8C179.4 148.4 196.5 146.5 218.9 148.4C219.8 148.5 220.6 148.5 221.5 148.6C221.5 149.5 221.5 150.3 221.5 151.2C194.9 152.8 168.1 153.4 141.4 153C131.8 152.8 122.3 152.6 112.7 153.3C107.8 153.7 103.2 153.4 98.4 153.4C93.1 153.4 87.6 153.7 82.4 153.2C72 152.2 37.6 153.6 22.5 154.3C22.6 152.7 22.6 151.3 22.6 149.9Z" fill="#4F4143"/>
<path d="M115.9 81.7C115.7 82.6 112.4 96.4 109.9 102.3C107.3 108.3 105.5 113.2 103 115.9C101.1 116.1 99.1 116.2 97.1 116C96.5 115.9 95.9 115.9 95.3 115.9C98.9 113.5 105.8 105.8 106.9 100.9C107.4 98.8 109 95.2 110.8 91.6C113.1 87.8 114.7 84.5 115.5 82.8C115.7 82.3 115.8 82 115.9 81.7Z" fill="#337E4F"/>
<path d="M110.7 91.5C112.3 88.2 114 85 115 83.1C115.1 83 115.2 82.8 115.4 82.7C114.6 84.4 113 87.8 110.7 91.5Z" fill="#3F9C61"/>
<path d="M111.6 86.1C108.1 89.6 102.9 94.2 97.7 97C88.6 101.9 83.3 103.5 80.6 106.1C77.9 108.8 77.5 110.7 77.5 110.7C76.7 109.3 75.7 108.1 74.6 107.4C74.1 107.1 73.7 106.7 73.1 106.2C73.1 106.2 73.7 101.4 78 98.8C80.2 97.5 82.6 96.6 85.5 95.9C88.2 95.2 91.4 94.5 95.2 93.7C100.3 92.5 107.2 89.2 111.6 86.1Z" fill="#3F9C61"/>
<path d="M103 115.8C110.6 114.9 116.8 111.7 118.2 110.9C115.6 112.7 100.4 122.9 92.4 123.9C83.7 125 80.1 128 78.8 129.7C80.4 126.7 80.8 122.9 80.4 119.3C80.4 119.3 80.8 119 81.5 118.6C83.5 117.5 88 115.6 95.2 115.8C95.8 115.8 96.4 115.8 97 115.9C99.1 116.1 101.1 116.1 103 115.8Z" fill="#388A56"/>
<path d="M98.8 105.4C103.5 102.1 107.7 96.5 110.7 91.5C108.9 95.1 107.3 98.8 106.8 100.8C105.7 105.7 98.8 113.4 95.2 115.8C88 115.6 83.5 117.5 81.5 118.6C85.4 113.8 89 112.2 98.8 105.4Z" fill="#3F9C61"/>
<path d="M115 83.1C114 85 112.3 88.2 110.7 91.5C107.7 96.5 103.6 102.1 98.8 105.4C88.9 112.2 85.4 113.8 81.5 118.7C80.7 119.1 80.4 119.4 80.4 119.4C80 116.2 79 113.1 77.6 110.7C77.6 110.7 78 108.8 80.7 106.1C83.4 103.4 88.7 101.9 97.8 97C103 94.2 108.2 89.6 111.7 86.1C113.1 85.1 114.3 84 115 83.1Z" fill="#337E4F"/>
<path d="M74.7 134C76.5 133 77.9 131.6 78.8 129.8C78.8 129.8 78.8 129.8 78.8 129.7C80 128 83.7 125 92.4 123.9C100.4 122.9 115.6 112.7 118.2 110.9C118.4 110.8 118.5 110.7 118.5 110.7C118.5 110.7 110.5 144.4 74.5 134.4V134H74.7Z" fill="#337E4F"/>
<path d="M58.4 87.6C58.4 87.6 63.5 95.3 68.6 101.3C70.2 103.2 71.8 104.9 73.2 106.1C73.7 106.6 74.2 107 74.7 107.3C75.8 108.1 76.7 109.2 77.6 110.6C79 113 80 116.1 80.4 119.3C80.8 122.9 80.4 126.7 78.8 129.7C78.8 129.7 78.8 129.7 78.8 129.8C77.9 131.5 76.5 133 74.7 134H74.5H70C78.3 123.5 71.2 111.5 67.4 105.8C63.9 100.5 59.1 89.4 58.4 87.8C58.3 87.7 58.4 87.7 58.4 87.6Z" fill="#299951"/>
<path d="M58.3 87.8C59 89.4 63.8 100.6 67.3 105.8C71.1 111.5 78.2 123.5 69.9 134H65.3C65.2 122.7 62.7 112.3 62.3 108.1C62.1 104.2 58.8 89.9 58.3 87.8Z" fill="#238245"/>
<path d="M58.8 55.4C60.1 60 62.5 66.5 66.3 71.2C72.7 79.2 75.8 83.7 77.3 88.6C78.8 93.5 78.1 98.5 78.1 98.5L78.3 98.7C74 101.3 73.4 106.1 73.4 106.1C72 104.8 70.4 103.1 68.8 101.3C68.6 100.9 65.6 94.2 63 87.5C60.3 80.7 59.6 72.7 60 65.9C59.9 62.5 59.4 58.6 58.8 55.4Z" fill="#388A56"/>
<path d="M58.3 87.8C58.8 89.8 62.1 104.2 62.4 108C62.8 112.2 65.3 122.6 65.4 133.9H60.5C55.5 126.8 53.7 111.7 56 103C56.8 100 57.9 90.3 58.2 88C58.2 88 58.3 87.9 58.3 87.8Z" fill="#299951"/>
<path d="M57.5 49.8C57.5 49.8 59.2 55.8 64.4 61C69.5 66.2 77.3 69.6 80.7 73.9C84.1 78.2 88 88.6 85.6 95.8C82.7 96.6 80.3 97.4 78.1 98.7L77.9 98.5C77.9 98.5 78.7 93.6 77.1 88.6C75.6 83.7 72.5 79.1 66.1 71.2C62.3 66.5 59.9 60 58.6 55.4C58.1 52.7 57.5 50.6 57.4 50.1C57.5 50 57.5 49.9 57.5 49.8Z" fill="#3F9C61"/>
<path d="M55 94.6C52.2 85.4 53.6 77.7 55.9 69.7C57.9 62.6 57.5 52.6 57.4 50.4C57.4 50.3 57.4 50.2 57.4 50.1C57.5 50.7 57.9 52.7 58.6 55.4C59.2 58.5 59.8 62.5 59.6 65.9C59.2 72.7 60 80.7 62.6 87.5C65.2 94.1 68.2 100.8 68.4 101.3C63.3 95.3 58.2 87.6 58.2 87.6C58.2 87.6 58.2 87.7 58.1 87.7C58 87.6 58 87.5 58 87.5C58 87.5 58 87.5 58 87.6C58 87.7 57.9 88 57.8 88.4C56.8 91.3 55.9 93.2 55 94.6Z" fill="#3F9C61"/>
<path d="M57.5 50.1C57.6 50.6 58.2 52.7 58.7 55.4C58 52.8 57.6 50.7 57.5 50.1C57.5 50.2 57.5 50.2 57.5 50.1Z" fill="#5BA150"/>
<path d="M58.2 88.1C57.9 90.5 56.8 100.1 56 103.1C53.7 111.8 55.5 126.9 60.5 134H54.7C50 130.3 45.8 113 51.1 104.6C55.4 97.8 57.5 90.8 58.1 88.4C58.1 88.3 58.1 88.2 58.2 88.1Z" fill="#238245"/>
<path d="M54.9 61.9C56.5 56.3 57.4 53 57.5 50.5C57.6 52.7 58 62.7 56 69.8C53.7 77.8 52.2 85.5 55.1 94.7C53.6 97.2 52.4 98.6 50.3 101.3C50.3 101.3 50.3 101.3 50.3 101.2C50.2 101 49.9 100.4 49.3 99.5C48.4 97.7 47.3 94.5 47.3 90.2C47.2 83.3 53.2 67.9 54.9 61.9Z" fill="#337E4F"/>
<path d="M58 88.5C57.4 90.9 55.3 97.9 51 104.7C45.7 113 49.9 130.4 54.6 134.1H47.2C47.2 134.1 44.7 132.1 42.7 128.6C41 125.7 39.7 121.8 40.6 117.2C40.7 116.8 40.8 116.4 40.9 115.9C41.4 114 42.3 112.1 43.7 110C46.6 105.8 48.6 103.2 50.1 101.3C52.2 98.6 53.4 97.3 54.9 94.7C55.9 93.2 56.8 91.3 58 88.5Z" fill="#299951"/>
<path d="M42.7 128.5C13.3 130.3 2.4 110.2 1.1 107.6C2.8 109.2 4.5 110 7.7 111.7C10.6 113.1 15.8 114 20.9 114.2C21.9 114.2 23 114.3 24 114.3C26.5 114.3 29.2 114.4 31.7 114.8C35.2 115.2 38.4 116 40.6 117.2C39.7 121.7 41 125.6 42.7 128.5Z" fill="#388A56"/>
<path d="M15.6 78.3C20 81.8 31.8 87.7 39.4 91C44.6 93.3 47.7 97.2 49.2 99.4C49.7 100.4 50 100.9 50.2 101.1V101.2C48.7 103.1 46.7 105.7 43.8 109.9C42.4 111.9 41.5 113.9 41 115.8C39.6 108 34 97 30.2 92.5C26.7 88.4 17.4 79.9 15.6 78.3Z" fill="#3F9C61"/>
<path d="M30.2 92.5C34 97 39.6 108 41 115.8C40.9 116.2 40.8 116.7 40.7 117.1C38.5 115.9 35.3 115.2 31.8 114.7C30 113 27.2 105.4 26 98.6C24.9 92.3 16.7 80 15.5 78.3V78.2L15.6 78.3C17.4 79.9 26.7 88.4 30.2 92.5Z" fill="#388A56"/>
<path d="M15.5 78.3C16.7 80 24.9 92.2 26 98.6C27.1 105.4 29.9 113.1 31.8 114.7C29.3 114.4 26.6 114.2 24.1 114.2C23.1 114.2 22.1 114.2 21 114.1C17.1 108.9 20.6 97.9 20.6 92.7C20.6 88 16.1 79.3 15.5 78.3Z" fill="#337E4F"/>
<path d="M3.4 116C1.7 111.7 0.799999 107.4 0.799999 107.4C0.899999 107.5 1 107.6 1 107.6C2.3 110.2 13.2 130.3 42.6 128.5C44.6 132 47.1 134 47.1 134C32.5 137.4 23.9 133.1 17 130.6C10.1 128.1 5.1 120.3 3.4 116Z" fill="#337E4F"/>
<path d="M162.4 140.6C161.1 137.9 157.4 132 150.4 131.7C145.2 131.5 141.7 133.1 139.6 134.5C138.8 134.5 138.3 134.5 138.3 134.5L141.6 130.5C141.6 130.5 147.6 127.5 153.7 130.4C159.8 133.3 162.9 138.5 163.3 142.2C163.3 142 163 141.4 162.4 140.6Z" fill="#2C7523"/>
<path d="M150.4 131.6C157.4 131.9 161.1 137.8 162.4 140.5C161.1 138.5 158.1 135 153.3 134.2C149.1 133.5 146.6 133.7 145.1 134.4C144.7 134.4 141.5 134.3 139.6 134.3C141.7 133 145.2 131.4 150.4 131.6Z" fill="#26661E"/>
<path d="M141.8 144.5C142.3 143.2 147.4 129.6 160.1 129C168.5 128.7 173.9 131.6 176.7 133.8C174.5 133.7 170.8 133.7 169.4 134.3C167.3 132.5 163.5 131.9 156.1 133.2C147.2 134.6 142.7 142.6 141.8 144.5Z" fill="#4FA183"/>
<path d="M155.5 127.1C164.4 122.6 173.1 127.3 173.1 127.3L178.4 134C178.4 134 177.7 134 176.7 133.9C173.8 131.7 168.5 128.7 160.1 129.1C147.4 129.6 142.2 143.3 141.8 144.6C141.8 144.6 141.8 144.6 141.8 144.7C141.7 144.9 141.6 145 141.6 145C142.1 139.3 146.6 131.5 155.5 127.1Z" fill="#52BFA0"/>
</svg>
